<svg width="64" height="64" viewBox="0 0 64 64" fill="none" xmlns="http://www.w3.org/2000/svg">
<g id="mdi:checkbox-multiple-marked-circle-outline">
<path id="Vector" d="M37.3333 5.33333C31.6754 5.33333 26.2492 7.58094 22.2484 11.5817C18.2476 15.5825 16 21.0087 16 26.6667C16 32.3246 18.2476 37.7508 22.2484 41.7516C26.2492 45.7524 31.6754 48 37.3333 48C42.9913 48 48.4175 45.7524 52.4183 41.7516C55.9455 38.2243 58.1101 33.5891 58.573 28.6639C58.6764 27.5641 57.7712 26.6667 56.6667 26.6667H55.3333C54.2288 26.6667 53.3464 27.5666 53.2107 28.6628C52.2318 36.5699 45.5105 42.6667 37.3333 42.6667C33.0899 42.6667 29.0202 40.981 26.0196 37.9804C23.019 34.9798 21.3333 30.9101 21.3333 26.6667C21.3333 22.4232 23.019 18.3535 26.0196 15.353C29.0202 12.3524 33.0899 10.6667 37.3333 10.6667C38.1104 10.6667 38.8874 10.7279 39.6479 10.842C40.3201 10.943 41.0113 10.7505 41.4935 10.2713L42.8369 8.93628C43.8618 7.91771 43.4928 6.19132 42.0847 5.86694C40.5404 5.5112 38.9566 5.33333 37.3333 5.33333ZM56.3209 10.9709C55.5406 10.1851 54.2705 10.1829 53.4874 10.9659L38.7476 25.7058C37.9665 26.4868 36.7002 26.4868 35.9191 25.7058L32.4059 22.1925C31.6229 21.4095 30.3527 21.4118 29.5725 22.1976L28.6309 23.1458C27.8546 23.9276 27.8568 25.1901 28.6359 25.9692L35.9191 33.2525C36.7002 34.0335 37.9665 34.0335 38.7476 33.2524L57.2574 14.7426C58.0365 13.9635 58.0388 12.701 57.2624 11.9191L56.3209 10.9709ZM10.8099 23.9401C11.0324 21.8243 8.6459 20.413 7.67702 22.307C7.57941 22.4978 7.48461 22.6902 7.39265 22.8841C6.04174 25.7335 5.33847 28.8466 5.33334 32C5.33334 37.6579 7.58095 43.0842 11.5817 47.0849C15.5825 51.0857 21.0087 53.3333 26.6667 53.3333C27.9182 53.3333 28.0215 51.6518 26.8741 51.1521C24.1131 49.9494 21.5565 48.2874 19.3043 46.2729C19.1814 46.163 19.0462 46.0679 18.9021 45.9879C16.4448 44.6237 14.3888 42.6356 12.9426 40.2223C11.4539 37.738 10.6673 34.8962 10.6667 32C10.6667 31.28 10.7315 30.5817 10.8222 29.8661C10.8423 29.707 10.8444 29.5461 10.8279 29.3866C10.7342 28.4799 10.6667 27.5733 10.6667 26.6667C10.6667 25.755 10.7148 24.8448 10.8099 23.9401Z" fill="#A86EFF" fill-opacity="0.35"/>
</g>
</svg>
