<svg width="64" height="64" viewBox="0 0 64 64" fill="none" xmlns="http://www.w3.org/2000/svg">
<g id="mdi:order-bool-descending">
<path id="Vector" d="M16 34.6667C10.1067 34.6667 5.33334 39.44 5.33334 45.3333C5.33334 51.2267 10.1067 56 16 56C21.8933 56 26.6667 51.2267 26.6667 45.3333C26.6667 39.44 21.8933 34.6667 16 34.6667ZM16 50.6667C13.0667 50.6667 10.6667 48.2667 10.6667 45.3333C10.6667 42.4 13.0667 40 16 40C18.9333 40 21.3333 42.4 21.3333 45.3333C21.3333 48.2667 18.9333 50.6667 16 50.6667ZM16 8C10.1067 8 5.33334 12.7733 5.33334 18.6667C5.33334 24.56 10.1067 29.3333 16 29.3333C21.8933 29.3333 26.6667 24.56 26.6667 18.6667C26.6667 12.7733 21.8933 8 16 8ZM32 16C32 14.5272 33.1939 13.3333 34.6667 13.3333H56C57.4728 13.3333 58.6667 14.5272 58.6667 16C58.6667 17.4728 57.4728 18.6667 56 18.6667H34.6667C33.1939 18.6667 32 17.4728 32 16ZM34.6667 50.6667C33.1939 50.6667 32 49.4728 32 48C32 46.5272 33.1939 45.3333 34.6667 45.3333H56C57.4728 45.3333 58.6667 46.5272 58.6667 48C58.6667 49.4728 57.4728 50.6667 56 50.6667H34.6667ZM32 32C32 30.5272 33.1939 29.3333 34.6667 29.3333H56C57.4728 29.3333 58.6667 30.5272 58.6667 32C58.6667 33.4728 57.4728 34.6667 56 34.6667H34.6667C33.1939 34.6667 32 33.4728 32 32Z" fill="#A86EFF" fill-opacity="0.35"/>
</g>
</svg>
