<svg width="64" height="64" viewBox="0 0 64 64" fill="none" xmlns="http://www.w3.org/2000/svg">
<g id="mdi:school-outline">
<path id="Vector" d="M32.9577 8.52238C32.3607 8.19677 31.6392 8.19677 31.0423 8.52238L5.88696 22.2435C4.49695 23.0017 4.4973 24.9977 5.88757 25.7554L12.2904 29.2449C12.9333 29.5953 13.3333 30.2689 13.3333 31.0011V44.6263C13.3333 45.3581 13.733 46.0314 14.3753 46.3819L31.0419 55.4772C31.6391 55.803 32.3609 55.803 32.9581 55.4772L49.6247 46.3819C50.267 46.0314 50.6667 45.3581 50.6667 44.6263V31.0011C50.6667 30.2689 51.0667 29.5953 51.7096 29.2449L53.0429 28.5183C54.3756 27.7919 56 28.7566 56 30.2744V43.3333C56 44.4379 56.8954 45.3333 58 45.3333H59.3333C60.4379 45.3333 61.3333 44.4379 61.3333 43.3333V25.1873C61.3333 24.4554 60.9336 23.7819 60.291 23.4315L32.9577 8.52238ZM46.9677 22.2442C48.3574 23.0022 48.3574 24.9978 46.9677 25.7558L32.9577 33.3976C32.3608 33.7232 31.6392 33.7232 31.0423 33.3976L17.0323 25.7558C15.6426 24.9978 15.6426 23.0022 17.0323 22.2442L31.0423 14.6024C31.6392 14.2768 32.3607 14.2768 32.9577 14.6024L46.9677 22.2442ZM45.3333 41.4779C45.3333 42.2106 44.9327 42.8846 44.2891 43.2347L32.9557 49.4001C32.3598 49.7243 31.6402 49.7243 31.0443 49.4001L19.7109 43.2347C19.0673 42.8846 18.6667 42.2106 18.6667 41.4779V36.0907C18.6667 34.5722 20.2923 33.6076 21.6251 34.3353L31.0416 39.4767C31.6389 39.8028 32.3611 39.8028 32.9584 39.4767L42.3749 34.3353C43.7077 33.6076 45.3333 34.5722 45.3333 36.0907V41.4779Z" fill="#A86EFF" fill-opacity="0.35"/>
</g>
</svg>
