<svg width="115" height="28" viewBox="0 0 115 28" fill="none" xmlns="http://www.w3.org/2000/svg">
<path fill-rule="evenodd" clip-rule="evenodd" d="M16.3411 15.0104V11.2393H3.96823V3.69715H20.452V0H0V27.5807H3.94934V15.0104H16.3411ZM47.1598 5.12065V10.1303C47.1598 10.1303 47.0464 10.0194 47.0275 10.0194C46.9708 9.9824 46.9142 9.92694 46.8575 9.87148C44.7789 7.7826 42.2468 7.24651 39.3556 7.6532C33.7623 8.4296 29.8697 13.3653 30.4554 18.8555C31.1168 25.0113 37.3337 29.2075 43.4372 27.6178C47.9724 26.4347 51.128 22.4603 51.1469 17.8203C51.1595 13.9507 51.1553 10.081 51.1511 6.21131C51.149 4.27647 51.1469 2.34163 51.1469 0.406793C51.1469 0.339632 51.1418 0.26749 51.137 0.198122L51.1369 0.198028L51.1369 0.197821V0.197801V0.197779V0.197755C51.1324 0.133604 51.128 0.0718385 51.128 0.0185932H47.1598V5.12065ZM40.8295 11.2949C44.4765 11.3134 47.2543 14.1232 47.2354 17.7464C47.2354 21.4066 44.4198 24.1794 40.7728 24.1609C37.1258 24.1425 34.3481 21.3326 34.367 17.6725C34.367 14.0493 37.2014 11.2764 40.8295 11.2949ZM59.1401 22.3862C58.2709 21.5174 57.7796 20.4637 57.6473 19.1697C57.874 19.1697 58.0441 19.1697 58.2142 19.1882H69.7409C70.1504 19.1882 70.5598 19.1861 70.9692 19.1841C71.788 19.18 72.6069 19.1759 73.4257 19.1882C73.8226 19.1882 73.9737 19.0588 73.9548 18.6891C73.9485 18.3933 73.9548 18.0955 73.9611 17.7976C73.9737 17.202 73.9863 16.6063 73.8981 16.0271C73.0667 10.6293 67.8513 6.87669 62.2958 7.63461C55.9844 8.50344 51.9595 14.7146 53.8113 20.7225C55.0207 24.623 58.4598 27.4328 62.5603 27.8765C66.7931 28.3201 70.9692 26.2128 72.9722 22.6265C73.0289 22.5156 73.0856 22.4047 73.1423 22.2568C73.0519 22.2568 72.9669 22.2516 72.8872 22.2467C72.8169 22.2424 72.7508 22.2383 72.6888 22.2383C72.2794 22.2322 71.8699 22.2281 71.4605 22.2239C70.6417 22.2157 69.8228 22.2075 69.004 22.1829C68.6639 22.1829 68.3993 22.2753 68.1348 22.5156C65.6782 24.7894 61.4455 24.7154 59.1401 22.3862ZM63.3729 11.3133C66.3396 11.1654 69.363 13.3837 69.722 15.9532H57.704C57.7796 13.7534 60.614 11.4427 63.3729 11.3133ZM96.8194 28H92.889V24.6171C92.889 24.6171 92.7378 24.8574 92.7189 24.8759C91.3206 26.9278 89.2987 27.8891 86.861 27.9815C81.7212 28.1664 77.394 24.8389 76.2791 19.9217C75.013 14.376 78.8868 8.77485 84.6691 7.77662C90.4513 6.77839 96.0069 10.7528 96.7249 16.4279C96.7816 16.8901 96.8194 17.3522 96.8194 17.8144V28ZM92.9079 17.8329C92.9268 14.1727 90.1679 11.3998 86.502 11.3998C82.8361 11.3998 80.0206 14.1727 80.0017 17.8144C80.0017 21.4191 82.8361 24.2474 86.4831 24.2659C90.1112 24.2844 92.889 21.493 92.9079 17.8329ZM27.7155 27.5807H23.8417V7.87493H27.7155V27.5807ZM25.8069 4.75108C27.1297 4.73259 28.169 3.6789 28.1501 2.34793C28.1501 1.01696 27.0919 -0.0182416 25.7502 0.00024412C24.3897 0.00024412 23.3315 1.05393 23.3504 2.3849C23.3693 3.71587 24.4653 4.76956 25.8069 4.75108Z" fill="#1F3A63"/>
<path fill-rule="evenodd" clip-rule="evenodd" d="M103.959 6.43191L101.885 9.82737L103.575 10.7582L106.218 6.44155L102.315 0L100.625 0.929757L103.959 6.43191ZM106.284 0.247931L108.333 3.65704H115V5.51656H107.195L104.593 1.17769L106.284 0.247931ZM112.763 8.63903L108.641 8.62538L105.307 14.1275L103.617 13.1978L107.52 6.75623L112.764 6.77848L112.763 8.63903Z" fill="#F5C049"/>
</svg>
