<svg width="3727" height="918" viewBox="0 0 3727 918" fill="none" xmlns="http://www.w3.org/2000/svg">
<path d="M166.5 167L310.693 416.75H22.3068L166.5 167Z" fill="url(#paint0_linear)"/>
<path d="M166.663 667.096L22.3693 417.404L310.756 417.288L166.663 667.096Z" fill="url(#paint1_linear)"/>
<path d="M667.163 667.5L417.413 811.693V523.307L667.163 667.5Z" fill="url(#paint2_linear)"/>
<path d="M167.068 667.663L416.76 523.369L416.876 811.756L167.068 667.663Z" fill="url(#paint3_linear)"/>
<path d="M667.163 166.5L417.413 310.693V22.3068L667.163 166.5Z" fill="url(#paint4_linear)"/>
<path d="M167.068 166.663L416.76 22.3693L416.876 310.756L167.068 166.663Z" fill="url(#paint5_linear)"/>
<path d="M667.5 167L811.693 416.75H523.307L667.5 167Z" fill="url(#paint6_linear)"/>
<path d="M667.663 667.096L523.369 417.404L811.756 417.288L667.663 667.096Z" fill="url(#paint7_linear)"/>
<path d="M1315.74 746.3C1267.14 746.3 1223.34 735.8 1184.34 714.8C1145.34 693.8 1114.74 664.7 1092.54 627.5C1070.94 589.7 1060.14 547.1 1060.14 499.7C1060.14 452.3 1070.94 410 1092.54 372.8C1114.74 335.6 1145.34 306.5 1184.34 285.5C1223.34 264.5 1267.14 254 1315.74 254C1364.94 254 1409.04 264.5 1448.04 285.5C1487.04 306.5 1517.34 335.6 1538.94 372.8C1561.14 410 1572.24 452.3 1572.24 499.7C1572.24 547.1 1561.14 589.7 1538.94 627.5C1517.34 664.7 1487.04 693.8 1448.04 714.8C1409.04 735.8 1364.94 746.3 1315.74 746.3ZM1315.74 650C1357.14 650 1391.34 636.2 1418.34 608.6C1445.34 581 1458.84 544.7 1458.84 499.7C1458.84 454.7 1445.34 418.4 1418.34 390.8C1391.34 363.2 1357.14 349.4 1315.74 349.4C1274.34 349.4 1240.14 363.2 1213.14 390.8C1186.74 418.4 1173.54 454.7 1173.54 499.7C1173.54 544.7 1186.74 581 1213.14 608.6C1240.14 636.2 1274.34 650 1315.74 650ZM1947.26 254C2018.06 254 2072.06 271.1 2109.26 305.3C2147.06 338.9 2165.96 389.9 2165.96 458.3V740H2059.76V681.5C2045.96 702.5 2026.16 718.7 2000.36 730.1C1975.16 740.9 1944.56 746.3 1908.56 746.3C1872.56 746.3 1841.06 740.3 1814.06 728.3C1787.06 715.7 1766.06 698.6 1751.06 677C1736.66 654.8 1729.46 629.9 1729.46 602.3C1729.46 559.1 1745.36 524.6 1777.16 498.8C1809.56 472.4 1860.26 459.2 1929.26 459.2H2053.46V452C2053.46 418.4 2043.26 392.6 2022.86 374.6C2003.06 356.6 1973.36 347.6 1933.76 347.6C1906.76 347.6 1880.06 351.8 1853.66 360.2C1827.86 368.6 1805.96 380.3 1787.96 395.3L1743.86 313.4C1769.06 294.2 1799.36 279.5 1834.76 269.3C1870.16 259.1 1907.66 254 1947.26 254ZM1931.96 664.4C1960.16 664.4 1985.06 658.1 2006.66 645.5C2028.86 632.3 2044.46 613.7 2053.46 589.7V533.9H1937.36C1872.56 533.9 1840.16 555.2 1840.16 597.8C1840.16 618.2 1848.26 634.4 1864.46 646.4C1880.66 658.4 1903.16 664.4 1931.96 664.4ZM2548.84 746.3C2509.84 746.3 2471.74 741.2 2434.54 731C2397.34 720.8 2367.64 707.9 2345.44 692.3L2388.64 606.8C2410.24 621.2 2436.04 632.9 2466.04 641.9C2496.64 650.3 2526.64 654.5 2556.04 654.5C2623.24 654.5 2656.84 636.8 2656.84 601.4C2656.84 584.6 2648.14 572.9 2630.74 566.3C2613.94 559.7 2586.64 553.4 2548.84 547.4C2509.24 541.4 2476.84 534.5 2451.64 526.7C2427.04 518.9 2405.44 505.4 2386.84 486.2C2368.84 466.4 2359.84 439.1 2359.84 404.3C2359.84 358.7 2378.74 322.4 2416.54 295.4C2454.94 267.8 2506.54 254 2571.34 254C2604.34 254 2637.34 257.9 2670.34 265.7C2703.34 272.9 2730.34 282.8 2751.34 295.4L2708.14 380.9C2667.34 356.9 2621.44 344.9 2570.44 344.9C2537.44 344.9 2512.24 350 2494.84 360.2C2478.04 369.8 2469.64 382.7 2469.64 398.9C2469.64 416.9 2478.64 429.8 2496.64 437.6C2515.24 444.8 2543.74 451.7 2582.14 458.3C2620.54 464.3 2652.04 471.2 2676.64 479C2701.24 486.8 2722.24 500 2739.64 518.6C2757.64 537.2 2766.64 563.6 2766.64 597.8C2766.64 642.8 2747.14 678.8 2708.14 705.8C2669.14 732.8 2616.04 746.3 2548.84 746.3ZM2953.52 259.4H3066.02V740H2953.52V259.4ZM3010.22 180.2C2989.82 180.2 2972.72 173.9 2958.92 161.3C2945.12 148.1 2938.22 131.9 2938.22 112.7C2938.22 93.5 2945.12 77.6 2958.92 64.9999C2972.72 51.8 2989.82 45.2 3010.22 45.2C3030.62 45.2 3047.72 51.5 3061.52 64.1C3075.32 76.1 3082.22 91.4 3082.22 110C3082.22 129.8 3075.32 146.6 3061.52 160.4C3048.32 173.6 3031.22 180.2 3010.22 180.2ZM3452.18 746.3C3413.18 746.3 3375.08 741.2 3337.88 731C3300.68 720.8 3270.98 707.9 3248.78 692.3L3291.98 606.8C3313.58 621.2 3339.38 632.9 3369.38 641.9C3399.98 650.3 3429.98 654.5 3459.38 654.5C3526.58 654.5 3560.18 636.8 3560.18 601.4C3560.18 584.6 3551.48 572.9 3534.08 566.3C3517.28 559.7 3489.98 553.4 3452.18 547.4C3412.58 541.4 3380.18 534.5 3354.98 526.7C3330.38 518.9 3308.78 505.4 3290.18 486.2C3272.18 466.4 3263.18 439.1 3263.18 404.3C3263.18 358.7 3282.08 322.4 3319.88 295.4C3358.28 267.8 3409.88 254 3474.68 254C3507.68 254 3540.68 257.9 3573.68 265.7C3606.68 272.9 3633.68 282.8 3654.68 295.4L3611.48 380.9C3570.68 356.9 3524.78 344.9 3473.78 344.9C3440.78 344.9 3415.58 350 3398.18 360.2C3381.38 369.8 3372.98 382.7 3372.98 398.9C3372.98 416.9 3381.98 429.8 3399.98 437.6C3418.58 444.8 3447.08 451.7 3485.48 458.3C3523.88 464.3 3555.38 471.2 3579.98 479C3604.58 486.8 3625.58 500 3642.98 518.6C3660.98 537.2 3669.98 563.6 3669.98 597.8C3669.98 642.8 3650.48 678.8 3611.48 705.8C3572.48 732.8 3519.38 746.3 3452.18 746.3Z" fill="#6B5FB9"/>
<defs>
<linearGradient id="paint0_linear" x1="166.5" y1="167" x2="166.5" y2="500" gradientUnits="userSpaceOnUse">
<stop offset="0.526042" stop-color="#6B5FB9"/>
<stop offset="1" stop-color="#6B5FB9" stop-opacity="0"/>
</linearGradient>
<linearGradient id="paint1_linear" x1="166.663" y1="667.096" x2="166.529" y2="334.096" gradientUnits="userSpaceOnUse">
<stop offset="0.526042" stop-color="#6B5FB9"/>
<stop offset="1" stop-color="#6B5FB9" stop-opacity="0"/>
</linearGradient>
<linearGradient id="paint2_linear" x1="667.163" y1="667.5" x2="334.163" y2="667.5" gradientUnits="userSpaceOnUse">
<stop offset="0.526042" stop-color="#6B5FB9"/>
<stop offset="1" stop-color="#6B5FB9" stop-opacity="0"/>
</linearGradient>
<linearGradient id="paint3_linear" x1="167.068" y1="667.663" x2="500.068" y2="667.529" gradientUnits="userSpaceOnUse">
<stop offset="0.526042" stop-color="#6B5FB9"/>
<stop offset="1" stop-color="#6B5FB9" stop-opacity="0"/>
</linearGradient>
<linearGradient id="paint4_linear" x1="667.163" y1="166.5" x2="334.163" y2="166.5" gradientUnits="userSpaceOnUse">
<stop offset="0.526042" stop-color="#6B5FB9"/>
<stop offset="1" stop-color="#6B5FB9" stop-opacity="0"/>
</linearGradient>
<linearGradient id="paint5_linear" x1="167.068" y1="166.663" x2="500.068" y2="166.529" gradientUnits="userSpaceOnUse">
<stop offset="0.526042" stop-color="#6B5FB9"/>
<stop offset="1" stop-color="#6B5FB9" stop-opacity="0"/>
</linearGradient>
<linearGradient id="paint6_linear" x1="667.5" y1="167" x2="667.5" y2="500" gradientUnits="userSpaceOnUse">
<stop offset="0.526042" stop-color="#6B5FB9"/>
<stop offset="1" stop-color="#6B5FB9" stop-opacity="0"/>
</linearGradient>
<linearGradient id="paint7_linear" x1="667.663" y1="667.096" x2="667.529" y2="334.096" gradientUnits="userSpaceOnUse">
<stop offset="0.526042" stop-color="#6B5FB9"/>
<stop offset="1" stop-color="#6B5FB9" stop-opacity="0"/>
</linearGradient>
</defs>
</svg>
