<svg width="4834" height="1428" viewBox="0 0 4834 1428" fill="none" xmlns="http://www.w3.org/2000/svg">
<path d="M279.442 285.886L521.445 713.432H37.4381L279.442 285.886Z" fill="url(#paint0_linear_2013_857)"/>
<path d="M279.715 1142L37.543 714.552L521.55 714.353L279.715 1142Z" fill="url(#paint1_linear_2013_857)"/>
<path d="M1119.72 1142.69L700.556 1389.53V895.847L1119.72 1142.69Z" fill="url(#paint2_linear_2013_857)"/>
<path d="M280.394 1142.97L699.459 895.953L699.654 1389.64L280.394 1142.97Z" fill="url(#paint3_linear_2013_857)"/>
<path d="M1119.72 285.031L700.556 531.874V38.1869L1119.72 285.031Z" fill="url(#paint4_linear_2013_857)"/>
<path d="M280.394 285.31L699.459 38.2937L699.654 531.981L280.394 285.31Z" fill="url(#paint5_linear_2013_857)"/>
<path d="M1120.28 285.886L1362.29 713.432H878.281L1120.28 285.886Z" fill="url(#paint6_linear_2013_857)"/>
<path d="M1120.56 1142L878.386 714.552L1362.39 714.353L1120.56 1142Z" fill="url(#paint7_linear_2013_857)"/>
<path d="M2259.43 1249.78H2226.31V1386H2200.1V1249.78H2179.65V1228.18H2200.1V1216.94C2200.1 1199.28 2204.61 1186.42 2213.64 1178.35C2222.85 1170.1 2237.54 1165.97 2257.7 1165.97V1187.86C2246.18 1187.86 2238.02 1190.16 2233.22 1194.77C2228.61 1199.18 2226.31 1206.58 2226.31 1216.94V1228.18H2259.43V1249.78ZM2333.76 1202.54C2328.77 1202.54 2324.55 1200.82 2321.09 1197.36C2317.63 1193.9 2315.91 1189.68 2315.91 1184.69C2315.91 1179.7 2317.63 1175.47 2321.09 1172.02C2324.55 1168.56 2328.77 1166.83 2333.76 1166.83C2338.56 1166.83 2342.59 1168.56 2345.86 1172.02C2349.31 1175.47 2351.04 1179.7 2351.04 1184.69C2351.04 1189.68 2349.31 1193.9 2345.86 1197.36C2342.59 1200.82 2338.56 1202.54 2333.76 1202.54ZM2346.43 1228.18V1386H2320.23V1228.18H2346.43ZM2498.24 1225.3C2517.44 1225.3 2532.99 1231.15 2544.89 1242.86C2556.8 1254.38 2562.75 1271.09 2562.75 1292.98V1386H2536.83V1296.72C2536.83 1280.98 2532.89 1268.98 2525.02 1260.72C2517.15 1252.27 2506.4 1248.05 2492.77 1248.05C2478.94 1248.05 2467.9 1252.37 2459.65 1261.01C2451.58 1269.65 2447.55 1282.22 2447.55 1298.74V1386H2421.34V1228.18H2447.55V1250.64C2452.73 1242.58 2459.74 1236.34 2468.57 1231.92C2477.6 1227.5 2487.49 1225.3 2498.24 1225.3ZM2626.01 1306.51C2626.01 1290.38 2629.27 1276.27 2635.8 1264.18C2642.33 1251.89 2651.26 1242.38 2662.58 1235.66C2674.1 1228.94 2686.87 1225.58 2700.89 1225.58C2714.71 1225.58 2726.71 1228.56 2736.89 1234.51C2747.06 1240.46 2754.65 1247.95 2759.64 1256.98V1228.18H2786.14V1386H2759.64V1356.62C2754.46 1365.84 2746.68 1373.52 2736.31 1379.66C2726.14 1385.62 2714.23 1388.59 2700.6 1388.59C2686.58 1388.59 2673.91 1385.14 2662.58 1378.22C2651.26 1371.31 2642.33 1361.62 2635.8 1349.14C2629.27 1336.66 2626.01 1322.45 2626.01 1306.51ZM2759.64 1306.8C2759.64 1294.9 2757.24 1284.53 2752.44 1275.7C2747.64 1266.86 2741.11 1260.14 2732.86 1255.54C2724.79 1250.74 2715.86 1248.34 2706.07 1248.34C2696.28 1248.34 2687.35 1250.64 2679.29 1255.25C2671.22 1259.86 2664.79 1266.58 2659.99 1275.41C2655.19 1284.24 2652.79 1294.61 2652.79 1306.51C2652.79 1318.61 2655.19 1329.17 2659.99 1338.19C2664.79 1347.02 2671.22 1353.84 2679.29 1358.64C2687.35 1363.25 2696.28 1365.55 2706.07 1365.55C2715.86 1365.55 2724.79 1363.25 2732.86 1358.64C2741.11 1353.84 2747.64 1347.02 2752.44 1338.19C2757.24 1329.17 2759.64 1318.7 2759.64 1306.8ZM2937.56 1225.3C2956.76 1225.3 2972.31 1231.15 2984.22 1242.86C2996.12 1254.38 3002.07 1271.09 3002.07 1292.98V1386H2976.15V1296.72C2976.15 1280.98 2972.22 1268.98 2964.35 1260.72C2956.47 1252.27 2945.72 1248.05 2932.09 1248.05C2918.27 1248.05 2907.23 1252.37 2898.97 1261.01C2890.91 1269.65 2886.87 1282.22 2886.87 1298.74V1386H2860.67V1228.18H2886.87V1250.64C2892.06 1242.58 2899.07 1236.34 2907.9 1231.92C2916.92 1227.5 2926.81 1225.3 2937.56 1225.3ZM3065.33 1306.8C3065.33 1290.48 3068.6 1276.27 3075.12 1264.18C3081.65 1251.89 3090.68 1242.38 3102.2 1235.66C3113.91 1228.94 3127.25 1225.58 3142.23 1225.58C3161.62 1225.58 3177.56 1230.29 3190.04 1239.7C3202.71 1249.1 3211.06 1262.16 3215.09 1278.86H3186.87C3184.18 1269.26 3178.9 1261.68 3171.03 1256.11C3163.35 1250.54 3153.75 1247.76 3142.23 1247.76C3127.25 1247.76 3115.16 1252.94 3105.94 1263.31C3096.72 1273.49 3092.12 1287.98 3092.12 1306.8C3092.12 1325.81 3096.72 1340.5 3105.94 1350.86C3115.16 1361.23 3127.25 1366.42 3142.23 1366.42C3153.75 1366.42 3163.35 1363.73 3171.03 1358.35C3178.71 1352.98 3183.99 1345.3 3186.87 1335.31H3215.09C3210.87 1351.44 3202.42 1364.4 3189.75 1374.19C3177.08 1383.79 3161.24 1388.59 3142.23 1388.59C3127.25 1388.59 3113.91 1385.23 3102.2 1378.51C3090.68 1371.79 3081.65 1362.29 3075.12 1350C3068.6 1337.71 3065.33 1323.31 3065.33 1306.8ZM3293.84 1202.54C3288.85 1202.54 3284.62 1200.82 3281.17 1197.36C3277.71 1193.9 3275.98 1189.68 3275.98 1184.69C3275.98 1179.7 3277.71 1175.47 3281.17 1172.02C3284.62 1168.56 3288.85 1166.83 3293.84 1166.83C3298.64 1166.83 3302.67 1168.56 3305.93 1172.02C3309.39 1175.47 3311.12 1179.7 3311.12 1184.69C3311.12 1189.68 3309.39 1193.9 3305.93 1197.36C3302.67 1200.82 3298.64 1202.54 3293.84 1202.54ZM3306.51 1228.18V1386H3280.3V1228.18H3306.51ZM3525.42 1301.04C3525.42 1306.03 3525.13 1311.31 3524.55 1316.88H3398.41C3399.37 1332.43 3404.65 1344.62 3414.25 1353.46C3424.04 1362.1 3435.85 1366.42 3449.67 1366.42C3461 1366.42 3470.41 1363.82 3477.9 1358.64C3485.58 1353.26 3490.95 1346.16 3494.02 1337.33H3522.25C3518.02 1352.5 3509.58 1364.88 3496.9 1374.48C3484.23 1383.89 3468.49 1388.59 3449.67 1388.59C3434.7 1388.59 3421.26 1385.23 3409.35 1378.51C3397.64 1371.79 3388.42 1362.29 3381.7 1350C3374.98 1337.52 3371.62 1323.12 3371.62 1306.8C3371.62 1290.48 3374.89 1276.18 3381.42 1263.89C3387.94 1251.6 3397.06 1242.19 3408.78 1235.66C3420.68 1228.94 3434.31 1225.58 3449.67 1225.58C3464.65 1225.58 3477.9 1228.85 3489.42 1235.38C3500.94 1241.9 3509.77 1250.93 3515.91 1262.45C3522.25 1273.78 3525.42 1286.64 3525.42 1301.04ZM3498.34 1295.57C3498.34 1285.58 3496.14 1277.04 3491.72 1269.94C3487.3 1262.64 3481.26 1257.17 3473.58 1253.52C3466.09 1249.68 3457.74 1247.76 3448.52 1247.76C3435.27 1247.76 3423.94 1251.98 3414.54 1260.43C3405.32 1268.88 3400.04 1280.59 3398.7 1295.57H3498.34ZM3616.46 1253.81C3621.07 1244.78 3627.59 1237.78 3636.04 1232.78C3644.68 1227.79 3655.15 1225.3 3667.43 1225.3V1252.37H3660.52C3631.15 1252.37 3616.46 1268.3 3616.46 1300.18V1386H3590.25V1228.18H3616.46V1253.81ZM3796.76 1388.59C3781.98 1388.59 3768.54 1385.23 3756.44 1378.51C3744.54 1371.79 3735.13 1362.29 3728.22 1350C3721.5 1337.52 3718.14 1323.12 3718.14 1306.8C3718.14 1290.67 3721.59 1276.46 3728.5 1264.18C3735.61 1251.7 3745.21 1242.19 3757.3 1235.66C3769.4 1228.94 3782.94 1225.58 3797.91 1225.58C3812.89 1225.58 3826.42 1228.94 3838.52 1235.66C3850.62 1242.19 3860.12 1251.6 3867.03 1263.89C3874.14 1276.18 3877.69 1290.48 3877.69 1306.8C3877.69 1323.12 3874.04 1337.52 3866.74 1350C3859.64 1362.29 3849.94 1371.79 3837.66 1378.51C3825.37 1385.23 3811.74 1388.59 3796.76 1388.59ZM3796.76 1365.55C3806.17 1365.55 3815 1363.34 3823.26 1358.93C3831.51 1354.51 3838.14 1347.89 3843.13 1339.06C3848.31 1330.22 3850.9 1319.47 3850.9 1306.8C3850.9 1294.13 3848.41 1283.38 3843.42 1274.54C3838.42 1265.71 3831.9 1259.18 3823.83 1254.96C3815.77 1250.54 3807.03 1248.34 3797.62 1248.34C3788.02 1248.34 3779.19 1250.54 3771.13 1254.96C3763.26 1259.18 3756.92 1265.71 3752.12 1274.54C3747.32 1283.38 3744.92 1294.13 3744.92 1306.8C3744.92 1319.66 3747.22 1330.51 3751.83 1339.34C3756.63 1348.18 3762.97 1354.8 3770.84 1359.22C3778.71 1363.44 3787.35 1365.55 3796.76 1365.55Z" fill="#6B5FB9"/>
<path d="M1824 983C1770.67 983 1722.67 971.333 1680 948C1637.33 924 1603.67 890.333 1579 847C1555 803.667 1543 753.667 1543 697C1543 640.333 1555.33 590.333 1580 547C1605.33 503.667 1639.67 470.333 1683 447C1726.33 423 1774.67 411 1828 411C1881.33 411 1929.67 423 1973 447C2016.33 470.333 2050.33 503.667 2075 547C2100.33 590.333 2113 640.333 2113 697C2113 753.667 2100 803.667 2074 847C2048.67 890.333 2014 924 1970 948C1926.67 971.333 1878 983 1824 983ZM1824 861C1849.33 861 1873 855 1895 843C1917.67 830.333 1935.67 811.667 1949 787C1962.33 762.333 1969 732.333 1969 697C1969 644.333 1955 604 1927 576C1899.67 547.333 1866 533 1826 533C1786 533 1752.33 547.333 1725 576C1698.33 604 1685 644.333 1685 697C1685 749.667 1698 790.333 1724 819C1750.67 847 1784 861 1824 861ZM2279.7 695C2279.7 639 2290.7 589.333 2312.7 546C2335.36 502.667 2365.7 469.333 2403.7 446C2442.36 422.667 2485.36 411 2532.7 411C2574.03 411 2610.03 419.333 2640.7 436C2672.03 452.667 2697.03 473.667 2715.7 499V420H2856.7V974H2715.7V893C2697.7 919 2672.7 940.667 2640.7 958C2609.36 974.667 2573.03 983 2531.7 983C2485.03 983 2442.36 971 2403.7 947C2365.7 923 2335.36 889.333 2312.7 846C2290.7 802 2279.7 751.667 2279.7 695ZM2715.7 697C2715.7 663 2709.03 634 2695.7 610C2682.36 585.333 2664.36 566.667 2641.7 554C2619.03 540.667 2594.7 534 2568.7 534C2542.7 534 2518.7 540.333 2496.7 553C2474.7 565.667 2456.7 584.333 2442.7 609C2429.36 633 2422.7 661.667 2422.7 695C2422.7 728.333 2429.36 757.667 2442.7 783C2456.7 807.667 2474.7 826.667 2496.7 840C2519.36 853.333 2543.36 860 2568.7 860C2594.7 860 2619.03 853.667 2641.7 841C2664.36 827.667 2682.36 809 2695.7 785C2709.03 760.333 2715.7 731 2715.7 697ZM3305.43 983C3260.1 983 3219.43 975 3183.43 959C3147.43 942.333 3118.76 920 3097.43 892C3076.76 864 3065.43 833 3063.43 799H3204.43C3207.1 820.333 3217.43 838 3235.43 852C3254.1 866 3277.1 873 3304.43 873C3331.1 873 3351.76 867.667 3366.43 857C3381.76 846.333 3389.43 832.667 3389.43 816C3389.43 798 3380.1 784.667 3361.43 776C3343.43 766.667 3314.43 756.667 3274.43 746C3233.1 736 3199.1 725.667 3172.43 715C3146.43 704.333 3123.76 688 3104.43 666C3085.76 644 3076.43 614.333 3076.43 577C3076.43 546.333 3085.1 518.333 3102.43 493C3120.43 467.667 3145.76 447.667 3178.43 433C3211.76 418.333 3250.76 411 3295.43 411C3361.43 411 3414.1 427.667 3453.43 461C3492.76 493.667 3514.43 538 3518.43 594H3384.43C3382.43 572 3373.1 554.667 3356.43 542C3340.43 528.667 3318.76 522 3291.43 522C3266.1 522 3246.43 526.667 3232.43 536C3219.1 545.333 3212.43 558.333 3212.43 575C3212.43 593.667 3221.76 608 3240.43 618C3259.1 627.333 3288.1 637 3327.43 647C3367.43 657 3400.43 667.333 3426.43 678C3452.43 688.667 3474.76 705.333 3493.43 728C3512.76 750 3522.76 779.333 3523.43 816C3523.43 848 3514.43 876.667 3496.43 902C3479.1 927.333 3453.76 947.333 3420.43 962C3387.76 976 3349.43 983 3305.43 983ZM3809.35 354C3784.68 354 3764.02 346.333 3747.35 331C3731.35 315 3723.35 295.333 3723.35 272C3723.35 248.667 3731.35 229.333 3747.35 214C3764.02 198 3784.68 190 3809.35 190C3834.02 190 3854.35 198 3870.35 214C3887.02 229.333 3895.35 248.667 3895.35 272C3895.35 295.333 3887.02 315 3870.35 331C3854.35 346.333 3834.02 354 3809.35 354ZM3878.35 420V974H3738.35V420H3878.35ZM4328.67 983C4283.34 983 4242.67 975 4206.67 959C4170.67 942.333 4142.01 920 4120.67 892C4100.01 864 4088.67 833 4086.67 799H4227.67C4230.34 820.333 4240.67 838 4258.67 852C4277.34 866 4300.34 873 4327.67 873C4354.34 873 4375.01 867.667 4389.67 857C4405.01 846.333 4412.67 832.667 4412.67 816C4412.67 798 4403.34 784.667 4384.67 776C4366.67 766.667 4337.67 756.667 4297.67 746C4256.34 736 4222.34 725.667 4195.67 715C4169.67 704.333 4147.01 688 4127.67 666C4109.01 644 4099.67 614.333 4099.67 577C4099.67 546.333 4108.34 518.333 4125.67 493C4143.67 467.667 4169.01 447.667 4201.67 433C4235.01 418.333 4274.01 411 4318.67 411C4384.67 411 4437.34 427.667 4476.67 461C4516.01 493.667 4537.67 538 4541.67 594H4407.67C4405.67 572 4396.34 554.667 4379.67 542C4363.67 528.667 4342.01 522 4314.67 522C4289.34 522 4269.67 526.667 4255.67 536C4242.34 545.333 4235.67 558.333 4235.67 575C4235.67 593.667 4245.01 608 4263.67 618C4282.34 627.333 4311.34 637 4350.67 647C4390.67 657 4423.67 667.333 4449.67 678C4475.67 688.667 4498.01 705.333 4516.67 728C4536.01 750 4546.01 779.333 4546.67 816C4546.67 848 4537.67 876.667 4519.67 902C4502.34 927.333 4477.01 947.333 4443.67 962C4411.01 976 4372.67 983 4328.67 983Z" fill="#6B5FB9"/>
<defs>
<linearGradient id="paint0_linear_2013_857" x1="279.442" y1="285.886" x2="279.442" y2="855.948" gradientUnits="userSpaceOnUse">
<stop offset="0.526042" stop-color="#6B5FB9"/>
<stop offset="1" stop-color="#6B5FB9" stop-opacity="0"/>
</linearGradient>
<linearGradient id="paint1_linear_2013_857" x1="279.715" y1="1142" x2="279.481" y2="571.937" gradientUnits="userSpaceOnUse">
<stop offset="0.526042" stop-color="#6B5FB9"/>
<stop offset="1" stop-color="#6B5FB9" stop-opacity="0"/>
</linearGradient>
<linearGradient id="paint2_linear_2013_857" x1="1119.72" y1="1142.69" x2="560.836" y2="1142.69" gradientUnits="userSpaceOnUse">
<stop offset="0.526042" stop-color="#6B5FB9"/>
<stop offset="1" stop-color="#6B5FB9" stop-opacity="0"/>
</linearGradient>
<linearGradient id="paint3_linear_2013_857" x1="280.394" y1="1142.97" x2="839.277" y2="1142.75" gradientUnits="userSpaceOnUse">
<stop offset="0.526042" stop-color="#6B5FB9"/>
<stop offset="1" stop-color="#6B5FB9" stop-opacity="0"/>
</linearGradient>
<linearGradient id="paint4_linear_2013_857" x1="1119.72" y1="285.031" x2="560.836" y2="285.031" gradientUnits="userSpaceOnUse">
<stop offset="0.526042" stop-color="#6B5FB9"/>
<stop offset="1" stop-color="#6B5FB9" stop-opacity="0"/>
</linearGradient>
<linearGradient id="paint5_linear_2013_857" x1="280.394" y1="285.31" x2="839.277" y2="285.089" gradientUnits="userSpaceOnUse">
<stop offset="0.526042" stop-color="#6B5FB9"/>
<stop offset="1" stop-color="#6B5FB9" stop-opacity="0"/>
</linearGradient>
<linearGradient id="paint6_linear_2013_857" x1="1120.28" y1="285.886" x2="1120.28" y2="855.948" gradientUnits="userSpaceOnUse">
<stop offset="0.526042" stop-color="#6B5FB9"/>
<stop offset="1" stop-color="#6B5FB9" stop-opacity="0"/>
</linearGradient>
<linearGradient id="paint7_linear_2013_857" x1="1120.56" y1="1142" x2="1120.32" y2="571.937" gradientUnits="userSpaceOnUse">
<stop offset="0.526042" stop-color="#6B5FB9"/>
<stop offset="1" stop-color="#6B5FB9" stop-opacity="0"/>
</linearGradient>
</defs>
</svg>
