<svg width="2999" height="677" viewBox="0 0 2999 677" fill="none" xmlns="http://www.w3.org/2000/svg">
<path d="M629.696 612.25C589.196 612.25 552.696 603.5 520.196 586C487.696 568.5 462.196 544.25 443.696 513.25C425.696 481.75 416.696 446.25 416.696 406.75C416.696 367.25 425.696 332 443.696 301C462.196 270 487.696 245.75 520.196 228.25C552.696 210.75 589.196 202 629.696 202C670.696 202 707.446 210.75 739.946 228.25C772.446 245.75 797.696 270 815.696 301C834.196 332 843.446 367.25 843.446 406.75C843.446 446.25 834.196 481.75 815.696 513.25C797.696 544.25 772.446 568.5 739.946 586C707.446 603.5 670.696 612.25 629.696 612.25ZM629.696 532C664.196 532 692.696 520.5 715.196 497.5C737.696 474.5 748.946 444.25 748.946 406.75C748.946 369.25 737.696 339 715.196 316C692.696 293 664.196 281.5 629.696 281.5C595.196 281.5 566.696 293 544.196 316C522.196 339 511.196 369.25 511.196 406.75C511.196 444.25 522.196 474.5 544.196 497.5C566.696 520.5 595.196 532 629.696 532ZM1155.97 202C1214.97 202 1259.97 216.25 1290.97 244.75C1322.47 272.75 1338.22 315.25 1338.22 372.25V607H1249.72V558.25C1238.22 575.75 1221.72 589.25 1200.22 598.75C1179.22 607.75 1153.72 612.25 1123.72 612.25C1093.72 612.25 1067.47 607.25 1044.97 597.25C1022.47 586.75 1004.97 572.5 992.468 554.5C980.468 536 974.468 515.25 974.468 492.25C974.468 456.25 987.718 427.5 1014.22 406C1041.22 384 1083.47 373 1140.97 373H1244.47V367C1244.47 339 1235.97 317.5 1218.97 302.5C1202.47 287.5 1177.72 280 1144.72 280C1122.22 280 1099.97 283.5 1077.97 290.5C1056.47 297.5 1038.22 307.25 1023.22 319.75L986.468 251.5C1007.47 235.5 1032.72 223.25 1062.22 214.75C1091.72 206.25 1122.97 202 1155.97 202ZM1143.22 544C1166.72 544 1187.47 538.75 1205.47 528.25C1223.97 517.25 1236.97 501.75 1244.47 481.75V435.25H1147.72C1093.72 435.25 1066.72 453 1066.72 488.5C1066.72 505.5 1073.47 519 1086.97 529C1100.47 539 1119.22 544 1143.22 544ZM1657.28 612.25C1624.78 612.25 1593.03 608 1562.03 599.5C1531.03 591 1506.28 580.25 1487.78 567.25L1523.78 496C1541.78 508 1563.28 517.75 1588.28 525.25C1613.78 532.25 1638.78 535.75 1663.28 535.75C1719.28 535.75 1747.28 521 1747.28 491.5C1747.28 477.5 1740.03 467.75 1725.53 462.25C1711.53 456.75 1688.78 451.5 1657.28 446.5C1624.28 441.5 1597.28 435.75 1576.28 429.25C1555.78 422.75 1537.78 411.5 1522.28 395.5C1507.28 379 1499.78 356.25 1499.78 327.25C1499.78 289.25 1515.53 259 1547.03 236.5C1579.03 213.5 1622.03 202 1676.03 202C1703.53 202 1731.03 205.25 1758.53 211.75C1786.03 217.75 1808.53 226 1826.03 236.5L1790.03 307.75C1756.03 287.75 1717.78 277.75 1675.28 277.75C1647.78 277.75 1626.78 282 1612.28 290.5C1598.28 298.5 1591.28 309.25 1591.28 322.75C1591.28 337.75 1598.78 348.5 1613.78 355C1629.28 361 1653.03 366.75 1685.03 372.25C1717.03 377.25 1743.28 383 1763.78 389.5C1784.28 396 1801.78 407 1816.28 422.5C1831.28 438 1838.78 460 1838.78 488.5C1838.78 526 1822.53 556 1790.03 578.5C1757.53 601 1713.28 612.25 1657.28 612.25ZM1994.52 206.5H2088.27V607H1994.52V206.5ZM2041.77 140.5C2024.77 140.5 2010.52 135.25 1999.02 124.75C1987.52 113.75 1981.77 100.25 1981.77 84.25C1981.77 68.25 1987.52 55 1999.02 44.5C2010.52 33.5 2024.77 28 2041.77 28C2058.77 28 2073.02 33.25 2084.52 43.75C2096.02 53.75 2101.77 66.5 2101.77 82C2101.77 98.5 2096.02 112.5 2084.52 124C2073.52 135 2059.27 140.5 2041.77 140.5ZM2410.07 612.25C2377.57 612.25 2345.82 608 2314.82 599.5C2283.82 591 2259.07 580.25 2240.57 567.25L2276.57 496C2294.57 508 2316.07 517.75 2341.07 525.25C2366.57 532.25 2391.57 535.75 2416.07 535.75C2472.07 535.75 2500.07 521 2500.07 491.5C2500.07 477.5 2492.82 467.75 2478.32 462.25C2464.32 456.75 2441.57 451.5 2410.07 446.5C2377.07 441.5 2350.07 435.75 2329.07 429.25C2308.57 422.75 2290.57 411.5 2275.07 395.5C2260.07 379 2252.57 356.25 2252.57 327.25C2252.57 289.25 2268.32 259 2299.82 236.5C2331.82 213.5 2374.82 202 2428.82 202C2456.32 202 2483.82 205.25 2511.32 211.75C2538.82 217.75 2561.32 226 2578.82 236.5L2542.82 307.75C2508.82 287.75 2470.57 277.75 2428.07 277.75C2400.57 277.75 2379.57 282 2365.07 290.5C2351.07 298.5 2344.07 309.25 2344.07 322.75C2344.07 337.75 2351.57 348.5 2366.57 355C2382.07 361 2405.82 366.75 2437.82 372.25C2469.82 377.25 2496.07 383 2516.57 389.5C2537.07 396 2554.57 407 2569.07 422.5C2584.07 438 2591.57 460 2591.57 488.5C2591.57 526 2575.32 556 2542.82 578.5C2510.32 601 2466.07 612.25 2410.07 612.25Z" fill="#37609B"/>
</svg>
