<?xml version="1.0" encoding="UTF-8"?><svg id="Layer_1" xmlns="http://www.w3.org/2000/svg" viewBox="0 0 250 250"><path d="m217.45,29.87h-33.51c-1.28-7.48-7.8-13.19-15.64-13.19h-86.6c-7.84,0-14.36,5.71-15.64,13.19h-33.51c-8.75,0-15.87,7.12-15.87,15.87v126.78c0,8.75,7.12,15.87,15.87,15.87h70.56v15.49h-.28c-10.24,0-18.56,8.33-18.56,18.56v5.64c0,2.88,2.34,5.23,5.23,5.23h71c2.88,0,5.23-2.34,5.23-5.23v-5.64c0-10.24-8.33-18.56-18.56-18.56h-.28v-15.49h37.67c1.75,0,3.17-1.42,3.17-3.17s-1.42-3.17-3.17-3.17H32.55c-5.25,0-9.52-4.27-9.52-9.52V45.74c0-5.25,4.27-9.52,9.52-9.52h33.28v6.35h-31.59c-2.68,0-4.87,2.18-4.87,4.87v123.4c0,2.68,2.18,4.87,4.87,4.87h181.52c2.68,0,4.87-2.18,4.87-4.87V47.43c0-2.68-2.18-4.87-4.87-4.87h-31.59v-6.35h33.28c5.25,0,9.52,4.27,9.52,9.52v126.78c0,5.25-4.27,9.52-9.52,9.52h-18.08c-1.75,0-3.17,1.42-3.17,3.17s1.42,3.17,3.17,3.17h18.08c8.75,0,15.87-7.12,15.87-15.87V45.74c0-8.75-7.12-15.87-15.87-15.87h0Zm-107.99,158.52h31.08v15.49h-31.08v-15.49Zm-3.17,21.84s.01,0,.02,0h37.4s.01,0,.02,0,.01,0,.02,0h3.43c6.74,0,12.22,5.48,12.22,12.22v4.52h-68.76v-4.52c0-6.74,5.48-12.22,12.22-12.22h3.43s.01,0,.02,0h0Zm71.53-40.88h-105.64v-93.99c0-1.75-1.42-3.17-3.17-3.17s-3.17,1.42-3.17,3.17v94h-30.11V48.91h30.11v11.63c0,1.75,1.42,3.17,3.17,3.17s3.17-1.42,3.17-3.17v-28c0-5.25,4.27-9.52,9.52-9.52h86.6c5.25,0,9.52,4.27,9.52,9.52v136.8Zm36.46-120.43v120.44h-30.11V48.91h30.11Zm-52.74,101.47h-73.08c-1.75,0-3.17,1.42-3.17,3.17s1.42,3.17,3.17,3.17h73.08c1.75,0,3.17-1.42,3.17-3.17s-1.42-3.17-3.17-3.17Zm0-19.04h-73.08c-1.75,0-3.17,1.42-3.17,3.17s1.42,3.17,3.17,3.17h73.08c1.75,0,3.17-1.42,3.17-3.17s-1.42-3.17-3.17-3.17Zm-15.22-72.27c-3.76-3.42-9.59-3.23-13.26.44l-14.46,14.46-1.79-1.79c-3.65-3.69-9.8-3.66-13.46,0-3.71,3.71-3.71,9.75,0,13.46l7.03,7.03c2.2,2.19,5.12,3.4,8.23,3.4s6.03-1.21,8.23-3.4l19.82-19.82c3.8-3.77,3.6-10.2-.33-13.78h0Zm-4.16,9.29l-19.82,19.82c-1,1-2.32,1.54-3.74,1.54s-2.74-.55-3.74-1.54l-7.03-7.03c-1.24-1.24-1.24-3.25,0-4.49,1.22-1.22,3.27-1.23,4.49,0l3.14,3.14c.84.84,1.95,1.3,3.14,1.3s2.3-.46,3.14-1.3l15.8-15.8c1.25-1.25,3.27-1.36,4.5-.24,1.32,1.2,1.39,3.34.11,4.6h0Zm-17.16-32.65c-22.4,0-40.62,18.22-40.62,40.62s18.22,40.62,40.62,40.62,40.62-18.22,40.62-40.62-18.22-40.62-40.62-40.62Zm0,74.89c-18.9,0-34.27-15.37-34.27-34.27s15.37-34.27,34.27-34.27,34.27,15.37,34.27,34.27-15.37,34.27-34.27,34.27Z" fill="#6b5fb9"/></svg>