<?xml version="1.0" encoding="UTF-8"?><svg id="Layer_1" xmlns="http://www.w3.org/2000/svg" viewBox="0 0 250 250"><g id="Registration"><path d="m223.16,199.47h-3.38v-121.86c0-7.48-6.06-13.54-13.54-13.54h-16.92V20.07c0-1.87-1.52-3.38-3.38-3.38h-121.86c-1.87,0-3.38,1.52-3.38,3.38v44h-16.92c-7.48,0-13.54,6.06-13.54,13.54v121.86h-3.38c-5.61,0-10.15,4.55-10.15,10.15v6.77c0,9.35,7.58,16.92,16.92,16.92h182.79c9.35,0,16.92-7.58,16.92-16.92v-6.77c0-5.61-4.55-10.15-10.15-10.15Zm-172.63-13.54v-101.55h10.15v101.55h-10.15Zm16.92-142.17h115.09v142.17h-115.09V43.76Zm121.86,40.62h10.15v101.55h-10.15v-101.55ZM67.46,23.45h115.09v13.54h-115.09v-13.54Zm-30.46,54.16c0-3.74,3.03-6.77,6.77-6.77h16.92v6.77h-13.54c-1.87,0-3.38,1.52-3.38,3.38v108.32c0,1.87,1.52,3.38,3.38,3.38h155.71c1.87,0,3.38-1.52,3.38-3.38v-108.32c0-1.87-1.52-3.38-3.38-3.38h-13.54v-6.77h16.92c3.74,0,6.77,3.03,6.77,6.77v121.86H36.99v-121.86Zm115.53,128.63l-2.27,3.38h-50.5l-2.27-3.38h55.04Zm74.03,10.15c0,5.61-4.55,10.15-10.15,10.15H33.61c-5.61,0-10.15-4.55-10.15-10.15v-6.77c0-1.87,1.52-3.38,3.38-3.38h62.49l5.79,8.63c1.42,2.17-1.39,1.52,56.97,1.52,2.34,0,2.5-1.02,8.6-10.15h62.49c1.87,0,3.38,1.52,3.38,3.38v6.77Z" fill="#6b5fb9"/><path d="m77.61,26.84c-1.87,0-3.38,1.52-3.38,3.38s1.52,3.38,3.38,3.38,3.38-1.52,3.38-3.38-1.52-3.38-3.38-3.38Z" fill="#6b5fb9"/><path d="m91.15,26.84c-1.87,0-3.38,1.52-3.38,3.38s1.52,3.38,3.38,3.38,3.38-1.52,3.38-3.38-1.52-3.38-3.38-3.38Z" fill="#6b5fb9"/><path d="m104.69,26.84c-1.87,0-3.38,1.52-3.38,3.38s1.52,3.38,3.38,3.38,3.38-1.52,3.38-3.38-1.52-3.38-3.38-3.38Z" fill="#6b5fb9"/><path d="m100.59,115.83c3.63,3.21,7.86,5.65,12.46,7.18,9.96,3.35,20.86,2.37,30.06-2.71,33.54-18.65,20.01-69.76-18.11-69.76-20.56.04-37.2,16.74-37.17,37.3.02,10.73,4.67,20.94,12.76,27.99h0Zm15.47-34.22v-3.08c0-4.94,4.01-8.93,8.94-8.93,4.93,0,8.93,4,8.93,8.93v3.08c0,4.94-4,8.94-8.94,8.94s-8.94-4-8.94-8.94h0Zm26.13,31.28c-10.37,7.09-24.02,7.09-34.39,0-1.02-.71-.88-.17,0-3.38,3.18-9.4,13.38-14.45,22.79-11.27,5.31,1.79,9.47,5.96,11.27,11.27,1.22,3.22,1.35,2.67.34,3.38Zm-17.2-55.58c16.83.01,30.46,13.66,30.45,30.48,0,7.12-2.5,14.01-7.06,19.48-2.15-6.25-6.71-11.38-12.66-14.25,3.84-3.78,5.68-9.14,4.98-14.49,0-8.67-7.04-15.7-15.71-15.7-8.67,0-15.7,7.03-15.7,15.7,0,4.94,0,9.71,4.98,14.49-5.95,2.87-10.51,8-12.66,14.25-10.77-12.93-9.02-32.14,3.91-42.91,5.47-4.56,12.36-7.05,19.48-7.06h0Z" fill="#6b5fb9"/><path d="m162.23,131.77h-74.47c-1.87,0-3.38,1.52-3.38,3.38v13.54c0,1.87,1.52,3.38,3.38,3.38h74.47c1.87,0,3.38-1.52,3.38-3.38v-13.54c0-1.87-1.52-3.38-3.38-3.38Zm-3.38,13.54h-67.7v-6.77h67.7v6.77Z" fill="#6b5fb9"/><path d="m162.23,158.85h-74.47c-1.87,0-3.38,1.52-3.38,3.38v13.54c0,1.87,1.52,3.38,3.38,3.38h74.47c1.87,0,3.38-1.52,3.38-3.38v-13.54c0-1.87-1.52-3.38-3.38-3.38Zm-3.38,13.54h-67.7v-6.77h67.7v6.77Z" fill="#6b5fb9"/></g></svg>