<?xml version="1.0" encoding="UTF-8"?><svg id="Layer_1" xmlns="http://www.w3.org/2000/svg" viewBox="0 0 250 250"><path d="m142.84,75.43v3.12c-1.97.47-3.85,1.29-5.54,2.41-6.56,4.38-8.34,13.24-3.96,19.81,1.38,2.07,3.27,3.74,5.5,4.85l12.39,6.2c3.14,1.57,4.41,5.38,2.84,8.52-.49.99-1.24,1.83-2.16,2.45-3.09,2.07-7.12,2.07-10.21,0-1.77-1.18-2.83-3.16-2.83-5.28v-2.41c0-2.19-1.78-3.97-3.97-3.97s-3.97,1.78-3.97,3.97v2.41c0,4.78,2.38,9.24,6.36,11.88,1.69,1.12,3.56,1.94,5.53,2.41v3.12c0,2.19,1.78,3.97,3.97,3.97s3.97-1.78,3.97-3.97v-3.12c1.97-.47,3.85-1.29,5.54-2.41,6.56-4.38,8.34-13.24,3.96-19.81-1.38-2.07-3.27-3.74-5.5-4.85l-12.39-6.2c-3.14-1.57-4.41-5.38-2.84-8.52.49-.99,1.24-1.83,2.16-2.45,3.09-2.07,7.12-2.07,10.21,0,1.77,1.18,2.83,3.16,2.83,5.28v2.41c0,2.19,1.78,3.97,3.97,3.97s3.97-1.78,3.97-3.97v-2.41c0-4.78-2.38-9.24-6.36-11.88-1.69-1.12-3.56-1.94-5.53-2.41v-3.12c0-2.19-1.78-3.97-3.97-3.97s-3.97,1.78-3.97,3.97Z" fill="#6b5fb9"/><path d="m79.38,71.46h-23.8c-2.19,0-3.97,1.78-3.97,3.97s1.78,3.97,3.97,3.97h23.8c2.19,0,3.97-1.78,3.97-3.97s-1.78-3.97-3.97-3.97Z" fill="#6b5fb9"/><path d="m43.69,103.19h11.9c2.19,0,3.97-1.78,3.97-3.97s-1.78-3.97-3.97-3.97h-11.9c-2.19,0-3.97,1.78-3.97,3.97s1.78,3.97,3.97,3.97Z" fill="#6b5fb9"/><path d="m39.72,115.08c0,2.19,1.78,3.97,3.97,3.97h27.76c2.19,0,3.97-1.78,3.97-3.97s-1.78-3.97-3.97-3.97h-27.76c-2.19,0-3.97,1.78-3.97,3.97Z" fill="#6b5fb9"/><path d="m83.35,39.73h-31.73c-2.19,0-3.97,1.78-3.97,3.97v3.97h-27.76c-2.19,0-3.97,1.78-3.97,3.97v126.91c0,2.19,1.78,3.97,3.97,3.97h35.69v7.93c0,1.46.81,2.81,2.1,3.5l59.49,31.73c.57.31,29.63.47,29.63.47.35,0,39.66-10.67,39.66-10.67v6.71c0,2.19,1.78,3.97,3.97,3.97h31.73c2.19,0,3.97-1.78,3.97-3.97v-63.45c0-2.19-1.78-3.97-3.97-3.97h-11.9v-8.21c15.17-2.18,25.71-16.25,23.53-31.42-1.92-13.37-13.19-23.42-26.69-23.8-6.47-19.57-22.02-34.79-41.72-40.85,3.39-5.06,5.21-11.01,5.22-17.1v-1.56c0-2.19-1.78-3.97-3.97-3.97-.43,0-.85.07-1.25.2l-9.57,3.19-6.2-6.2c-1.55-1.55-4.06-1.55-5.61,0h0s-6.2,6.2-6.2,6.2l-9.58-3.19c-2.08-.69-4.32.43-5.02,2.51-.13.4-.2.83-.2,1.25v1.56c.01,6.08,1.83,12.03,5.21,17.08-3.15.97-6.22,2.18-9.18,3.62v-2.44c0-2.19-1.78-3.97-3.97-3.97h-27.76v-3.97c0-2.19-1.78-3.97-3.97-3.97Zm-27.76,7.93h23.8v6.94c0,.55-.44.99-.99.99h-21.81c-.55,0-.99-.44-.99-.99v-6.94Zm90.68,170.53h-26.24l-56.51-30.14v-5.55h28.14c1.6,6.96,7.78,11.89,14.92,11.9h48.1c2.19,0,3.97-1.78,3.97-3.97s-1.78-3.97-3.97-3.97h-48.1c-4.07,0-7.37-3.3-7.37-7.37,0-4.69,3.8-8.48,8.49-8.49h19.27c.78,0,1.55-.23,2.2-.67l8.08-5.39c8.33-5.52,19.09-5.78,27.67-.66l3.63,2.18c.62.37,1.32.56,2.04.56h15.86v40.6l-40.19,10.96Zm71.92,0h-23.8v-55.52h23.8v55.52Zm2.58-112.7c7.48,8,7.07,20.54-.93,28.03-8,7.48-20.54,7.07-28.03-.93-7.48-8-7.07-20.54.93-28.03,7.89-7.49,20.36-7.16,27.85.73.06.06.12.13.18.2h0Zm-21.73-13.24c-14.8,4.01-23.54,19.25-19.54,34.04,2.89,10.69,11.87,18.64,22.83,20.22v8.22h-11.9c-2.19,0-3.97,1.78-3.97,3.97h-14.76l-2.69-1.62c-11.21-6.69-25.27-6.35-36.15.86l-7.08,4.72h-18.07c-7.32,0-13.76,4.86-15.79,11.9h-1.74l-2.54-7.63,3.23-6.46c.28-.55.42-49.36.42-49.36.03-26.28,18.46-48.94,44.17-54.35.45-.01.9-.1,1.32-.26,26.7-4.89,53.03,10.23,62.26,35.76h0Zm-67.73-54.84l6.31,2.1c1.43.48,3,.1,4.06-.96l5.13-5.13,5.13,5.13c1.06,1.06,2.63,1.43,4.06.96l6.31-2.1c-.75,4.11-2.61,7.93-5.38,11.06-6.7-1.09-13.53-1.09-20.23-.01-2.77-3.12-4.63-6.94-5.38-11.05Zm-20.2,21.26c-12.73,8.67-21.87,21.67-25.75,36.57h-13.91c-2.19,0-3.97,1.78-3.97,3.97s1.78,3.97,3.97,3.97h12.39c-.33,2.63-.5,5.28-.5,7.93v29.29c-1.95.69-3.96,1.24-5.99,1.64,2.58-4.62.94-10.45-3.68-13.04-3.74-2.09-8.42-1.45-11.45,1.58l-13.41,13.41c-1.55,1.55-1.55,4.06,0,5.61,1.55,1.55,4.06,1.55,5.61,0l13.41-13.41c.44-.44,1.09-.6,1.68-.4.86.29,1.33,1.22,1.04,2.08-.08.24-.22.46-.4.64l-5.48,5.48c-1.55,1.55-1.55,4.06,0,5.61.74.74,1.75,1.16,2.81,1.16h1.56c4.84,0,9.65-.68,14.3-2.04v9.03l-.47.94h-35.22c-2.19,0-3.97,1.78-3.97,3.97s1.78,3.97,3.97,3.97h31.73c0,.43.07.85.2,1.25l2.23,6.68H23.86V55.6h23.85c.51,4.51,4.32,7.93,8.86,7.93h21.81c4.54,0,8.36-3.42,8.86-7.93h23.85v3.09Z" fill="#6b5fb9"/><path d="m194.71,129.89c1.5,1.6,4.01,1.68,5.61.19l17.37-16.26c1.61-1.48,1.72-3.99.24-5.6s-3.99-1.72-5.6-.24c-.02.02-.04.03-.06.05l-17.37,16.26c-1.6,1.5-1.68,4.01-.19,5.61Z" fill="#6b5fb9"/><path d="m200.87,113.26c1.6-1.5,1.68-4.01.19-5.61-1.5-1.6-4.01-1.68-5.61-.19-1.6,1.5-1.68,4.01-.19,5.61,1.5,1.6,4.01,1.68,5.61.19,0,0,0,0,0,0Z" fill="#6b5fb9"/><path d="m211.71,124.84c-1.6,1.5-1.68,4.01-.19,5.61,1.5,1.6,4.01,1.68,5.61.19,1.6-1.5,1.68-4.01.19-5.61,0,0,0,0,0,0-1.5-1.6-4.01-1.68-5.61-.19Z" fill="#6b5fb9"/></svg>