<?xml version="1.0" encoding="UTF-8"?><svg id="Layer_1" xmlns="http://www.w3.org/2000/svg" viewBox="0 0 250 250"><g id="surface1"><path d="m172.16,111.04v-39.37c0-1.13-.52-2.17-1.26-2.99l-44.14-46.35c-.82-.87-2-1.34-3.17-1.34H53.61c-12.92,0-23.24,10.54-23.24,23.46v132.34c0,12.92,10.32,23.29,23.24,23.29h55.24c10.45,17.34,29.44,28.96,51.08,28.96,32.87,0,59.71-26.71,59.71-59.62.04-28.75-20.6-52.77-47.48-58.36Zm-44.23-74.84l29.62,31.18h-19.21c-5.72,0-10.41-4.73-10.41-10.45v-20.73ZM53.61,191.39c-8.11,0-14.57-6.5-14.57-14.61V44.43c0-8.15,6.46-14.79,14.57-14.79h65.65v27.27c0,10.54,8.54,19.12,19.08,19.12h25.15v33.86c-1.3-.04-2.34-.17-3.47-.17-15.13,0-29.05,5.81-39.55,14.92h-55.07c-2.39,0-4.34,1.95-4.34,4.33s1.95,4.34,4.34,4.34h47c-3.08,4.34-5.64,8.67-7.63,13.44h-39.37c-2.39,0-4.34,1.95-4.34,4.34s1.95,4.34,4.34,4.34h36.55c-1.08,4.34-1.65,9.15-1.65,13.96,0,7.8,1.52,15.52,4.25,22.03h-50.95v-.04Zm106.37,29.01c-28.1,0-50.95-22.85-50.95-50.95s22.81-50.95,50.95-50.95,50.95,22.85,50.95,50.95-22.85,50.95-50.95,50.95Z" fill="#6b5fb9"/><path d="m65.4,111.6h43.92c2.39,0,4.34-1.95,4.34-4.34s-1.95-4.34-4.34-4.34h-43.92c-2.39,0-4.34,1.95-4.34,4.34s1.95,4.34,4.34,4.34Z" fill="#6b5fb9"/><path d="m163.05,137.44c-.82-.87-1.95-1.39-3.17-1.39s-2.34.52-3.17,1.39l-25.41,27.27c-1.65,1.73-1.52,4.51.22,6.11,1.73,1.65,4.55,1.52,6.2-.22l17.95-19.21v47.35c0,2.39,1.95,4.34,4.34,4.34s4.34-1.95,4.34-4.34v-47.35l17.82,19.21c.87.91,2,1.39,3.17,1.39,1.04,0,2.08-.39,2.95-1.17,1.73-1.65,1.87-4.38.22-6.11l-25.45-27.27Z" fill="#6b5fb9"/></g></svg>