<?xml version="1.0" encoding="UTF-8"?><svg id="Layer_1" xmlns="http://www.w3.org/2000/svg" viewBox="0 0 250 119.4"><g id="logo_ana"><path id="Path_1750" d="m190.87,30.72c-.05,7.27-5.99,13.11-13.25,13.06-7.27-.05-13.11-5.99-13.06-13.25.05-7.23,5.93-13.06,13.16-13.06,7.29.03,13.18,5.96,13.15,13.25Z" fill="#d84847" fill-rule="evenodd"/><path id="Path_1751" d="m100.01,55.68c11.33-2.79,48.38-5.16,74.73,1.73,4.27,1.12,14.65,4.16,15.53,11.12,0,0,1.44,5.14-11.21,11.24-10.21,4.93-20.81,9.03-31.68,12.24-8.13,2.43-23.01,6.47-27.93,7.39-4.17.78-12.93,2.64-17.49,2.52-3.22-.09-1.26-1.72.93-2.99,3.98-2.33,15.15-6.15,20.99-8.09,5.84-1.94,24.37-8.49,28.36-10,4.77-1.8,13.7-5.78,16.32-7.57,3.13-2.14,6.79-5.42,3.17-7.52-3.17-1.84-6.23-2.22-13.05-3.18-6.74-.94-22.67-1.57-27.1-1.61-4.39-.04-14.01-.43-16.67-.47-1.86-.03-15.35-.84-17.18-2.04-1.29-.84-1.22-1.92,2.28-2.78Z" fill="#d84847" fill-rule="evenodd"/><path id="Path_1752" d="m69.01,78.68l1.57-6.69,1.47,6.69h-3.04Zm5.55-12.46h-7.83l-6.84,19.48h7.43l.56-2.46h5.25l.69,2.46h7.43l-6.7-19.48Z" fill="#d84847" fill-rule="evenodd"/><path id="Path_1753" d="m118.32,78.68l1.57-6.69,1.47,6.69h-3.04Zm5.55-12.46h-7.83l-6.83,19.48h7.43l.56-2.46h5.25l.69,2.46h7.43l-6.7-19.48Z" fill="#d84847" fill-rule="evenodd"/><path id="Path_1754" d="m85.88,85.69v-19.48h6.69l5.97,10.03v-10.03h6.68v19.48h-6.68l-5.97-10.08v10.08h-6.68Z" fill="#d84847" fill-rule="evenodd"/><path id="Path_1755" d="m59.13,91.29h1.05c0,.18.04.29.11.34.06.04.13.06.2.06.08,0,.35.01.79.01.46,0,.74,0,.83,0,.08,0,.15-.01.22-.04.08-.03.12-.12.12-.27.01-.08-.02-.16-.09-.22-.11-.05-.23-.07-.35-.06-.14,0-.42-.01-.86-.03-.44-.02-.73-.03-.87-.04-.2,0-.41-.03-.61-.07-.13-.03-.24-.1-.33-.2-.16-.23-.23-.5-.2-.78-.03-.31.05-.61.23-.86.15-.14.34-.23.54-.25.49-.05.99-.07,1.48-.06.37,0,.74,0,1.11.04.25.01.49.11.68.28.14.2.21.45.18.7v.17h-1.05c0-.07,0-.14-.02-.21-.01-.04-.04-.07-.08-.09-.08-.04-.17-.06-.26-.06-.12,0-.37-.01-.76-.01-.28-.01-.57,0-.85.04-.1.03-.17.14-.15.24-.02.11.05.21.15.23.38.04.77.07,1.16.07.58.02.97.04,1.16.06.16.01.32.06.47.14.13.07.23.19.28.33.06.19.09.39.08.6.02.26-.03.52-.14.76-.06.12-.16.21-.28.27-.16.07-.34.11-.51.12-.23.02-.67.03-1.32.03-.54,0-.94-.01-1.2-.04-.2-.01-.4-.06-.59-.15-.13-.07-.22-.18-.28-.31-.06-.19-.09-.39-.08-.59v-.16Z" fill="#d84847" fill-rule="evenodd"/><path id="Path_1756" d="m66.39,88.87h3.97v.85h-2.9v.52h2.75v.79h-2.75v.58h2.91v.87h-3.99v-3.61Z" fill="#d84847" fill-rule="evenodd"/><path id="Path_1757" d="m75.4,90.44h2.5v.1c0,.51-.01.89-.04,1.15-.02.39-.31.71-.7.76-.21.04-.42.07-.63.07-.23.01-.6.02-1.09.02-.44,0-.87,0-1.31-.05-.22-.02-.42-.09-.61-.2-.1-.07-.18-.16-.23-.26-.06-.13-.1-.28-.12-.43-.03-.32-.04-.65-.03-.97,0-.33,0-.58.03-.75.01-.15.05-.3.1-.45.11-.28.36-.48.66-.51.56-.08,1.13-.11,1.7-.1.45,0,.81.01,1.07.03.22.02.44.06.65.12.26.07.46.29.5.56.03.19.05.39.04.59h-1.09c0-.07,0-.14-.02-.21-.01-.04-.03-.07-.07-.09-.12-.06-.25-.09-.38-.08-.18-.01-.45-.02-.8-.02-.38,0-.65,0-.81.03-.12,0-.23.04-.33.1-.07.06-.11.15-.12.24-.03.19-.04.38-.03.58,0,.21,0,.43.03.64,0,.1.05.19.12.26.07.05.15.08.23.09.1,0,.4.02.91.02.51,0,.81,0,.91-.01.09,0,.17-.02.26-.05.05-.02.1-.06.12-.12.03-.08.04-.15.03-.23v-.1h-1.44v-.72Z" fill="#d84847" fill-rule="evenodd"/><path id="Path_1758" d="m80.81,88.87h1.09v1.66c0,.24,0,.48.04.72.03.14.13.25.27.28.31.06.62.08.93.07.26,0,.53,0,.79-.03.12,0,.22-.05.31-.13.04-.05.07-.11.09-.17.02-.11.04-.22.04-.34,0-.16.01-.3.01-.4v-1.66h1.09v1.66c-.01.58-.03.95-.06,1.13-.03.28-.19.53-.43.67-.18.09-.38.15-.59.16-.25.03-.67.04-1.24.04-.43,0-.77,0-1-.02-.21-.01-.41-.04-.61-.08-.35-.06-.63-.35-.67-.7-.02-.13-.04-.26-.05-.39,0-.12-.01-.39-.01-.81v-1.66Z" fill="#d84847" fill-rule="evenodd"/><path id="Path_1759" d="m89.54,90.66h1.54c.27,0,.43,0,.48-.01.05,0,.09-.02.13-.04.05-.03.08-.08.1-.13.02-.09.03-.18.03-.27,0-.09,0-.18-.03-.26-.02-.06-.06-.1-.12-.13-.04-.02-.09-.03-.14-.03-.05,0-.21,0-.46,0h-1.53v.89Zm-1.09,1.82v-3.61h2.64c.62,0,.99,0,1.11.02.13.01.25.06.35.12.13.08.23.2.28.34.06.22.09.46.08.69,0,.19-.01.39-.05.58-.03.12-.09.22-.18.3-.13.09-.28.15-.44.16.18,0,.36.07.49.2.06.07.1.16.11.25.02.2.03.41.02.61v.34h-1.08v-.2c0-.14,0-.29-.02-.43,0-.07-.04-.14-.08-.2-.05-.04-.1-.07-.17-.08-.15-.02-.3-.02-.45-.02h-1.53v.92h-1.09Z" fill="#d84847" fill-rule="evenodd"/><path id="Path_1760" d="m98.19,89.76c-.35-.01-.7,0-1.05.04-.12.02-.23.11-.27.23-.05.24-.08.49-.06.73,0,.16,0,.32.03.48.04.18.21.31.4.31.32.03.63.04.95.03.44,0,.73,0,.88-.02.12,0,.23-.04.32-.11.07-.06.11-.13.13-.22.03-.15.04-.31.03-.47,0-.19,0-.38-.03-.57,0-.1-.04-.19-.09-.28-.07-.08-.18-.14-.29-.14-.13-.02-.45-.03-.96-.03Zm0-.94c.53-.01,1.07,0,1.6.06.36,0,.67.25.77.6.13.8.13,1.61,0,2.4-.1.35-.41.59-.77.6-.53.05-1.06.07-1.59.06-.54.01-1.07,0-1.61-.06-.36,0-.67-.25-.77-.6-.08-.4-.11-.81-.1-1.22-.01-.4.02-.79.1-1.18.1-.35.41-.59.77-.6.53-.05,1.06-.07,1.59-.06h0Z" fill="#d84847" fill-rule="evenodd"/><path id="Path_1761" d="m103.45,91.29h1.05c0,.18.04.29.11.34.06.04.13.06.2.06.08,0,.35.01.79.01.46,0,.74,0,.83,0,.08,0,.15-.01.22-.04.08-.03.12-.12.12-.27.01-.08-.02-.16-.09-.22-.11-.05-.23-.07-.35-.06-.14,0-.42-.01-.86-.03-.44-.02-.73-.03-.87-.04-.2,0-.41-.03-.61-.07-.13-.03-.24-.1-.33-.2-.16-.23-.23-.5-.2-.78-.03-.31.05-.61.23-.86.15-.14.34-.23.54-.25.49-.05.99-.07,1.48-.06.37,0,.74,0,1.11.04.25.01.49.11.68.28.14.2.21.45.18.7v.17h-1.05c0-.07,0-.14-.02-.21-.01-.04-.04-.07-.08-.09-.08-.04-.16-.05-.25-.05-.12,0-.37-.01-.76-.01-.28-.01-.57,0-.85.04-.1.03-.17.13-.15.24-.02.11.05.21.15.23.38.04.77.07,1.16.07.58.02.97.04,1.16.06.16.01.32.06.47.14.13.07.23.19.28.33.06.19.09.39.08.6.02.26-.03.52-.14.76-.06.12-.16.21-.29.27-.16.07-.34.11-.51.12-.23.02-.67.03-1.32.03-.54,0-.94-.01-1.2-.04-.2-.01-.4-.06-.59-.15-.13-.07-.22-.18-.28-.31-.06-.19-.09-.38-.08-.58v-.17Z" fill="#d84847" fill-rule="evenodd"/></g></svg>