<?xml version="1.0" encoding="UTF-8"?><svg id="Layer_1" xmlns="http://www.w3.org/2000/svg" viewBox="0 0 250 119.4"><g id="logo-hdi"><path id="Path_2057" d="m74.39,68.4h13.22V27.24h-13.22v41.16Z" fill="#426f42" fill-rule="evenodd"/><path id="Path_2058" d="m100.9,68.31h13.3V27.15h-13.3v41.16Z" fill="#426f42" fill-rule="evenodd"/><path id="Path_2059" d="m87.6,54.95h13.3v-13.72h-13.3v13.72Z" fill="#c7463c" fill-rule="evenodd"/><path id="Path_2060" d="m120.2,27.1v41.13h17.25c6.06-.08,18.69-3.79,20.74-17.98,1.32-7.39-.98-22.36-20.74-23.15h-17.25Zm13.05,11.33v18.41h5.46c1.92-.04,5.92-1.7,6.57-8.05.42-3.31-.31-10.01-6.57-10.36h-5.46Z" fill="#426f42" fill-rule="evenodd"/><path id="Path_2061" d="m162.5,68.4h13.3V27.33h-13.3v41.07Z" fill="#426f42" fill-rule="evenodd"/><path id="Path_2062" d="m84.72,88.15c.06,1.2-.48,2.35-1.44,3.07-1.26.79-2.74,1.16-4.23,1.06-1.39.08-2.78-.25-3.99-.93-.98-.64-1.66-1.66-1.86-2.82l2.68-.46c.13.65.51,1.22,1.06,1.58.67.36,1.43.52,2.19.48,1.93,0,2.9-.61,2.9-1.82.01-.35-.11-.7-.34-.96-.26-.28-.58-.5-.94-.63-.76-.26-1.53-.47-2.32-.61-.99-.24-1.68-.43-2.07-.57-.37-.14-.72-.31-1.05-.51-.63-.39-1.09-.99-1.31-1.69-.12-.42-.19-.85-.18-1.29-.06-1.11.45-2.17,1.34-2.83,1.17-.73,2.55-1.08,3.93-.99,1.28-.08,2.56.19,3.69.79.88.61,1.46,1.56,1.6,2.63l-2.69.38c-.1-.53-.4-1-.84-1.32-.54-.33-1.18-.49-1.81-.45-1.68,0-2.52.54-2.52,1.63-.01.31.08.62.26.87.22.25.49.45.8.58.69.25,1.41.45,2.13.59.93.18,1.84.44,2.72.77.48.19.93.47,1.31.82.32.32.57.7.73,1.12.18.48.26.99.25,1.5Z" fill="#888b8e"/><path id="Path_2063" d="m88.21,92.08v-13.65h10.41v2.21h-7.64v3.43h7.06v2.21h-7.06v3.59h8.02v2.21h-10.79Z" fill="#888b8e"/><path id="Path_2064" d="m108.77,90.04c.71,0,1.42-.11,2.1-.32.57-.17,1.11-.45,1.56-.83v-1.89h-3.23v-2.11h5.77v5.02c-.77.79-1.71,1.38-2.74,1.74-1.13.42-2.33.63-3.53.63-1.84.12-3.65-.55-4.97-1.84-1.24-1.46-1.86-3.33-1.74-5.24-.13-1.89.5-3.74,1.75-5.16,1.35-1.27,3.17-1.93,5.03-1.8,3.11,0,5.08,1.19,5.93,3.56l-2.55.8c-.25-.65-.7-1.2-1.3-1.56-.63-.37-1.35-.55-2.08-.53-1.13-.08-2.22.38-2.97,1.22-.74,1.01-1.1,2.25-1.01,3.5-.08,1.28.29,2.55,1.04,3.58.74.85,1.83,1.31,2.95,1.25Z" fill="#888b8e"/><path id="Path_2065" d="m124.4,92.27c-1.52.1-3.02-.39-4.19-1.37-1.01-1.05-1.54-2.48-1.44-3.93v-8.54h2.77v8.31c-.06.88.2,1.76.74,2.46.58.59,1.38.89,2.2.83.85.05,1.69-.26,2.29-.87.57-.71.86-1.61.8-2.52v-8.22h2.77v8.39c.09,1.51-.48,2.98-1.56,4.03-1.22,1.01-2.78,1.52-4.36,1.43Z" fill="#888b8e"/><path id="Path_2066" d="m140.27,86.9l3.07,5.18h3.12l-3.58-5.74c.85-.19,1.6-.67,2.13-1.37.53-.72.81-1.59.79-2.48.07-1.15-.41-2.26-1.29-3.01-1.06-.77-2.35-1.14-3.65-1.06h-6.62v13.64h2.77v-5.18h3.26Zm.3-6.25c1.63,0,2.44.66,2.44,1.97.03.57-.19,1.13-.6,1.52-.5.39-1.13.59-1.77.54h-3.63v-4.02h3.56Z" fill="#888b8e" fill-rule="evenodd"/><path id="Path_2067" d="m161.64,88.94c.57-1.17.85-2.45.82-3.75.11-1.87-.53-3.7-1.78-5.11-1.3-1.29-3.09-1.96-4.91-1.86-1.82-.11-3.61.56-4.91,1.84-1.24,1.41-1.88,3.25-1.77,5.13-.11,1.89.53,3.76,1.76,5.19,1.29,1.3,3.07,1.99,4.89,1.89,1.24.03,2.46-.27,3.55-.85,1.01-.57,1.83-1.44,2.34-2.48Zm-3.03-7.21c.73,1,1.09,2.22,1.01,3.46.08,1.27-.28,2.53-1.01,3.57-1.42,1.57-3.84,1.69-5.41.27-.1-.09-.2-.19-.3-.3-.74-1.03-1.1-2.28-1.03-3.55-.08-1.24.28-2.47,1.02-3.47.71-.85,1.77-1.31,2.87-1.25,1.09-.06,2.15.41,2.85,1.26h0Z" fill="#888b8e" fill-rule="evenodd"/><path id="Path_2068" d="m176.8,88.15c.06,1.2-.48,2.35-1.44,3.07-1.26.79-2.74,1.16-4.23,1.06-1.39.08-2.78-.25-3.99-.93-.98-.64-1.65-1.66-1.86-2.82l2.68-.46c.13.65.51,1.22,1.06,1.58.67.36,1.43.52,2.19.48,1.93,0,2.9-.61,2.9-1.82.01-.35-.11-.7-.34-.96-.26-.28-.58-.5-.94-.63-.76-.26-1.53-.47-2.32-.61-.99-.24-1.68-.43-2.07-.57-.37-.14-.72-.31-1.05-.51-.63-.39-1.09-.99-1.31-1.69-.12-.42-.19-.85-.18-1.29-.06-1.11.45-2.17,1.34-2.82,1.17-.73,2.55-1.08,3.93-.99,1.28-.08,2.56.19,3.69.79.88.61,1.46,1.56,1.6,2.63l-2.69.38c-.1-.53-.4-1-.84-1.32-.54-.33-1.18-.49-1.81-.45-1.68,0-2.52.54-2.52,1.63-.01.31.08.62.26.87.22.25.49.45.8.58.69.25,1.41.45,2.13.59.93.18,1.84.44,2.72.77.48.19.93.47,1.31.82.32.32.57.7.73,1.12.17.48.26.99.25,1.5Z" fill="#888b8e"/></g></svg>