<?xml version="1.0" encoding="UTF-8"?><svg id="Layer_1" xmlns="http://www.w3.org/2000/svg" viewBox="0 0 250 119.4"><g id="logo-genral-seguros"><path id="Path_1762" d="m111.51,85.66l-.36-1.22h-1.83l-.35,1.22h-.68l1.54-4.87h.83l1.54,4.87h-.7Zm-2.03-1.77h1.5l-.75-2.54-.75,2.54Z" fill="#1b4993"/><path id="Path_1763" d="m122.01,85.66v-2.28h-2.03v2.28h-.66v-4.87h.66v2.03h2.03v-2.03h.66v4.87h-.66Z" fill="#1b4993"/><path id="Path_1764" d="m133.23,81c.32.21.57.51.72.86.35.87.35,1.84,0,2.72-.15.35-.4.65-.72.86-.32.2-.69.3-1.07.29-.38,0-.74-.09-1.07-.29-.32-.21-.57-.51-.72-.86-.35-.87-.35-1.84,0-2.72.15-.36.4-.66.72-.87.32-.21.69-.31,1.07-.31.38.02.74.13,1.07.32Zm-2.04.74c-.27.45-.39.97-.35,1.5-.04.52.08,1.04.36,1.48.22.32.59.5.98.48.89,0,1.32-.65,1.32-1.96s-.45-1.98-1.32-1.98c-.39-.02-.76.16-.99.48h0Z" fill="#1b4993"/><path id="Path_1765" d="m143.06,83.6h-.75v2.06h-.66v-4.87h1.27c.48-.03.96.09,1.37.35.32.25.49.63.46,1.03.01.3-.08.59-.26.83-.2.24-.47.41-.78.48l1.29,2.18h-.79l-1.15-2.07Zm-.09-.52c.28.02.56-.06.79-.22.19-.18.28-.44.26-.7.03-.25-.08-.5-.27-.65-.26-.16-.56-.23-.86-.2h-.59v1.78h.67Z" fill="#1b4993"/><path id="Path_1766" d="m154.8,85.66l-.37-1.22h-1.82l-.36,1.22h-.68l1.54-4.87h.83l1.54,4.87h-.69Zm-2.03-1.77h1.5l-.75-2.54-.75,2.54Z" fill="#1b4993"/><path id="Path_1767" d="m173.44,80.79l-.07.54h-1.87v1.58h1.63v.54h-1.63v1.67h2v.54h-2.66v-4.87h2.6Z" fill="#1b4993"/><path id="Path_1768" d="m182.89,80.85c.24.1.47.24.66.42l-.36.41c-.16-.13-.34-.24-.53-.32-.18-.07-.37-.11-.56-.1-.22,0-.44.05-.62.17-.16.12-.25.31-.24.51,0,.13.03.25.09.36.07.12.19.21.32.26.21.1.43.19.66.26.26.07.51.17.75.31.2.11.37.26.49.45.13.22.2.47.19.73,0,.26-.07.52-.2.74-.14.22-.34.4-.59.51-.29.13-.6.19-.92.19-.61.02-1.2-.2-1.64-.63l.36-.41c.18.15.38.27.59.36.21.09.45.13.68.12.27,0,.53-.07.75-.22.2-.15.31-.39.29-.64.02-.29-.14-.56-.4-.68-.2-.11-.41-.2-.63-.26-.39-.1-.76-.28-1.08-.54-.24-.22-.36-.53-.35-.86,0-.23.06-.46.19-.65.13-.2.32-.35.53-.45.25-.11.52-.16.79-.16.28-.03.56,0,.81.12Z" fill="#1b4993"/><path id="Path_1769" d="m202.1,80.79l-.07.57h-1.34v4.29h-.66v-4.29h-1.37v-.57h3.44Z" fill="#1b4993"/><path id="Path_1770" d="m211.79,81c.32.21.57.51.72.86.35.87.35,1.84,0,2.72-.14.35-.4.65-.72.86-.32.2-.69.3-1.07.29-.38,0-.74-.1-1.06-.29-.32-.21-.57-.51-.72-.86-.34-.87-.34-1.84,0-2.72.15-.36.4-.66.72-.87.32-.21.69-.31,1.06-.31.38.02.74.13,1.07.32Zm-2.06.74c-.27.45-.39.97-.35,1.5-.04.52.08,1.04.36,1.48.22.32.59.5.98.48.89,0,1.33-.65,1.33-1.96s-.45-1.98-1.33-1.98c-.39-.01-.76.17-.99.48Z" fill="#1b4993"/><path id="Path_1771" d="m222.96,81.3c.5.49.75,1.19.66,1.89.08.7-.17,1.4-.66,1.9-.45.37-1.03.56-1.61.55h-1.15v-4.87h1.01c.63-.02,1.24.16,1.76.52Zm-2.11.03v3.79h.53c.41.01.8-.14,1.09-.42.32-.43.47-.97.42-1.51.02-.4-.05-.81-.22-1.18-.11-.24-.3-.44-.55-.55-.25-.09-.52-.14-.79-.13h-.49Z" fill="#1b4993"/><path id="Path_1772" d="m233.86,81c.32.21.57.51.72.86.34.87.34,1.84,0,2.72-.15.35-.4.65-.72.86-.32.2-.69.3-1.07.29-.38,0-.74-.1-1.06-.29-.32-.21-.57-.51-.72-.86-.34-.87-.34-1.84,0-2.72.15-.36.4-.66.72-.87.32-.21.69-.31,1.06-.31.38.02.74.13,1.07.32Zm-2.04.74c-.27.45-.39.97-.35,1.5-.04.52.08,1.04.36,1.48.22.32.59.5.98.48.89,0,1.33-.65,1.33-1.96s-.45-1.98-1.33-1.98c-.39-.02-.76.16-.99.48Z" fill="#1b4993"/><path id="Path_1773" d="m108.21,50.69c.08-4.16,3.52-7.46,7.68-7.37,3.12.06,5.88,2.05,6.93,4.98h-3.83c-.71-1.13-1.98-1.79-3.31-1.73-2.13-.06-3.9,1.61-3.97,3.74,0,.13,0,.26,0,.39-.15,2.13,1.46,3.97,3.59,4.12.12,0,.25.01.37,0,1.54.13,3-.71,3.66-2.11h-4.51v-2.81h8.32v1.54c-.45,4.11-4.15,7.08-8.26,6.64-3.78-.41-6.65-3.59-6.68-7.39Z" fill="#1b4993"/><path id="Path_1774" d="m124.96,43.6h10.38v3.26h-6.89v2.33h5.66v2.82h-5.66v2.54h6.89v3.26h-10.38v-14.2Z" fill="#1b4993"/><path id="Path_1775" d="m137.23,49.28c0-3.66,2.14-5.96,6.02-5.96s6.02,2.3,6.02,5.96v8.5h-3.48v-8.5c0-1.73-.82-2.72-2.53-2.72s-2.53.97-2.53,2.72v8.5h-3.48v-8.5Z" fill="#1b4993"/><path id="Path_1776" d="m151.61,43.6h10.38v3.26h-6.89v2.33h5.66v2.82h-5.66v2.54h6.89v3.26h-10.38v-14.2Z" fill="#1b4993"/><path id="Path_1777" d="m164.19,43.6h5.7c3.71,0,5.37,2.03,5.37,4.85.15,1.88-.92,3.64-2.65,4.38l3.15,4.94h-4.13l-2.48-4.43h-1.48v4.45h-3.48v-14.19Zm5.74,6.5c1.4,0,1.8-.7,1.8-1.63s-.4-1.6-1.8-1.6h-2.26v3.23h2.26Z" fill="#1b4993"/><path id="Path_1778" d="m177.03,49.55c0-3.86,2.17-6.22,6.16-6.22s6.21,2.37,6.21,6.22v8.24h-3.48v-4.04h-5.5v4.04h-3.4v-8.24h.02Zm8.88,1.18v-1.18c0-1.95-.83-2.97-2.75-2.97s-2.75,1.02-2.75,2.97v1.18h5.5Z" fill="#1b4993"/><path id="Path_1779" d="m191.74,43.6h3.48v10.93h6.64v3.26h-10.12v-14.19Z" fill="#1b4993"/><path id="Path_1780" d="m108.92,62.41h4.97c4.94,0,7.51,2.85,7.51,7.09s-2.58,7.09-7.51,7.09h-4.97v-14.18Zm4.97,10.93c2.82,0,4-1.47,4-3.84s-1.18-3.84-4-3.84h-1.48v7.67h1.48Z" fill="#1b4993"/><path id="Path_1781" d="m123.35,62.41h10.38v3.26h-6.89v2.33h5.66v2.82h-5.66v2.54h6.89v3.24h-10.38v-14.18Z" fill="#1b4993"/><path id="Path_1782" d="m140.7,72.41h3.4c0,.89.53,1.45,1.89,1.45s1.88-.57,1.88-1.45c0-.93-1.08-1.15-2.36-1.4-2-.36-4.55-.84-4.55-4.3,0-2.69,2.01-4.59,5.05-4.59,2.56-.22,4.81,1.67,5.04,4.22,0,.09.01.18.02.27h-3.27c-.01-.83-.53-1.47-1.74-1.47s-1.74.71-1.74,1.45c0,.93,1.08,1.15,2.39,1.4,2.01.36,4.58.84,4.58,4.3,0,2.82-2.1,4.59-5.28,4.59-3.15-.01-5.24-1.73-5.3-4.48Z" fill="#1b4993"/><path id="Path_1783" d="m153.18,62.41h10.38v3.26h-6.89v2.33h5.66v2.82h-5.66v2.54h6.89v3.24h-10.38v-14.18Z" fill="#1b4993"/><path id="Path_1784" d="m165.05,69.5c.09-4.16,3.53-7.45,7.68-7.37,3.12.07,5.87,2.05,6.93,4.98h-3.83c-.71-1.13-1.98-1.79-3.31-1.73-2.13-.06-3.9,1.61-3.97,3.74,0,.13,0,.26,0,.39-.15,2.13,1.46,3.97,3.59,4.12.12,0,.25.01.37,0,1.54.13,3-.71,3.66-2.11h-4.51v-2.83h8.32v1.54c-.45,4.11-4.15,7.08-8.26,6.64-3.78-.41-6.65-3.59-6.68-7.39h0Z" fill="#1b4993"/><path id="Path_1785" d="m181.49,70.9v-8.5h3.48v8.5c0,1.73.79,2.72,2.52,2.72s2.56-.96,2.56-2.72v-8.5h3.4v8.5c0,3.65-2.13,5.96-5.93,5.96-3.88,0-6.03-2.29-6.03-5.96Z" fill="#1b4993"/><path id="Path_1786" d="m195.76,62.41h5.7c3.71,0,5.37,2.03,5.37,4.85.15,1.88-.92,3.64-2.65,4.38l3.15,4.94h-4.13l-2.49-4.45h-1.47v4.46h-3.48v-14.18Zm5.74,6.48c1.4,0,1.8-.7,1.8-1.63s-.4-1.6-1.8-1.6h-2.26v3.23h2.26Z" fill="#1b4993"/><path id="Path_1787" d="m208.13,69.5c.07-4.13,3.48-7.41,7.6-7.34,4.02.07,7.27,3.32,7.34,7.34-.07,4.13-3.48,7.41-7.6,7.34-4.02-.07-7.27-3.32-7.34-7.34Zm11.43,0c.08-2.19-1.62-4.03-3.81-4.11-2.19-.08-4.03,1.62-4.11,3.81,0,.1,0,.2,0,.3-.08,2.19,1.62,4.03,3.81,4.11,2.19.08,4.03-1.62,4.11-3.81,0-.1,0-.2,0-.3Z" fill="#1b4993"/><path id="Path_1788" d="m224.28,72.41h3.4c0,.89.53,1.45,1.89,1.45s1.89-.57,1.89-1.45c0-.93-1.08-1.15-2.36-1.4-2-.36-4.55-.84-4.55-4.3,0-2.69,2.01-4.59,5.05-4.59,2.56-.23,4.81,1.66,5.04,4.22,0,.09.01.18.02.27h-3.27c-.01-.83-.53-1.47-1.74-1.47s-1.74.71-1.74,1.45c0,.93,1.08,1.15,2.39,1.4,2.01.36,4.58.84,4.58,4.3,0,2.82-2.1,4.59-5.28,4.59-3.14-.01-5.22-1.73-5.29-4.48Z" fill="#1b4993"/><path id="Path_1789" d="m37.54,54.56c3.08-.14,6.07,1,8.28,3.15.07-1.53.25-3.05.55-4.55-2.48-1.33-5.27-2-8.09-1.93-3.81-.02-7.55.98-10.84,2.89l3.12-20.83h24.97l1.2-3.5h-29.84l-4.03,27.83h3.4c3.95-2.01,6.8-3.07,11.29-3.07Z" fill="#1b4993"/><path id="Path_1790" d="m48.29,71.1c-1.52,6.74-6.49,14.18-17,14.18-6.06,0-9.92-1.93-13.21-5.78l-2.94,2.38c3.77,4.29,8.64,7.01,16.06,7.01,10.81,0,17.01-6.08,19.9-12.76-1.1-1.58-2.04-3.27-2.82-5.03Z" fill="#1b4993"/><path id="Path_1791" d="m22.92,72.01l-.1-1.13h-1.51l-.42,1.13h-1.25l2.27-5.25h1.47l.81,5.25h-1.27Zm-1.29-2.02h1.09l-.23-2.38-.86,2.38Z" fill="#1b4993"/><path id="Path_1792" d="m30.24,72.01h-1.52l-.96-4.21c.01.28.01.48.01.63,0,.58-.05,1.16-.13,1.73l-.26,1.86h-1.07l.72-5.25h1.51l.98,4.21c-.01-.28-.03-.54-.03-.78,0-.46.03-.91.1-1.37l.29-2.06h1.07l-.71,5.25Zm-.92-5.8c-.1-.05-.19-.1-.27-.16-.07-.04-.12-.07-.16-.1-.04-.02-.08-.03-.13-.03-.09,0-.17.03-.23.09-.09.08-.17.17-.23.26l-.53-.32c.11-.24.28-.46.48-.64.15-.15.36-.24.58-.25.1,0,.2.02.29.06.07.04.16.09.26.16.06.04.1.07.14.1.04.02.09.03.13.03.08,0,.15-.03.22-.07.09-.08.17-.17.23-.26l.55.31c-.12.24-.28.45-.48.64-.15.15-.35.23-.56.23-.09,0-.18-.01-.27-.05Z" fill="#1b4993"/><path id="Path_1793" d="m37.19,67.2c.37.44.55,1.01.52,1.58,0,.53-.09,1.05-.26,1.55-.17.5-.47.94-.86,1.28-.44.36-1,.54-1.57.51-.55.03-1.08-.17-1.47-.57-.37-.44-.55-1.01-.52-1.58,0-.53.09-1.05.26-1.55.17-.5.48-.94.88-1.28.44-.36,1-.55,1.57-.52.54,0,1.07.2,1.45.58Zm-2.39.78c-.21.3-.36.64-.43,1-.08.36-.12.73-.12,1.11-.02.3.05.61.2.87.15.18.38.29.62.28.33,0,.64-.15.83-.42.21-.3.36-.64.43-1,.08-.37.12-.74.12-1.12.02-.3-.05-.61-.2-.87-.15-.18-.38-.28-.62-.26-.33-.02-.65.14-.83.42h0Z" fill="#1b4993"/><path id="Path_1794" d="m43.81,67.33l-.65.65c-.28-.28-.66-.44-1.05-.44-.2,0-.41.05-.58.16-.14.09-.22.25-.22.42,0,.14.06.28.17.36.21.13.45.24.69.31.37.1.71.3.99.57.23.25.34.58.33.92,0,.66-.36,1.27-.95,1.57-.39.19-.83.28-1.27.26-.37,0-.75-.06-1.09-.2-.3-.13-.57-.32-.79-.55l.69-.7c.32.34.76.52,1.22.51.24.02.48-.05.68-.19.16-.13.25-.32.24-.52,0-.16-.06-.31-.17-.42-.19-.14-.4-.25-.63-.32-.4-.11-.76-.31-1.05-.6-.22-.24-.33-.55-.32-.87,0-.28.08-.55.23-.78.16-.26.4-.47.68-.61.35-.17.73-.25,1.11-.23.65,0,1.27.26,1.73.72Z" fill="#1b4993"/><path id="Path_1795" d="m74.56,89.6c.66-.01.92-.04.92-.04h-.12c-.49.04-.76.04-.94.04h.13Z" fill="#a6c353"/><path id="Path_1796" d="m76.46,89.49c.35-.04.62-.09.72-.1h-.04l-1.77.19h.06c.36-.01.72-.04,1.04-.09Z" fill="#a6c353"/><path id="Path_1797" d="m78.33,89.27c.26-.04.51-.1.76-.17-.04,0-1.8.32-1.81.32h.06c.17-.03.51-.06.99-.15Z" fill="#a6c353"/><path id="Path_1798" d="m81.28,88.67c.07-.03.09-.03.1-.04-.17.03-.33.07-.49.12-.53.13-.73.19-1.24.31.81-.16,1.58-.36,1.63-.38Z" fill="#a6c353"/><path id="Path_1799" d="m74.3,89.59s.03,0,.04-.01h-.06s-.04.01-.06.01h.03s.03.01.04,0c0,0,0,0,0,0Z" fill="#a6c353"/><path id="Path_1800" d="m74.96,89.53c.16-.03.19-.06.2-.07-.06-.03-.17,0-.42.07-.15.05-.31.07-.48.07h.03c.22,0,.44-.03.66-.07Z" fill="#a6c353"/><path id="Path_1801" d="m76.13,89.37c.18-.04.35-.11.5-.2-.01-.01-.04-.03-.3.03-.17.04-1.12.32-1.14.33.04,0,.09,0,.13-.01.27-.03.54-.08.81-.15Z" fill="#a6c353"/><path id="Path_1802" d="m77.97,89.03c.22-.07.62-.22.63-.29-.61.13-1.21.31-1.79.55h.01c.05.01.11.01.16,0,.45-.1.81-.2.98-.26Z" fill="#a6c353"/><path id="Path_1803" d="m80.1,88.58c.14-.06.63-.25.65-.33-.65.13-1.29.34-1.89.63h.01s-.07.03-.1.06c.04,0,.2-.03.22-.03.38-.09.75-.19,1.11-.32Z" fill="#a6c353"/><path id="Path_1804" d="m82.46,87.99c.25-.1.49-.23.7-.39h0c-.7.18-1.38.46-2.01.81.06,0,.13-.01.19-.03.38-.11.76-.24,1.13-.39Z" fill="#a6c353"/><path id="Path_1805" d="m85.05,87.2c.23-.09.44-.22.62-.38-.68.22-1.34.52-1.96.89h.01s.04,0,.12-.02h-.01s.01.01.06,0c0-.03.57-.22,1.16-.49Z" fill="#a6c353"/><path id="Path_1806" d="m87.55,86.23c.16-.08.3-.17.43-.29-.61.25-1.2.56-1.76.9.03,0,.07-.01.09-.01.43-.16.84-.36,1.24-.6Z" fill="#a6c353"/><path id="Path_1807" d="m73.93,89.59c-.12,0-.24-.03-.35-.06-.1-.03-.2-.04-.3-.04.24.08.49.12.75.1h-.1,0Z" fill="#a6c353"/><path id="Path_1808" d="m73.94,89.44c-.2-.23-.52-.25-.53-.15-.03.16.58.32.63.28-.01-.01-.1-.13-.1-.13Z" fill="#a6c353"/><path id="Path_1809" d="m74.72,89.18c.12-.23-.13-.39-.43-.28-.36.13-.26.44-.07.54.06.03.14.03.2,0,.13-.05.24-.14.3-.26Z" fill="#a6c353"/><path id="Path_1810" d="m76.11,88.82c.12-.1.39-.48.04-.48-.59-.01-1.11.6-.89.8.06.06.17.03.26.01.21-.08.41-.19.59-.33Z" fill="#a6c353"/><path id="Path_1811" d="m78.13,88.22c.32-.25.37-.47.13-.51-.6-.1-1.54.84-1.4.99.12.02.24.02.35-.01.33-.1.64-.25.92-.46Z" fill="#a6c353"/><path id="Path_1812" d="m80.69,87.44c.17-.13.46-.44.23-.49-.67.06-1.29.38-1.73.9h.01s0,.01-.13.15c.01.04,0,.09.01.12.01.02.03.03.06.03l.33-.06c.43-.16.84-.37,1.21-.64Z" fill="#a6c353"/><path id="Path_1813" d="m83.14,86.77c.52-.36.78-.71.55-.74-.45-.06-2.01.97-2.03,1.32.07.06.27.01.39-.01.39-.14.76-.33,1.09-.57Z" fill="#a6c353"/><path id="Path_1814" d="m86.06,85.75c.32-.23.72-.61.49-.65-.83.22-1.57.7-2.12,1.37,0,.01.01.01.01.03.12,0,.24-.01.35-.04.45-.18.87-.42,1.26-.7Z" fill="#a6c353"/><path id="Path_1815" d="m88.85,84.69c.33-.25.72-.63.56-.67-.78.27-1.48.76-2,1.4.09,0,.19,0,.27-.04.41-.19.8-.42,1.17-.69Z" fill="#a6c353"/><path id="Path_1816" d="m91.31,83.56c.24-.18.46-.41.63-.65,0-.01-.01-.01-.01-.03-.3-.04-1.83,1.29-1.81,1.4.03.01.07.01.19-.04.36-.19.69-.42,1.01-.68Z" fill="#a6c353"/><path id="Path_1817" d="m93.66,82.04c.35-.32.4-.41.4-.44-.55.39-1.06.84-1.51,1.34.03-.01.04-.03.07-.03.36-.27.71-.56,1.04-.87Z" fill="#a6c353"/><path id="Path_1818" d="m72.44,89.48c-.33-.04-.65-.1-.98-.15h0c.81.19,1.63.27,2.46.25h.01c-.5,0-1-.03-1.49-.1Z" fill="#a6c353"/><path id="Path_1819" d="m72.14,89.31c-1.11-.33-1.15-.33-1.2-.28.65.3,1.36.47,2.07.51,0,0-.02-.01-.03-.01-.29-.06-.57-.13-.85-.22Z" fill="#a6c353"/><path id="Path_1820" d="m72.14,88.92c-.89-.54-1.15-.38-1.11-.26.12.32,1.58.77,1.63.67-.15-.16-.33-.3-.52-.41Z" fill="#a6c353"/><path id="Path_1821" d="m73.03,88.51c-.36-.6-1.12-.77-1.25-.49-.04.09-.07.31.35.64.17.12.34.22.53.29.04.01.1.03.14.04h.2s.01-.02.01-.03h0c.06-.04.07-.1.12-.16,0-.11-.05-.21-.11-.29Z" fill="#a6c353"/><path id="Path_1822" d="m74.56,87.84c.03-.67-.89-.87-1.31-.44s.19,1.12.62,1.11c.09,0,.18-.02.27-.04.25-.11.41-.35.42-.63Z" fill="#a6c353"/><path id="Path_1823" d="m76.7,87.15c.24-.6-.1-1.09-.86-.8-.83.32-.81,1.28-.4,1.48.19.06.4.05.59-.03.31-.11.56-.35.68-.65Z" fill="#a6c353"/><path id="Path_1824" d="m73.51,89.59q-.17,0-.81-.03c.43.03.98.04,1.18.04h.01c-.11,0-.27-.01-.39-.01Z" fill="#a6c353"/><path id="Path_1825" d="m79.45,86.1c.4-1.09-.76-.76-1.12-.55-.56.31-.94,1.38-.53,1.52.18.02.36,0,.53-.04.47-.17.87-.5,1.12-.93Z" fill="#a6c353"/><path id="Path_1826" d="m82.46,85.12c.29-.36.4-.86-.17-.84-.53.07-1.01.33-1.37.73-.68.76-.29,1.09-.29,1.09.14.09.52-.03.6-.06.48-.19.9-.51,1.22-.92Z" fill="#a6c353"/><path id="Path_1827" d="m85.61,84.03c.5-.61.35-.9-.09-.89-.51.07-.98.32-1.32.71-.16.16-.78.94-.52,1.15.12.1.36.03.56-.03.54-.18,1.01-.51,1.37-.94Z" fill="#a6c353"/><path id="Path_1828" d="m88.8,82.79c.37-.44.55-.9.14-.9-.89.01-2.34,1.7-1.97,1.95.15.05.32.04.46-.03.52-.25.98-.59,1.37-1.02Z" fill="#a6c353"/><path id="Path_1829" d="m91.87,81.43c.42-.49.7-1.02.37-.96-.49.07-2.39,1.64-1.97,1.98.04.04.1.09.4-.04.46-.24.87-.57,1.19-.97Z" fill="#a6c353"/><path id="Path_1830" d="m94.56,80.01c.3-.36.63-.89.39-.87-.41.15-.76.42-1.02.77-.16.17-.76.94-.7,1.13.1,0,.21-.01.3-.06.38-.28.73-.61,1.03-.97Z" fill="#a6c353"/><path id="Path_1831" d="m96.84,78.41c.35-.47.49-.77.37-.74-.59.48-1.07,1.08-1.4,1.76.03.01.03,0,.12-.04v.03s.01,0,.06-.03c.3-.31.59-.63.86-.97Z" fill="#a6c353"/><path id="Path_1832" d="m98.57,76.41c.08-.12.16-.24.23-.36t-1.12,1.63c.31-.41.62-.84.89-1.26Z" fill="#a6c353"/><path id="Path_1833" d="m69.23,88.69c-.51-.26-1.06-.43-1.63-.49,0,.32,2.42.97,2.85.97h0s-.02-.03-.03-.03c-.37-.18-.79-.29-1.19-.45Z" fill="#a6c353"/><path id="Path_1834" d="m69.41,88.22c-1.2-.71-1.91-.96-1.86-.64.09.44,2.12,1.25,2.56,1.21h0q-.03-.09-.03-.1s-.1-.13-.68-.47Z" fill="#a6c353"/><path id="Path_1835" d="m69.97,87.39c-.78-.77-1.76-.83-1.78-.49-.01.22.33.55.92.92.48.28,1.09.51,1.27.39h.01c.1-.17-.04-.45-.42-.81Z" fill="#a6c353"/><path id="Path_1836" d="m71.51,86.53c-.46-.87-1.76-.99-1.96-.51-.17.42.53,1,.68,1.12.31.29.75.42,1.17.35h.01c.28-.21.31-.53.1-.96Z" fill="#a6c353"/><path id="Path_1837" d="m73.73,85.76c0-.65-.53-1.17-1.18-1.16-.35,0-.67.16-.9.42-.32.47.13,1.08.26,1.25.15.14.31.26.49.35.08.03.16.06.24.07l.37.03s.06-.01.09-.03c.36-.15.7-.29.62-.93Z" fill="#a6c353"/><path id="Path_1838" d="m76.69,84.5c.13-1.06-1.14-1.37-1.97-.71-.48.36-.58,1.04-.22,1.52.16.22.4.36.66.42.23.01.45-.02.66-.1.47-.19.8-.62.86-1.12Z" fill="#a6c353"/><path id="Path_1839" d="m71.38,89.46c-.63-.07-1.27-.25-1.91-.28,1.16.25,2.34.38,3.53.41h-.16c-.22-.03-.73-.04-1.45-.13Z" fill="#a6c353"/><path id="Path_1840" d="m69.78,89.11q-1.42-.33-1.45-.33c1.02.36,2.08.59,3.16.67-.01,0-.04-.01-.06-.01-.53-.09-.86-.15-1.65-.32Z" fill="#a6c353"/><path id="Path_1841" d="m80,83.22c.2-1.16-1.08-1.24-1.91-.61-.98.74-.62,1.89-.01,2.01.24.02.48,0,.7-.07.6-.22,1.05-.71,1.23-1.32Z" fill="#a6c353"/><path id="Path_1842" d="m83.44,82.16c.32-.68.27-1.7-.94-1.29-.56.24-1.02.68-1.28,1.24-.42.96.2,1.25.2,1.25.3.06.61.02.89-.1.51-.2.91-.59,1.12-1.1Z" fill="#a6c353"/><path id="Path_1843" d="m72.96,89.59q-.32-.01-1.67-.1s1.07.12,2.52.12h.01c-.51-.02-.84-.02-.86-.02Z" fill="#a6c353"/><path id="Path_1844" d="m87.18,80.58c.37-.74.13-1.35-.76-1.08-1.38.44-2.01,2.11-1.42,2.47.25.08.53.07.78-.03.61-.29,1.1-.77,1.41-1.37Z" fill="#a6c353"/><path id="Path_1845" d="m90.68,79.18c.45-.83.17-1.38-.56-1.15-1.12.36-1.88,2.11-1.47,2.44.24.09.5.07.72-.04.55-.28,1.01-.71,1.31-1.25Z" fill="#a6c353"/><path id="Path_1846" d="m94.08,77.51c.36-.67.37-1.25-.22-1.09-.53.21-.97.59-1.25,1.08-.23.36-.55,1.18-.29,1.35.17.06.36.05.52-.03.51-.33.94-.78,1.24-1.31Z" fill="#a6c353"/><path id="Path_1847" d="m96.91,75.89c.22-.39.49-1.25.09-1.12-.43.15-2.01,2.17-1.42,2.37.12.04.25.02.35-.04.41-.33.74-.74.99-1.21Z" fill="#a6c353"/><path id="Path_1848" d="m99.22,74.18c.33-.67.4-1.18.14-1.05-.35.33-.63.73-.82,1.18-.29.57-.39.9-.3,1.03q.07.01.22-.07c.32-.31.58-.68.76-1.09Z" fill="#a6c353"/><path id="Path_1849" d="m100.7,72.47c.15-.29.26-.61.32-.93,0,0-.01,0-.01-.01h0c-.39.6-.69,1.26-.88,1.95l.04-.04c.23-.29.41-.61.53-.96Z" fill="#a6c353"/><path id="Path_1850" d="m65.48,86.97c-1.24-.77-1.97-1.09-2.16-.96-.03.73,3.04,1.96,3.27,1.82.01,0,.01-.01.01-.04-.04-.07-.1-.19-1.12-.81Z" fill="#a6c353"/><path id="Path_1851" d="m66.04,86.09c-1.5-1.29-2.45-1.37-2.34-.9.03.16.24.61,1.4,1.34,1.11.7,1.61.57,1.61.57l.06-.13c-.02-.23-.41-.6-.72-.87Z" fill="#a6c353"/><path id="Path_1852" d="m67.26,84.95c-1.25-1.58-2.3-1.19-2.36-.71-.04.36.32.87.92,1.34.94.7,1.54.71,1.68.63q.22-.19.23-.19c-.05-.39-.21-.77-.48-1.06Z" fill="#a6c353"/><path id="Path_1853" d="m69.48,83.92c-.66-1.63-2.26-1.66-2.62-.92-.2.41,0,.96.52,1.47.42.5,1.05.77,1.7.73.02,0,.04-.01.06-.03.12-.08.24-.15.37-.2.14-.34.13-.72-.03-1.05Z" fill="#a6c353"/><path id="Path_1854" d="m72.3,82.67c-.36-1.58-2.22-1.95-2.72-1.11-.36.6-.25,1.38.26,1.86.25.29.56.5.92.63.23.04.47.05.7.03.03,0,.04-.01.07-.03q.55-.25.66-.45c.15-.28.19-.62.1-.93Z" fill="#a6c353"/><path id="Path_1855" d="m75.96,81.13c-.14-1.8-2.23-1.61-2.98-.68-.47.7-.27,1.64.43,2.11.3.2.66.28,1.01.24.13-.01.3-.07.43-.1.69-.21,1.14-.85,1.11-1.57Z" fill="#a6c353"/><path id="Path_1856" d="m66.37,88.35c-.59-.23-1.19-.43-1.8-.59,1.16.55,2.38.94,3.64,1.16-.03-.01-.07-.03-.1-.04-.57-.17-1.16-.34-1.74-.53Z" fill="#a6c353"/><path id="Path_1857" d="m65.77,87.8c-.68-.39-1.42-.68-2.19-.86.14.48,3.09,1.51,3.5,1.52,0,0,0-.01-.01-.01h0s.04.01.06,0-.01-.01-.03-.03c-.42-.25-.87-.45-1.32-.62Z" fill="#a6c353"/><path id="Path_1858" d="m79.84,79.65c.14-1.4-1.81-1.61-2.72-.84-.47.42-.64,1.09-.42,1.69.15.5.59.85,1.11.9.23,0,.46-.02.68-.07.73-.26,1.25-.91,1.35-1.67Z" fill="#a6c353"/><path id="Path_1859" d="m83.96,77.98c.23-1.4-1.4-1.55-2.42-.8-1.14.86-.86,2.58.16,2.67.29,0,.58-.04.86-.1.72-.33,1.24-.99,1.4-1.77Z" fill="#a6c353"/><path id="Path_1860" d="m67.88,88.9c-.59-.15-1.18-.33-1.78-.45,1.2.38,2.42.66,3.67.83q-.06-.01-.13-.03c-.59-.08-1.18-.2-1.76-.35Z" fill="#a6c353"/><path id="Path_1861" d="m87.8,76.7c.36-1.1-.1-2.22-1.5-1.5-1.25.65-1.57,2.63-.72,2.98.35.06.71.03,1.04-.1.57-.28,1-.78,1.18-1.38Z" fill="#a6c353"/><path id="Path_1862" d="m69.51,89.25c-.72-.12-1.27-.23-1.5-.28l.19.04c.37.07.73.15,1.11.2.33.06.78.12,1.11.16s.78.09,1.11.12c-.04,0-.08,0-.12-.01-.42-.03-1.06-.1-1.9-.23Z" fill="#a6c353"/><path id="Path_1863" d="m91.77,74.74c.33-1-.2-1.74-1.28-1.16-1.42.77-1.6,2.67-.79,2.89.26.04.52,0,.76-.09.63-.36,1.1-.95,1.31-1.64Z" fill="#a6c353"/><path id="Path_1864" d="m95.34,73c.35-1.05-.04-1.63-.83-1.22-1.3.67-1.6,2.69-.92,2.86.22.01.44-.03.65-.12.52-.38.91-.91,1.11-1.53Z" fill="#a6c353"/><path id="Path_1865" d="m98.27,71.36c.3-.92.23-1.74-.33-1.47-.82.39-1.58,2.59-.98,2.83.17.03.35,0,.5-.1.39-.33.67-.77.81-1.26Z" fill="#a6c353"/><path id="Path_1866" d="m100.76,69.31c.2-.74,0-1.16-.3-1-.55.65-.8,1.51-.69,2.35.03.01.07,0,.12,0,0,.07.03.09.1.01.4-.36.67-.84.78-1.37Z" fill="#a6c353"/><path id="Path_1867" d="m102.28,67.44c.07-.33.24-1.25.01-1.05-.16.13-.76,2.15-.53,2.24.04.01.09-.06.12-.09.18-.35.31-.72.4-1.11Z" fill="#a6c353"/><path id="Path_1868" d="m102.84,66.02c.07-.38.14-.77.2-1.16.01-.12.04-.23.06-.35-.07.47-.26,1.51-.36,1.96.03-.15.07-.29.1-.45Z" fill="#a6c353"/><path id="Path_1869" d="m49.04,50.07c.26-1.02.43-2.43-.14-2.15-1.05.51-2.43,4.62-1.67,4.94.19,0,.37-.05.52-.16.66-.75,1.1-1.65,1.29-2.63Z" fill="#7bafdc"/><path id="Path_1870" d="m51.77,48.61c.46-1.42.48-2.83-.22-2.59-.96.49-1.67,1.36-1.96,2.39-.85,2.14-.04,2.53-.01,2.54.1.03.2.03.3,0,.06.06.12.04.26-.04.84-.5,1.44-1.34,1.63-2.31Z" fill="#7bafdc"/><path id="Path_1871" d="m55.45,46.39c.86-3.01-1.28-1.74-1.3-1.73-1.17.75-1.9,2.02-1.96,3.4h.03c.04.1-.04.2,0,.29.14.32.27.57.46.65.22.1.56.03,1.04-.2.88-.54,1.5-1.41,1.73-2.41Z" fill="#7bafdc"/><path id="Path_1872" d="m59.16,44.94c.43-1.38.17-2.89-1.4-1.99-.89.5-1.56,1.32-1.87,2.3-.35,1.09.03,1.8.55,1.92.39.03.78-.04,1.14-.19.78-.44,1.35-1.17,1.59-2.04Z" fill="#7bafdc"/><path id="Path_1873" d="m45.59,54.3c.19-.96.37-1.77.52-2.3-.1.38-.2.74-.29,1.12s-.17.76-.26,1.15-.14.77-.2,1.16c-.06.36-.1.71-.14,1.08,0-.03.01-.06.01-.09.04-.4.22-1.37.36-2.12Z" fill="#7bafdc"/><path id="Path_1874" d="m46.79,52.31c.26-1.05.62-2.75.3-2.5-.46.36-1.84,4.68-1.35,4.96q.22-.16.26-.22c.4-.69.67-1.45.79-2.24Z" fill="#7bafdc"/><path id="Path_1875" d="m63.32,43.22c.46-1.76-.62-2.66-2.01-1.7-.75.52-1.28,1.3-1.5,2.2-.05.24-.07.48-.04.73.23.47.46.77.83.84.17.01.35,0,.52-.04,0,.07-.01.15.56-.07.82-.35,1.43-1.08,1.64-1.95Z" fill="#7bafdc"/><path id="Path_1876" d="m67.48,41.58c.23-1.48-.73-2.46-2.19-1.5-1.45.96-1.78,2.86-.88,3.31.52.21,1.11.18,1.61-.06.75-.3,1.3-.96,1.45-1.76Z" fill="#7bafdc"/><path id="Path_1877" d="m71.49,40.05c.17-.78-.33-1.55-1.11-1.72-.52-.11-1.06.07-1.41.48-1.14.96-.95,2.82.3,2.97.38.01.76-.05,1.12-.19.65-.24,1.08-.85,1.09-1.54Z" fill="#7bafdc"/><path id="Path_1878" d="m75.24,38.41c-.16-.84-.96-1.39-1.8-1.23-.42.08-.78.32-1.01.68-.48.63-.35,1.53.28,2.01.27.21.61.31.96.29.25-.02.49-.07.72-.15.62-.27.97-.93.85-1.6Z" fill="#7bafdc"/><path id="Path_1879" d="m78.26,37.03c-.52-1.19-2.14-1.21-2.5-.27-.2.8.28,1.61,1.08,1.82.07.02.15.03.22.04.27,0,.54-.03.81-.09.26-.19.45-.44.56-.74,0-.26-.06-.52-.16-.76Z" fill="#7bafdc"/><path id="Path_1880" d="m80.71,36.04c-.56-.93-1.87-1.58-2.09-.61-.08.54.17,1.08.63,1.37.37.38.95.48,1.42.25.3-.19.32-.54.03-1Z" fill="#7bafdc"/><path id="Path_1881" d="m82.3,34.91c-.6-.61-1.81-1.06-1.83-.57.04.21.12.42.24.6l.53.52c.73.57,1.17.39,1.17.39.09-.06.14-.16.24-.19,0-.3-.13-.58-.37-.76Z" fill="#7bafdc"/><path id="Path_1882" d="m83.07,33.83c-.65-.48-1.45-.78-1.42-.47.06.51,1.74,1.55,2.03,1.25.13-.22-.61-.77-.61-.78Z" fill="#7bafdc"/><path id="Path_1883" d="m83.41,33.14c-.55-.31-1.52-.74-1.48-.57.57.54,1.29.91,2.06,1.06,0,0,.01-.02.01-.03-.15-.21-.35-.37-.59-.46Z" fill="#7bafdc"/><path id="Path_1884" d="m82.66,32.29c-.36-.15-.73-.26-1.11-.33.6.33,1.25.59,1.91.77,0-.01-.01-.01-.01-.03-.24-.17-.51-.31-.79-.41Z" fill="#7bafdc"/><path id="Path_1885" d="m82.09,31.87c-.73-.22-1.28-.36-1.51-.42.01,0,1.76.55,1.87.55,0,0-.02-.01-.03-.01-.11-.05-.22-.09-.33-.12Z" fill="#7bafdc"/><path id="Path_1886" d="m48.19,47.35c.4-.71.71-1.46.94-2.24-.36.41-.65.88-.86,1.38l-.04.09c-.17.33-.35.68-.5,1.02-.04.1-.09.2-.13.29-.28.54-.49,1.1-.63,1.69.04-.01.06-.01.23-.26.4-.62.73-1.28,1-1.96Z" fill="#7bafdc"/><path id="Path_1887" d="m50.34,45.4s1.05-2.08.5-1.93c-.75.22-2.78,3.55-2.42,4.3.06.01.12,0,.17-.03,0,.01.01.01.01.03.04,0,.06,0,.14-.07.68-.65,1.22-1.43,1.58-2.3Z" fill="#7bafdc"/><path id="Path_1888" d="m52.93,43.88c.52-.97,1.07-2.34.43-2.12-1.45.48-3.32,3.91-2.68,4.27.24,0,.48-.06.69-.17.67-.52,1.21-1.2,1.55-1.98Z" fill="#7bafdc"/><path id="Path_1889" d="m56.22,42.23c.32-.59,1.02-2.21.07-2.01-1.38.31-3.41,3.3-2.69,3.95.12.1.22.09.46.01-.01.02-.02.05-.01.07.14-.03.28-.08.4-.15.77-.43,1.39-1.09,1.77-1.89Z" fill="#7bafdc"/><path id="Path_1890" d="m59.76,40.68c.3-.59.88-2.05-.13-1.86-1.55.29-3.51,3.04-2.62,3.66.32.22,1.08-.09,1.11-.1.72-.36,1.3-.96,1.64-1.7Z" fill="#7bafdc"/><path id="Path_1891" d="m63.53,39.17c.27-.59.7-2.12-.75-1.6-1.05.38-3.09,2.54-1.93,3.29.27.17.98-.03,1.14-.09.7-.32,1.25-.89,1.54-1.6Z" fill="#7bafdc"/><path id="Path_1892" d="m67.19,37.8c.29-.82.24-2.03-1.21-1.32-.65.29-1.19.8-1.51,1.44-.48,1.02.07,1.35.19,1.4.4.09.81.06,1.19-.09.63-.26,1.12-.78,1.34-1.42Z" fill="#7bafdc"/><path id="Path_1893" d="m70.76,36.35c.09-1.1-.83-1.61-2.03-.61-.96.82-.85,2.02-.03,2.14.28,0,.56-.02.83-.07.65-.21,1.13-.77,1.22-1.45Z" fill="#7bafdc"/><path id="Path_1894" d="m73.8,35.39c-.03-1.08-1.04-1.6-1.97-.67-.65.65-.45,1.79.53,1.83h.19s.01.01.03.01c.06.04.2,0,.26-.03.53-.2.99-.38.96-1.15Z" fill="#7bafdc"/><path id="Path_1895" d="m76.33,34.31c-.32-.86-1.42-1.38-1.87-.39-.16.4-.05.86.29,1.13.14.16.33.25.53.28.05,0,.11,0,.16,0l.42-.04s.02,0,.03-.01c.18-.1.33-.22.46-.38.08-.19.08-.4-.01-.58Z" fill="#7bafdc"/><path id="Path_1896" d="m78.12,33.37c-.65-.84-1.48-.93-1.54-.35.03.39.25.75.59.96.14.11.31.18.49.22.18.02.36,0,.53-.07.28-.17.12-.51-.07-.75Z" fill="#7bafdc"/><path id="Path_1897" d="m79.11,32.54c-.58-.44-1.31-.64-1.3-.35s1.08,1.29,1.66,1c.22-.21-.22-.54-.36-.65Z" fill="#7bafdc"/><path id="Path_1898" d="m79.38,31.9c-.36-.2-.77-.33-1.18-.37.33.29.71.53,1.11.71.43.2.65.2.69.15v-.02c.03-.15-.46-.39-.62-.46Z" fill="#7bafdc"/><path id="Path_1899" d="m79.04,31.38c-.32-.11-.65-.19-.99-.22.58.25,1.19.45,1.81.59v-.02c-.25-.16-.53-.28-.82-.35Z" fill="#7bafdc"/><path id="Path_1900" d="m77.99,30.98c-.42-.07-.81-.13-.85-.13.04.01,1.73.36,1.79.36h-.01s.04-.01.04-.01c-.02,0-.33-.1-.97-.22Z" fill="#7bafdc"/><path id="Path_1901" d="m50.54,42.93c.46-.65.94-1.28,1.4-1.92h-.01c-.22.28-.43.54-.65.81s-.46.6-.68.9c-.22.31-.43.61-.65.93s-.42.63-.6.96c-.04.07-.1.16-.14.23.05-.07.1-.14.16-.2.4-.57.78-1.13,1.18-1.72Z" fill="#7bafdc"/><path id="Path_1902" d="m52.45,41.35c1.27-1.64,1.25-1.79,1.24-1.86-1.31.97-2.37,2.24-3.08,3.71.01,0,.02,0,.03.01.11-.05.22-.11.32-.19.58-.48,1.08-1.04,1.5-1.67Z" fill="#7bafdc"/><path id="Path_1903" d="m55.2,39.65c.81-.99,1.04-1.44.78-1.45-.78-.04-3.51,2.83-3.21,3.39.04.07.09.04.23,0,.03.03.04.04.19-.04.78-.5,1.46-1.14,2.01-1.89Z" fill="#7bafdc"/><path id="Path_1904" d="m58.25,38.2c.29-.35,1.18-1.42.48-1.32-1.32.19-3.58,2.7-3.14,3.14.06.06.14.04.32,0,.04.04.1.03.24-.04.82-.43,1.54-1.04,2.1-1.77Z" fill="#7bafdc"/><path id="Path_1905" d="m61.26,37.09c.58-.68.82-1.16.73-1.4-.45-.2-1.7.65-2.09.97-1.01.84-1.3,1.55-1.24,1.8.07.32.73.09.94,0,.66-.31,1.22-.79,1.65-1.37Z" fill="#7bafdc"/><path id="Path_1906" d="m64.71,35.75c.45-.57.72-1.16.14-1.13-1.24.06-3.35,2.06-2.69,2.56.2.15.72-.01.86-.07.67-.29,1.25-.76,1.68-1.35Z" fill="#7bafdc"/><path id="Path_1907" d="m67.77,34.76c.62-.99.27-1.21-.22-1.09-.99.23-2.63,1.8-2.12,2.21.28.11.58.11.86.01.6-.2,1.12-.6,1.47-1.13Z" fill="#7bafdc"/><path id="Path_1908" d="m70.66,33.79c.04-.1.26-.64,0-.89-.04-.04-.14-.15-.78.12-.94.39-1.68,1.45-1.07,1.76.22.04.45.03.66-.03.53-.1.97-.46,1.18-.96Z" fill="#7bafdc"/><path id="Path_1909" d="m73.12,32.82c.03-.87-.91-.63-1.4-.17s-.49,1.13.17,1.15c.15,0,.29-.03.43-.07.65-.26.79-.64.79-.9Z" fill="#7bafdc"/><path id="Path_1910" d="m74.92,32.22c-.2-.67-.91-.78-1.21-.19-.15.24-.09.56.14.73.22.17.51.2.76.09.01,0,.03-.01.04-.01.24-.09.36-.36.27-.6,0,0,0-.01,0-.02Z" fill="#7bafdc"/><path id="Path_1911" d="m76.11,31.64c-.18-.17-.4-.31-.63-.41-.37-.07-.36.17-.36.2.14.46.6.74,1.07.65.14-.1.13-.25-.07-.45Z" fill="#7bafdc"/><path id="Path_1912" d="m76.42,31.13c-.36-.15-.82-.28-.78-.19.21.2.46.36.73.48.04.01.42.15.48.09.01-.03.01-.07.06-.09-.15-.11-.32-.21-.49-.29Z" fill="#7bafdc"/><path id="Path_1913" d="m76.13,30.84c-.27-.06-.54-.1-.82-.13.03.01,1.15.31,1.17.31.11.03.22.04.33.04h0c-.22-.11-.45-.18-.68-.22Z" fill="#7bafdc"/><path id="Path_1914" d="m75.25,30.68c-.13-.01-.46-.03-.83-.04.47,0,.93.05,1.4.12.09.02.17.03.26.03-.01,0-.03,0-.03-.01-.26-.04-.53-.07-.79-.09Z" fill="#7bafdc"/><path id="Path_1915" d="m54.09,38.72c.09-.09.36-.33.73-.68l-.48.44c-.27.26-.55.52-.82.8-.17.17-.35.36-.52.54.42-.44.82-.83,1.08-1.09Z" fill="#7bafdc"/><path id="Path_1916" d="m55.72,37.57q1.55-1.37,1.6-1.42s0-.01-.01-.01c-1.28.83-2.44,1.82-3.47,2.95.06,0,.12-.03.17-.07.57-.42,1.18-.96,1.71-1.44Z" fill="#7bafdc"/><path id="Path_1917" d="m58.11,36.3c1.4-1.13,1.4-1.22,1.4-1.26-.2-.15-3.58,2.09-3.61,2.69.04.01.1-.01.14-.03h-.01s.01.03.01.03c.03-.01.07-.03.1-.04.71-.38,1.37-.85,1.96-1.38Z" fill="#7bafdc"/><path id="Path_1918" d="m60.87,35.16c1.42-1.1,1.27-1.13,1.21-1.15-.4-.06-3.8,1.92-3.56,2.44.06,0,.13-.01.19-.03v.03s.1,0,.14-.03c.73-.32,1.41-.74,2.01-1.26Z" fill="#7bafdc"/><path id="Path_1919" d="m63.69,34.17c1.31-.99,1.15-1.02,1.04-1.03-.6-.09-3.63,1.79-3.4,2.12.17.06.35.06.52-.01.66-.28,1.27-.64,1.84-1.08Z" fill="#7bafdc"/><path id="Path_1920" d="m66.71,33.13c.63-.47.68-.61.69-.67-.33-.33-2.99,1.1-3.04,1.64,0,.02.01.05.01.07.06.03.16.1.62-.04.62-.25,1.2-.58,1.71-1Z" fill="#7bafdc"/><path id="Path_1921" d="m69.09,32.51c.26-.2.82-.67.63-.71-.59.09-1.16.31-1.67.63-.58.35-.91.68-.78.83.04.04.14.04.23.04,0,0,0,.01.01.01.05,0,.1,0,.14-.03.53-.15,1.01-.41,1.42-.77Z" fill="#7bafdc"/><path id="Path_1922" d="m71.44,31.79c.26-.25.43-.44.23-.44-.48.06-.95.24-1.35.51-.37.23-.53.49-.39.6.04.03.1.03.22.01.01.03.04.03.14,0,.43-.13.83-.36,1.15-.68Z" fill="#7bafdc"/><path id="Path_1923" d="m73.08,31.35c.3-.42.07-.38,0-.36-.63.12-1.22.64-1.01.8.12.07.43-.01.46-.01.22-.09.41-.23.55-.42Z" fill="#7bafdc"/><path id="Path_1924" d="m74.2,30.94c-.04-.35-.46-.12-.59.04-.1.15-.04.32.17.31,0,0,.12-.01.2-.03.14-.04.23-.18.21-.32Z" fill="#7bafdc"/><path id="Path_1925" d="m74.59,30.72c-.1-.04-.2-.06-.3-.07.03.05.06.09.1.13.04.04.08.07.13.1.04.03.08.04.13.04.04,0,.09,0,.13-.01.05-.07-.06-.15-.19-.19Z" fill="#7bafdc"/><path id="Path_1926" d="m74.3,30.63h-.1c.14,0,.27.01.4.04.1.01.14.03.16.01h-.01c-.14-.04-.3-.06-.45-.06Z" fill="#7bafdc"/><path id="Path_1927" d="m59.63,34.6c.6-.36,1.22-.68,1.83-1.03-.16.07-.17.07-.4.19-.1.04-.19.1-.29.15-.33.17-.66.35-.99.54s-.65.38-.96.59l-.69.44c-.22.15-.27.19-.33.23q.09-.04.22-.12c.55-.31,1.08-.66,1.63-.98Z" fill="#7bafdc"/><path id="Path_1928" d="m61.76,33.7c.59-.31,1.21-.55,1.77-.92h-.01c-1.32.44-2.58,1.07-3.73,1.86.02,0,.03,0,.04.01h-.01s.06,0,.09,0q.5-.25,1.86-.96Z" fill="#7bafdc"/><path id="Path_1929" d="m64.27,32.84c.5-.25.76-.36,1.15-.54.17-.06.34-.14.49-.25-1.32.31-2.57.85-3.7,1.6.01.01.06.01.09.01h-.01s.03.03.1,0c.65-.23,1.28-.51,1.88-.83Z" fill="#7bafdc"/><path id="Path_1930" d="m66.82,32.12q1.4-.59,1.41-.61c-1.22.23-2.4.67-3.47,1.31v.03c.15,0,.29-.03.43-.07.55-.19,1.1-.4,1.63-.65Z" fill="#7bafdc"/><path id="Path_1931" d="m69.47,31.45c.28-.08.55-.18.81-.32-1.03.12-2.02.45-2.91.96.07.06.36-.01.37-.01q.28-.09,1.73-.63Z" fill="#7bafdc"/><path id="Path_1932" d="m71.25,31.12c.32-.1.63-.16.94-.29-.86.09-1.71.32-2.49.7h.01c.09.01.18,0,.27-.02.43-.1.85-.24,1.27-.4Z" fill="#7bafdc"/><path id="Path_1933" d="m72.85,30.83c.24-.07.49-.12.73-.16-.64.02-1.26.16-1.84.42.01.01.04.03.29-.03.27-.06.55-.16.82-.23Z" fill="#7bafdc"/><path id="Path_1934" d="m73.93,30.65c.09-.01.18-.02.27-.02-.34-.02-.68.03-.99.16.05,0,.11,0,.16-.01.2-.04.38-.1.56-.13Z" fill="#7bafdc"/><path id="Path_1935" d="m74.2,30.63s-.1,0-.14.01h.04s.07-.01.1-.01Z" fill="#7bafdc"/><path id="Path_1936" d="m64.3,32.36c.68-.25,1.24-.42,1.6-.54-.3.09-.59.19-.89.28-.37.12-.73.26-1.09.39s-.73.29-1.09.44c-.11.04-.22.09-.33.15h.03c.72-.3,1.37-.55,1.78-.71Z" fill="#7bafdc"/><path id="Path_1937" d="m66.43,31.74c.52-.16,1.05-.26,1.57-.42-1.26.26-2.49.62-3.69,1.08.08,0,.15-.02.22-.06q1.83-.58,1.9-.6Z" fill="#7bafdc"/><path id="Path_1938" d="m68.67,31.25c.49-.12.98-.2,1.47-.31-1.22.16-2.42.43-3.58.82.09,0,.17-.02.26-.04.61-.16,1.22-.33,1.86-.47Z" fill="#7bafdc"/><path id="Path_1939" d="m70.82,30.91q.45-.07,1.32-.17c-1.12.07-2.24.26-3.32.55.04,0,.23-.03.26-.03.59-.13,1.17-.26,1.74-.35Z" fill="#7bafdc"/><path id="Path_1940" d="m72.56,30.71c.65-.06,1.14-.07,1.45-.09-1.02-.01-2.04.08-3.04.29.08,0,.16-.01.24-.03q1.05-.15,1.34-.17Z" fill="#7bafdc"/><path id="Path_1941" d="m74.1,30.63h.1c-.45,0-.9.02-1.35.07.05,0,.11,0,.16-.01.36-.04.73-.06,1.09-.06Z" fill="#7bafdc"/><path id="Path_1942" d="m71.41,30.76c.75-.07,1.32-.1,1.55-.1-1.19.05-2.37.17-3.54.36q.1-.01.17-.03c.31-.04.98-.14,1.81-.23Z" fill="#7bafdc"/><path id="Path_1943" d="m73.47,30.65c.24,0,.49-.01.73-.01-.9,0-1.8.04-2.69.13.06,0,.13,0,.19-.01.3-.03.95-.09,1.77-.1Z" fill="#7bafdc"/><path id="Path_1944" d="m74.2,30.63c-.22,0-.4,0-.7.01h.19c.25-.01.39-.01.52-.01Z" fill="#7bafdc"/><path id="Path_1945" d="m66.73,57.39c-.32-2.94-3.12-2.69-4.3-1.31-.74.9-.83,2.18-.2,3.17.09,0,.12.01.19.2.13.36,1.14.82,1.21.83.55.1,1.12.02,1.61-.23,1.06-.43,1.68-1.53,1.5-2.66Z" fill="#2f71b3"/><path id="Path_1946" d="m47.53,69.72c-.49-1.42-1.09-2.75-1.27-2.53-.3.36.88,4.62,1.63,4.88q.14-.15.16-.2c-.04-.74-.22-1.47-.52-2.15Z" fill="#2f71b3"/><path id="Path_1947" d="m71.67,55.69c-.03-1.1-.7-2.08-1.7-2.51-1.12-.41-2.46.73-2.66.94-.62.81-.72,1.91-.26,2.82.38.73,1.11,1.2,1.93,1.26.46,0,.92-.09,1.35-.23.92-.36,1.48-1.3,1.35-2.28Z" fill="#2f71b3"/><path id="Path_1948" d="m47.36,71.61c-.33-.78-.65-1.58-.98-2.38h0c.01.07.04.13.06.19.12.38.26.74.39,1.1s.29.74.43,1.1.3.7.46,1.05.33.68.5,1.02c.01.01.01.04.03.06-.03-.06-.04-.13-.07-.19s-.01-.07-.82-1.95Z" fill="#2f71b3"/><path id="Path_1949" d="m76.94,53.42c-.4-2.69-3.51-2.3-4.53-.89-.57.83-.45,1.95.29,2.63.3.36.7.63,1.15.77.42.06.84.06,1.25.01.08-.01.16-.04.23-.07.35-.16.69-.35,1.02-.55.41-.55.61-1.22.59-1.9Z" fill="#2f71b3"/><path id="Path_1950" d="m81.54,51.7c-.39-2.15-2.76-2.93-3.86-1.26-.51.83-.48,1.88.09,2.67.33.3.71.54,1.12.73.08.03.17.05.26.06.09,0,.19.01.27.01.1-.01.2-.03.3-.06.09,0,.16.06.24.04.06-.01.13-.03.19-.06q.92-.39,1.14-.74c.28-.41.36-.92.24-1.39Z" fill="#2f71b3"/><path id="Path_1951" d="m85.72,49.89c-.16-.89-.75-1.65-1.57-2.02-.96-.33-1.77.64-1.89.83-.27.73-.19,1.54.22,2.2.27.36.63.65,1.05.82.34.07.69.11,1.04.12.04-.02.08-.03.12-.04.77-.16,1.26-.91,1.1-1.67-.02-.08-.04-.15-.07-.22Z" fill="#2f71b3"/><path id="Path_1952" d="m89.28,47.76c-.48-1.57-2.19-2.12-2.86-.94-.28.67-.17,1.44.27,2.01.86,1.12,1.44.97,1.94.86.07-.02.15-.05.22-.09.79-.49.5-1.61.43-1.83Z" fill="#2f71b3"/><path id="Path_1953" d="m92.01,45.96c-.65-1.47-1.97-1.76-2.33-.84-.37.94.92,3.12,2.19,2.53.02-.02.05-.03.07-.04.56-.44.2-1.37.07-1.64Z" fill="#2f71b3"/><path id="Path_1954" d="m93.95,44.08c-.48-.83-1.57-1.5-1.76-.67-.03.58.16,1.15.53,1.6.06,0,.1.03.24.25.2.23.46.41.75.51.08.02.16.02.23.01.07-.01.12-.09.19-.12.04-.01.07-.03.1-.06.28-.32-.06-1.15-.29-1.53Z" fill="#2f71b3"/><path id="Path_1955" d="m95.16,42.6c-.56-.78-1.21-1.37-1.31-.9,0,.57.21,1.12.58,1.56.35.44.91.74,1.11.6.03-.01.04-.04.06-.06.08-.29-.06-.68-.44-1.19Z" fill="#2f71b3"/><path id="Path_1956" d="m95.42,40.94c-.16-.17-.68-.76-1.05-.78.12.67,1.47,2.11,1.66,1.9.01-.02.02-.04.01-.06-.12-.4-.33-.76-.62-1.06Z" fill="#2f71b3"/><path id="Path_1957" d="m95,39.59c-.23-.28-.51-.51-.82-.68.39.55.86,1.05,1.4,1.47h.01v-.02s.06.06.07.06v-.03c-.19-.29-.41-.56-.66-.8Z" fill="#2f71b3"/><path id="Path_1958" d="m47.18,62.81c-.17-1.67-.68-3.33-1.07-2.88-.46.81-.62,1.75-.45,2.66.23,2.64.92,2.7.92,2.7.03,0,.07-.03.1-.03.06.06.09.04.16-.06.3-.51.49-.83.33-2.4Z" fill="#2f71b3"/><path id="Path_1959" d="m65.1,52.34c-.12-2.86-2.66-2.6-3.92-1.26-.78.82-.97,2.04-.46,3.05.07,0,.1.01.16.2.1.33.98.78,1.08.8.53.1,1.08.03,1.55-.22,1.03-.42,1.67-1.46,1.58-2.57Z" fill="#2f71b3"/><path id="Path_1960" d="m45.89,64.72c-.09-.91-.31-1.8-.66-2.64-.33.28.33,4.87.75,5.12q.12-.17.12-.22c.03-.76-.03-1.52-.2-2.25Z" fill="#2f71b3"/><path id="Path_1961" d="m69.82,50.69c.02-1.01-.55-1.95-1.45-2.4-.94-.35-2.19.55-2.52.9-.63.75-.8,1.79-.43,2.7.32.7.99,1.16,1.76,1.22.44,0,.88-.08,1.3-.22.88-.36,1.43-1.26,1.35-2.21Z" fill="#2f71b3"/><path id="Path_1962" d="m74.88,48.53c-.36-2.53-3.24-2.17-4.25-.83-.63,1-.33,2.33.67,2.96.33.21.71.32,1.1.33l.88-.1c.34-.16.67-.34.99-.54.41-.52.62-1.17.6-1.83Z" fill="#2f71b3"/><path id="Path_1963" d="m79.28,46.9c-.4-1.98-2.63-2.69-3.67-1.16-.5.77-.48,1.77.06,2.51.33.28.69.52,1.08.7.08.03.16.05.24.06.09,0,.19.01.27.01s.2-.04.29-.04.16.06.24.04c.06-.01.12-.03.17-.06.73-.33,1.6-.67,1.31-2.07Z" fill="#2f71b3"/><path id="Path_1964" d="m83.21,45.24c-.2-.82-.78-1.5-1.56-1.83-1.01-.33-1.73.74-1.74.76-.49.86.24,1.99.24,2.01.27.34.62.6,1.02.77.33.06.66.09.99.1.03-.01.07-.03.1-.04.66-.31,1.26-.58.95-1.76Z" fill="#2f71b3"/><path id="Path_1965" d="m86.48,43.29c-.59-1.47-2.34-1.92-2.81-.73-.4,1.03,1.04,3.05,2.48,2.4.01,0,.03-.01.04-.03.72-.42.41-1.37.29-1.64Z" fill="#2f71b3"/><path id="Path_1966" d="m88.91,41.68c-.75-1.28-2.01-1.54-2.26-.74-.12.36-.07.99.85,1.87.22.24.5.4.82.47.22.01.44-.03.65-.12.01,0,.01-.01.03-.01.49-.39.06-1.23-.09-1.47Z" fill="#2f71b3"/><path id="Path_1967" d="m90.52,40.01c-.55-.73-1.66-1.31-1.73-.59-.06.52.58,1.29.69,1.4.03.03.09.03.12.06.07.1.16.19.24.28,0,0,.69.52.98.31.05-.03.1-.06.16-.09.24-.3-.2-1.02-.46-1.37Z" fill="#2f71b3"/><path id="Path_1968" d="m91.48,38.72c-.65-.67-1.35-1.16-1.38-.77.11.51.38.98.76,1.34.43.42,1.01.67,1.17.51.01-.01.01-.03.03-.03.05-.25-.15-.59-.58-1.05Z" fill="#2f71b3"/><path id="Path_1969" d="m91.49,37.32c-.33-.3-.71-.52-1.14-.65.2.54,1.81,1.87,1.9,1.57v-.03c-.06-.26-.61-.76-.76-.89Z" fill="#2f71b3"/><path id="Path_1970" d="m46.48,57.44c.1-1.34.03-3.11-.42-2.69-.69.65-1.05,4.62-.48,5.23.07,0,.14-.04.19-.09,0,.03,0,.06.01.09.03,0,.06,0,.16-.15.36-.75.54-1.57.53-2.39Z" fill="#2f71b3"/><path id="Path_1971" d="m63.84,47.67c.23-1.86-1.01-3.36-2.97-1.72-1.68,1.4-1.38,3.81.1,4.06.47.03.94-.04,1.38-.2.84-.39,1.41-1.21,1.48-2.14Z" fill="#2f71b3"/><path id="Path_1972" d="m45.24,59.11c.04-.71.03-1.42-.04-2.12h-.03c-.03.1-.05.21-.06.32-.01.16-.03.32-.04.47-.03.39-.06.78-.07,1.18s-.03.8-.03,1.19.01.8.03,1.19c0,.12.01.23.01.33,0,.08.01.17.03.25,0-.02.01-.03.03-.03t.01.03s.01-.06.03-.09c.02-.35.1-1.04.13-2.72Z" fill="#2f71b3"/><path id="Path_1973" d="m68.31,45.88c.12-1.73-1.3-3.11-3.15-1.51-1.51,1.29-1.02,3.44.42,3.66.47.02.94-.04,1.38-.19.8-.32,1.33-1.1,1.35-1.96Z" fill="#2f71b3"/><path id="Path_1974" d="m72.89,44.12c-.06-1.85-1.9-2.81-3.41-1.19-.75.68-.81,1.83-.13,2.58.34.38.83.6,1.34.6.36-.03.71-.09,1.05-.2.74-.27,1.21-1,1.15-1.79Z" fill="#2f71b3"/><path id="Path_1975" d="m77.12,42.45c-.36-1.83-2.36-2.49-3.25-1.05-.44.69-.44,1.57-.01,2.27.2.27.48.46.81.55.39.07.8.08,1.2.03.07-.01.14-.03.2-.06.74-.24,1.19-.98,1.06-1.74Z" fill="#2f71b3"/><path id="Path_1976" d="m80.62,40.9c-.55-1.58-2.23-2.06-2.84-1.12-.34.6-.31,1.33.07,1.9.41.71,1.27,1.03,2.04.76.08-.02.17-.05.24-.09.53-.26.75-.89.49-1.42,0-.01-.01-.02-.02-.03Z" fill="#2f71b3"/><path id="Path_1977" d="m83.45,39.21c-.7-1.35-2.23-1.5-2.49-.52-.24.94,1.15,2.58,2.38,1.98.62-.38.24-1.21.11-1.45Z" fill="#2f71b3"/><path id="Path_1978" d="m85.51,37.84c-.65-.89-1.87-1.38-2.04-.61-.06.26-.01.82.92,1.58.22.21.5.36.81.41.19,0,.39-.05.56-.13.37-.33-.14-1.1-.24-1.25Z" fill="#2f71b3"/><path id="Path_1979" d="m86.81,36.55c-.89-.83-1.64-.99-1.66-.57,0,.25.24.71.95,1.29.2.16.43.29.68.38.06.02.11.04.17.04.02,0,.05-.01.07-.01.07,0,.13.04.2-.01s.09-.17.19-.22c-.14-.34-.34-.64-.61-.9Z" fill="#2f71b3"/><path id="Path_1980" d="m87.34,35.43c-.66-.51-1.44-.87-1.38-.55.01.09.16.44,1.21,1.15.18.14.37.24.59.31.03.01.24,0,.27-.06v-.02c.05-.19-.41-.61-.69-.83Z" fill="#2f71b3"/><path id="Path_1981" d="m87.44,34.59c-.26-.16-1.47-.87-1.42-.68.06.26,1.84,1.34,1.91,1.13v-.03c-.14-.17-.31-.31-.49-.42Z" fill="#2f71b3"/><path id="Path_1982" d="m86.35,33.51c-.32-.17-.65-.31-.99-.41h0c.55.34,1.13.64,1.73.89h0c.06.02.07.02.09.03h0c-.25-.22-.52-.39-.82-.51Z" fill="#2f71b3"/><path id="Path_1983" d="m52.42,66.69l.22.04.86-.59c.44-.8.58-1.72.4-2.62.88.92,1.24,1.16,1.97,1.08l1.11-.6c.62-.61.69-1.28.82-2.59.46.7.75.96,2.04,1.12h.2c.16-.03.31-.07.46-.13.14-.05.27-.11.39-.2,1.81-1.83,1.18-5.26-1.6-5.32,1.67-1.86,1.17-3.34.45-4.27-1.51-1.95-3.7.12-3.7,2.18-.37-.68-1.08-1.12-1.86-1.13.77-.81,1.22-1.87,1.27-2.98.12.52.22,1,.79,1.26,1.9.83,4.16-2.34,3.05-4.27-.48-.84-3.01-1.29-3.84,2.41-.99-2.09-2.09-1.32-2.84-.32-.53.71-1.61,4.45.68,4.24q-1.04,1.89-1.05,2.81-.49-.76-1.52-1.22c1.22-1.63,1.2-4.03.36-4.93-.45.03-1.8.15-2.32,3.31-.04-.47-.12-1.16-.53-1.26-1.22-.29-2.34,4.01-1.34,5.12.4.44,1.67-.17,1.81-3.08.43,1.16.6,1.44,1.24,1.26q-.81,1.89-.79,2.85c-.62-1.06-.83-1.09-.95-1.11-1.05-.15-1.94,3.82-.3,5.58.14,0,.33,0,.48-.01-.33,1.08-.3,2.23.09,3.29-.36-.68-.79-1.54-1.22-1.51-.89.06-.56,3.5,1.08,5.17h.32c.65-.93.22-2.28-.13-3.37.72,1.31,1.17,1.67,1.81,1.5l.33-.29c.38-.81.47-1.73.27-2.6.26.63.83,1.08,1.5,1.18Zm-1.84-5.09c.06.04.13.1.19.15-.4.47-.4.73-.4,2.38-.11-.3-.29-.56-.53-.77-.29-.19-.6-.35-.92-.48q.33-.45.53-2.5c.07.28.21.54.42.76.22.18.46.34.72.47Zm3.21-2.17c.07,0,.17-.01.24-.01-.39.83-.6,1.74-.6,2.66-.62-1.03-.96-1.18-1.51-1.11.33-.85.55-1.75.63-2.66.2.39.54,1.08,1.23,1.12h0Zm4.15-2.12c.11,0,.21-.03.32-.06-.59.8-.94,1.75-1.02,2.75-.12-.31-.33-.57-.6-.76-.38-.22-.78-.43-1.19-.61q.43-.41.91-2.38c.27.64.89,1.06,1.58,1.06h0Z" fill="#2f71b3"/><path id="Path_1984" d="m61.66,84.47c-1.2-1.06-2.5-1.85-2.5-1.28-.01.54,1.09,1.37,1.42,1.6.27.19,1.63,1.13,1.99.83.01-.01.03-.03.03-.04,0-.07,0-.28-.94-1.11Z" fill="#1b4993"/><path id="Path_1985" d="m62.6,83.12c-1.5-1.73-2.55-1.51-2.58-.96-.01.25.12.8,1.24,1.67.39.3.81.55,1.25.76.21.09.44.1.66.04h.01c.05-.12.08-.22.12-.33-.18-.43-.41-.82-.71-1.18Z" fill="#1b4993"/><path id="Path_1986" d="m64.47,81.99c-.43-.71-1.04-1.29-1.77-1.67-.72-.33-1.17.07-1.22.31-.01.04-.23.92,1.19,2.21.01.01,1.15,1.02,1.91.59.01,0,.03-.01.04-.03.29-.25.24-.72-.16-1.4Z" fill="#1b4993"/><path id="Path_1987" d="m67.1,80.55c-.72-1.87-2.63-2.35-3.15-1.45-.09.16-.48,1,.73,2.37.49.57,1.25.83,1.99.68.06-.02.12-.04.17-.07.46-.29.54-.8.25-1.53Z" fill="#1b4993"/><path id="Path_1988" d="m70.5,78.83c-.19-1.07-1.21-1.79-2.29-1.6-.48.08-.91.34-1.21.73-.24.41-.35,1.08.46,2.01.26.31.59.56.96.73.33.11.69.14,1.04.07.05-.01.1-.02.14-.04.23-.12.44-.26.65-.41.26-.45.34-.97.24-1.48Z" fill="#1b4993"/><path id="Path_1989" d="m74.56,77.42c.03-1.08-.82-1.99-1.91-2.02-.62-.02-1.21.26-1.59.74-.61.91-.36,2.15.55,2.76.34.22.73.34,1.14.33.29-.04.58-.1.86-.19.65-.26,1.05-.93.95-1.63Z" fill="#1b4993"/><path id="Path_1990" d="m61.59,86.33c-.53-.36-1.11-.65-1.73-.84,0,.01-.01.01-.01.03,1.12.84,2.37,1.49,3.7,1.92t-.07-.06h0c-.62-.39-1.27-.7-1.89-1.05Z" fill="#1b4993"/><path id="Path_1991" d="m61.39,85.55c-1.52-1.02-2.36-1.44-2.32-1.15.1.55,2.98,2.2,3.56,2.25,0,0,.01-.02.01-.03l.09.03v-.03c-.16-.23-.22-.33-1.34-1.07Z" fill="#1b4993"/><path id="Path_1992" d="m78.95,75.75c.04-.72-.3-1.4-.89-1.8-.7-.38-1.56-.27-2.14.26-1.05.99-1.02,3.29.7,3.39.32.02.65,0,.96-.09.77-.26,1.31-.95,1.37-1.76Z" fill="#1b4993"/><path id="Path_1993" d="m62.77,87.23c-.49-.22-.96-.48-1.48-.65,1.15.62,2.35,1.13,3.58,1.52-.03-.01-.05-.03-.07-.04-.65-.26-1.21-.46-2.03-.82Z" fill="#1b4993"/><path id="Path_1994" d="m83.46,73.99c.12-.75-.22-1.5-.85-1.92-.89-.42-2.01.51-2.06.55-.52.43-.76,1.11-.63,1.77.04.26.1.52.19.77.25.3.57.52.94.64,0,0,.86-.07.92-.09.83-.18,1.44-.89,1.5-1.73Z" fill="#1b4993"/><path id="Path_1995" d="m87.89,71.82c.12-1.63-1.66-1.79-2.68-.94-1.15.96-.94,2.99.35,3.11.32,0,.65-.05.96-.12.78-.4,1.3-1.17,1.36-2.05Z" fill="#1b4993"/><path id="Path_1996" d="m91.86,70.31c.27-1.51-.63-2.38-1.7-1.64-.7.48-1.12,1.27-1.14,2.12-.03.35.27,1.24.86,1.31.31-.02.62-.09.91-.2.58-.34.97-.92,1.06-1.59Z" fill="#1b4993"/><path id="Path_1997" d="m95.7,68.15c.2-1.08-.45-1.89-1.4-1.28-1.37.87-1.21,3.04-.33,3.18.25,0,.49-.06.72-.16.54-.44.9-1.06,1.01-1.74Z" fill="#1b4993"/><path id="Path_1998" d="m98.81,66.2c.09-1.26-.48-1.61-1.08-1.13-.47.42-.75,1.02-.76,1.66-.01.29.01.58.07.86.02.03.04.05.07.06.13.12.13.36.37.36.04,0,.07-.01.1-.03.04.07.1.07.23-.01q.46-.29.56-.47c.21-.4.36-.84.43-1.29Z" fill="#1b4993"/><path id="Path_1999" d="m101.23,64.25c.06-.86-.07-1.63-.49-1.25-.72.64-1.07,2.72-.3,2.79.11,0,.2-.05.27-.13.33-.4.51-.89.52-1.41Z" fill="#1b4993"/><path id="Path_2000" d="m102.79,62.32c.01-.29.04-1.24-.32-1.19-.42.78-.43,2.59-.1,2.54.04,0,.09-.07.12-.1.19-.39.29-.82.3-1.25Z" fill="#1b4993"/><path id="Path_2001" d="m103.41,60.31c.02-.33,0-.65-.06-.97h-.01c-.08.68-.08,1.37-.01,2.05h.01s0-.01.01-.01h0v.07h.01c.04-.39.05-.76.04-1.13Z" fill="#1b4993"/><path id="Path_2002" d="m57.78,81.1c-1.31-1.57-2.59-2.35-2.65-1.63-.07,1.08,2.76,3.71,3.41,3.18.02-.01.04-.03.04-.06.03-.1.1-.41-.81-1.5Z" fill="#1b4993"/><path id="Path_2003" d="m59.2,79.65c-1.28-1.99-2.86-2.5-3.02-1.66-.22,1.16,2.13,3.75,3.11,3.4.06.06.12.12.3-.06.26-.31.13-.88-.39-1.68Z" fill="#1b4993"/><path id="Path_2004" d="m61.42,78.09c-.38-.86-1.02-1.57-1.83-2.03-.49-.28-1.1-.11-1.38.38-.04.06-.07.13-.09.2-.37,1.03,1.08,2.54,1.25,2.72.01.01,1.04.99,1.97.57.03-.01.07-.04.1-.06.37-.34.37-.94-.03-1.78Z" fill="#1b4993"/><path id="Path_2005" d="m64.51,76.42c-.83-2.59-3.07-2.81-3.67-1.35-.46,1.1.92,2.66.94,2.67.59.61,1.48.84,2.29.57.02-.02.05-.03.07-.03.53-.33.66-.97.37-1.86Z" fill="#1b4993"/><path id="Path_2006" d="m68.33,74.43c-.18-1.22-1.31-2.06-2.52-1.88-.59.09-1.11.4-1.46.88-.4.79-.23,1.75.42,2.35.3.38.68.69,1.12.89.4.14.82.17,1.24.1.06-.01.13-.04.17-.06.25-.14.49-.3.72-.47.32-.54.44-1.19.32-1.81Z" fill="#1b4993"/><path id="Path_2007" d="m72.75,72.92c0-1.28-1.03-2.33-2.32-2.33-.62,0-1.21.24-1.64.67-.74,1.12-.42,2.63.7,3.37.39.26.86.4,1.33.4.3-.06.6-.14.89-.23.74-.3,1.17-1.08,1.04-1.87Z" fill="#1b4993"/><path id="Path_2008" d="m57.19,82.51c-1.22-1.16-2-1.73-2.32-1.69-.16.41.79,1.32.98,1.5.66.71,1.46,1.27,2.36,1.63.01,0,.12-.04.1-.13s-.09-.32-1.12-1.31Z" fill="#1b4993"/><path id="Path_2009" d="m77.53,71.07c.05-1.22-.89-2.24-2.11-2.29-1.22-.05-2.24.89-2.29,2.11-.05,1.22.89,2.24,2.11,2.29,0,0,.01,0,.02,0,.37-.03.73-.1,1.08-.2.78-.3,1.26-1.07,1.2-1.9Z" fill="#1b4993"/><path id="Path_2010" d="m57.37,83.73c-1.58-1.22-1.94-1.45-2.07-1.45h-.01c1.01,1.14,2.21,2.07,3.56,2.76v-.03s.04.03.07.03c0-.02-.01-.03-.03-.03-.45-.48-.96-.91-1.51-1.28Z" fill="#1b4993"/><path id="Path_2011" d="m82.45,69.11c0-2.09-2.04-2.89-3.25-1.73-1.15,1.1-1.17,3.69.72,3.82.36.03.72,0,1.07-.1.85-.31,1.42-1.09,1.47-1.99Z" fill="#1b4993"/><path id="Path_2012" d="m58.44,84.94c-.65-.42-1.24-.9-1.9-1.29.09.08.19.16.29.23.04.03.1.07.14.1.3.22.6.44.92.65s.62.42.95.61.63.39.96.59c.04.03.1.06.14.09.13.07.14.09.2.12-.01-.01-.03-.01-.04-.03,0,0,.01,0,.01.01h0s-.03-.03-.04-.03c-.53-.35-1.64-1.06-1.64-1.06Z" fill="#1b4993"/><path id="Path_2013" d="m86.98,67.25c.07-1.5-1.12-3.18-2.98-1.55-.62.59-.85,1.49-.59,2.31.17.66.73,1.13,1.4,1.19.07,0,.17-.01.26-.01.02,0,.03.01.03.03.09.06.29-.01.36-.04.89-.21,1.52-1.01,1.51-1.92Z" fill="#1b4993"/><path id="Path_2014" d="m91.31,64.82c-.19-1.9-1.91-1.89-2.82-.8-1.05,1.28-.19,3.14.82,3.14.28.01.56-.04.82-.15.77-.45,1.23-1.3,1.18-2.19Z" fill="#1b4993"/><path id="Path_2015" d="m95.13,63.18c-.03-1.82-1.17-2.44-1.96-1.58-.88.94-.92,3.5.48,3.39.05,0,.1-.01.14-.03.14,0,.27-.02.4-.06.61-.35.97-1.01.94-1.72Z" fill="#1b4993"/><path id="Path_2016" d="m98.28,61.06c-.06-1.4-.96-1.93-1.58-1.29-.79.8-.49,3.12.4,3.12.19,0,.37-.05.53-.15.46-.44.7-1.06.65-1.69Z" fill="#1b4993"/><path id="Path_2017" d="m100.67,58.99c-.07-1.19-.56-1.83-1.02-1.31-.55.63-.4,2.95.36,2.94.11,0,.22-.05.3-.12.29-.45.42-.98.36-1.51Z" fill="#1b4993"/><path id="Path_2018" d="m102.25,56.99c-.12-.86-.52-1.29-.73-.99-.27.38.06,2.44.37,2.43.01,0,.04-.01.06-.01.03.09.06.09.12.03.25-.44.31-.96.18-1.45Z" fill="#1b4993"/><path id="Path_2019" d="m102.84,54.89c-.12-.63-.26-1-.33-.9-.05.76.08,1.51.37,2.21.02-.02.03-.05.03-.07t.03.03s0-.02,0-.03c.01-.41-.03-.83-.11-1.24Z" fill="#1b4993"/><path id="Path_2020" d="m55.95,75.4c-.85-1.67-2.42-3.18-2.97-1.74-.42,1.12,1.58,4.52,3.08,3.9.06-.02.12-.06.16-.1.33-.36.22-1.06-.28-2.05Z" fill="#1b4993"/><path id="Path_2021" d="m58.63,73.87c-.65-1.83-2.63-3.79-3.51-1.83-.33.74,0,1.82.99,3.18.34.28.7.52,1.09.73.26.1.54.13.82.09.04-.02.08-.04.12-.06.53-.39.99-.71.49-2.11Z" fill="#1b4993"/><path id="Path_2022" d="m62.05,72.03c-.52-2.12-2.58-3.82-3.86-1.92-.52.77-.3,1.87.63,3.3.54.57,1.3.88,2.09.86.07-.02.14-.04.2-.07.69-.39,1.29-.71.94-2.16Z" fill="#1b4993"/><path id="Path_2023" d="m66.02,69.7c-.28-1.08-1.11-1.93-2.19-2.24-.86-.1-1.7.34-2.09,1.12-.73,1.42.68,4.51,3.15,3.73.03-.01.09-.03.12-.04.94-.48,1.37-1.58,1.01-2.57Z" fill="#1b4993"/><path id="Path_2024" d="m53.37,78.79c-.6-.78-1.7-2.11-2.14-2.03-.33.78,2.29,3.82,3.02,3.85q.1-.12.12-.17c-.03-.12-.07-.42-1-1.64Z" fill="#1b4993"/><path id="Path_2025" d="m54.24,77.16c-.69-1.1-2.27-3.1-2.53-1.8-.17.83.86,2.15,1.2,2.53.5.6,1.4,1.54,1.91,1.16.03-.03.05-.06.07-.09.03-.1.19-.47-.65-1.8Z" fill="#1b4993"/><path id="Path_2026" d="m70.73,68.06c-.29-2.73-2.99-3.31-4.36-1.54-.74,1.24-.33,2.84.91,3.58.33.19.69.31,1.06.35.42-.01.84-.09,1.24-.22.85-.37,1.32-1.27,1.15-2.18Z" fill="#1b4993"/><path id="Path_2027" d="m75.77,66.13c.06-1.36-1-2.5-2.35-2.56-1.36-.06-2.5,1-2.56,2.35-.06,1.36,1,2.5,2.35,2.56,0,0,.02,0,.03,0,.44-.05.86-.14,1.28-.28.85-.32,1.37-1.18,1.25-2.08Z" fill="#1b4993"/><path id="Path_2028" d="m53.4,80.3c-1.51-1.64-1.68-1.76-1.86-1.85-.01,0-.03.01-.04.01.85,1.34,1.93,2.52,3.2,3.47l-.04-.16c-.36-.54-.78-1.03-1.25-1.48Z" fill="#1b4993"/><path id="Path_2029" d="m80.92,63.92c-.04-2.24-2.55-2.76-3.99-1.34-.86.87-.84,2.28.03,3.13.44.43,1.04.66,1.65.63.32-.04.63-.1.94-.2.88-.37,1.43-1.27,1.37-2.22Z" fill="#1b4993"/><path id="Path_2030" d="m54.25,81.69c-.5-.48-1.01-.99-1.4-1.38.22.23.45.47.68.7.27.28.55.54.82.8s.56.51.85.76c.2.17.4.35.6.51-.45-.38-1.04-.89-1.55-1.39Z" fill="#1b4993"/><path id="Path_2031" d="m85.63,61.81c-.02-1.09-.92-1.95-2-1.93-.61.01-1.17.3-1.54.78-.81.87-.75,2.23.12,3.04.37.34.85.54,1.35.57.29-.03.58-.09.86-.19.83-.44,1.31-1.34,1.21-2.27Z" fill="#1b4993"/><path id="Path_2032" d="m89.96,59.81c.05-.95-.68-1.75-1.63-1.8-.58-.03-1.13.23-1.47.7-1.14,1.34-.01,3.56,1.32,3.43.27-.03.54-.1.79-.19.71-.46,1.09-1.3.98-2.14Z" fill="#1b4993"/><path id="Path_2033" d="m93.78,58c-.14-1.47-1.37-2.73-2.4-1.5-1.11,1.34-.12,3.63,1.11,3.42.22-.05.44-.12.65-.22.53-.39.79-1.06.65-1.7Z" fill="#1b4993"/><path id="Path_2034" d="m96.9,55.72c-.42-1.67-1.52-1.72-2.03-.86-.33.68-.3,1.47.07,2.12.15.29.38.53.66.68.19.09.41.1.6.03.07-.02.14-.05.2-.09.46-.51.64-1.22.49-1.89Z" fill="#1b4993"/><path id="Path_2035" d="m99.29,53.77c-.3-1.24-1.15-1.48-1.5-.97-.5.74.33,2.81.89,2.73.04-.01.08-.02.12-.04.01,0,.03.01.04.01.08.03.18,0,.23-.06.34-.49.42-1.11.21-1.67Z" fill="#1b4993"/><path id="Path_2036" d="m100.73,51.9c-.14-.47-.7-1.64-.92-1.15-.29.65.19,2.83.92,2.62.04-.01.07-.04.09-.07.11-.46.08-.95-.09-1.4Z" fill="#1b4993"/><path id="Path_2037" d="m101.29,49.97c-.29-.73-.55-1.12-.62-.92-.14.41.6,2.3.86,2.18.02-.01.03-.04.03-.06-.03-.41-.12-.82-.27-1.21Z" fill="#1b4993"/><path id="Path_2038" d="m101.25,48.95c-.32-.8-.6-1.38-.75-1.67,0,.09.83,1.93.85,1.93s0-.01-.03-.09c-.03-.06-.05-.11-.07-.17Z" fill="#1b4993"/><path id="Path_2039" d="m50.68,68.15c.92-.01,1.31.35,1.9,1.34-.3-1.42-.36-2.11.09-2.72l.86-.57c3.01.28,2.66,4.53,1.86,5.23-.04.03-.08.05-.13.07-.81.28-1.11-.03-2.33-1.31,1.47,4.06-1.01,2.7-1.04,2.69-1.41-1-2.03-2.77-1.55-4.43l.35-.31Z" fill="#1b4993"/><path id="Path_2040" d="m63.91,64.6c.3,1.27-.49,2.54-1.76,2.84-.68.16-1.4,0-1.96-.42-.24-.23-.45-.49-.62-.77.85,3.18-1.83,3.5-2.93,2.76-.5-.35-2.04-1.67-.73-4.38l1.09-.59c.94.1,1.78.64,2.25,1.47-.17-1.6.07-2.34.95-2.91l.72-.36c1.47-.16,2.8.88,3,2.34Z" fill="#1b4993"/><path id="Path_2041" d="m51.1,72.53c-.65-1.44-1.8-3.12-2.22-2.2-.65,1.4,1.6,4.69,2.27,4.58.14-.02.27-.1.36-.22.2-.38.06-1.11-.42-2.17Z" fill="#1b4993"/><path id="Path_2042" d="m68.66,62.55c-.5-2.5-3.25-3.2-4.58-1.18-.88,1.32-.12,4.67,2.95,3.98.07-.01.14-.04.2-.07,1.08-.44,1.68-1.59,1.43-2.73Z" fill="#1b4993"/><path id="Path_2043" d="m50.06,74.46c-.3-.57-1.35-2.43-1.81-2.34-.37.94,1.89,4.39,2.4,4.45.01-.01.03-.04.04-.06.02.03.03.05.06.07.03-.03.04-.04.06-.15,0-.16.02-.58-.75-1.98Z" fill="#1b4993"/><path id="Path_2044" d="m73.78,60.66c-.13-1.41-1.38-2.45-2.79-2.31-.7.07-1.34.41-1.77.96-.87,1.06-.71,2.62.34,3.49.44.36.99.56,1.56.56.32-.01.64-.05.95-.1.36-.17.7-.35,1.04-.57.44-.59.67-1.3.68-2.03Z" fill="#1b4993"/><path id="Path_2045" d="m49.82,75.92c-.35-.63-.77-1.23-1.25-1.77-.01.04-.04.13.52,1.09l.26.44.6.96c.07.12.14.22.23.33.25.39.54.77.85,1.12,0-.01,0-.03.01-.03s.03.01.03.03t-.03-.07c-.36-.72-.77-1.42-1.23-2.09Z" fill="#1b4993"/><path id="Path_2046" d="m78.92,58.8c.05-1.31-.97-2.41-2.29-2.46-.63-.02-1.24.2-1.7.63-.73.7-.97,1.77-.6,2.72.38.86,1.21,1.43,2.14,1.48.41-.02.82-.1,1.21-.23.87-.33,1.38-1.22,1.24-2.13Z" fill="#1b4993"/><path id="Path_2047" d="m83.74,56.76c-.29-2.27-2.55-2.98-3.61-1.64-.98,1.25-.85,4.27,2.03,3.85.1-.02.21-.05.3-.09.87-.33,1.4-1.21,1.28-2.13Z" fill="#1b4993"/><path id="Path_2048" d="m87.98,54.79c-.15-.89-.71-1.65-1.52-2.05-.64-.17-1.32.06-1.73.59-.46.75-.48,1.69-.07,2.47.36.85,1.32,1.27,2.19.97.13-.03.25-.07.37-.12.66-.37.97-1.14.76-1.86Z" fill="#1b4993"/><path id="Path_2049" d="m91.79,52.67c-.36-1.82-2.09-2.24-2.82-1.08-.33.64-.3,1.4.06,2.02.68,1.06,1.17,1.18,1.87,1.02.1-.02.2-.06.29-.1.56-.44.8-1.18.6-1.86Z" fill="#1b4993"/><path id="Path_2050" d="m94.72,50.66c-.39-1.35-1.66-1.92-2.2-1-.27.59-.24,1.28.09,1.85,0,.01.68,1.21,1.38,1.06l.49-.17c.58-.44.31-1.51.24-1.73Z" fill="#1b4993"/><path id="Path_2051" d="m96.96,48.73c-.6-1.32-1.42-1.55-1.7-.87-.13.53-.05,1.1.23,1.57.12.22.25.43.39.64.14.13.52.45.73.38.09.07.14.07.24-.01s.17-.26.33-.32c.02-.47-.06-.94-.23-1.38Z" fill="#1b4993"/><path id="Path_2052" d="m98.28,46.97c-.48-.96-1.09-1.4-1.25-.92-.06.22-.09.71.53,1.66.14.23.32.44.52.63.06.03.13.05.2.06l.22-.06s.04-.03.04-.04c.2-.38-.24-1.28-.26-1.32Z" fill="#1b4993"/><path id="Path_2053" d="m98.93,45.53s-.92-1.61-1.04-1.22c-.12.44.96,2.21,1.24,2.02.02-.02.03-.05.03-.07-.03-.26-.11-.5-.23-.73Z" fill="#1b4993"/><path id="Path_2054" d="m98.35,43.6c-.18-.29-.39-.56-.63-.8.31.6.68,1.17,1.11,1.69v-.03s.03.05.06.07v-.03c-.14-.32-.32-.63-.53-.9Z" fill="#1b4993"/><path id="Path_2055" d="m45.7,66.7c-.16-.7-.24-1.18-.27-1.32.04.22.07.44.12.64.07.38.16.77.26,1.15.09.35.17.7.27,1.05-.13-.48-.26-.99-.38-1.51Z" fill="#1b4993"/><path id="Path_2056" d="m90.95,36.2c-.28-.23-.6-.42-.94-.55.2.21.42.41.66.59.29.23.6.44.92.61v-.02s.06.04.09.06v-.03c-.21-.25-.46-.47-.73-.65Z" fill="#2f71b3"/></g></svg>