<?xml version="1.0" encoding="UTF-8"?><svg id="Layer_1" xmlns="http://www.w3.org/2000/svg" viewBox="0 0 250 119.4"><g id="logo-mapfre"><path id="Path_2069" d="m125,64.15c-12.03-.08-21.72-9.9-21.64-21.93.08-12.03,9.9-21.72,21.93-21.64,11.97.08,21.64,9.81,21.64,21.78-.04,12.07-9.86,21.83-21.93,21.79Zm0-45.86c-13.3.09-24.01,10.94-23.91,24.24.09,13.3,10.94,24.01,24.24,23.91,13.23-.09,23.92-10.84,23.92-24.08-.05-13.34-10.9-24.12-24.24-24.08Z" fill="#b7412c" fill-rule="evenodd"/><path id="Path_2070" d="m138.47,44.54c-.21.13-.46.18-.71.16l-8.07-.02c-.23.02-.46-.1-.57-.3-.12-.2-.11-.45.02-.64l4.02-7.04c.27-.61.99-.89,1.6-.61.08.04.17.09.24.14l.04.03c2.12,1.8,3.54,4.27,4.03,7.01,0,.04,0,.08,0,.12.04.47-.2.92-.6,1.16Zm-12.44-.25c-.18.37-.62.52-.99.34-.15-.08-.28-.2-.35-.36l-4.98-8.63c-.48-.68-.31-1.63.38-2.1.07-.05.14-.09.21-.12.04-.03.09-.04.13-.06,3.2-1.16,6.7-1.16,9.89,0l.06.02c.77.33,1.12,1.22.79,1.98-.04.1-.1.19-.16.28l-4.98,8.63Zm-4.42.09c-.12.2-.34.32-.58.3l-8.07.02c-.25.02-.5-.03-.71-.16-.41-.24-.64-.69-.6-1.16,0-.04,0-.08,0-.12.49-2.73,1.91-5.21,4.03-7l.04-.03c.53-.41,1.3-.3,1.7.23.06.07.1.15.14.24l4.02,7.04c.13.19.14.44.02.64h0Zm19.86-1.04c0-.17-.02-.33-.05-.49-.29-1.63-.86-3.19-1.68-4.63-.89-1.49-2.02-2.82-3.34-3.94-.83-.63-1.89-.86-2.91-.63-.41-1.13-1.26-2.04-2.35-2.53-3.72-1.36-7.8-1.36-11.52-.01-.16.06-.32.13-.48.22-.94.49-1.63,1.34-1.93,2.36-1.08-.17-2.18.09-3.06.74-2.55,2.16-4.26,5.14-4.85,8.43-.03.16-.04.33-.05.49-.06,1.35.64,2.61,1.8,3.29.6.35,1.29.52,1.98.48l7.93-.02c.56.02,2.06.02,3.2.02v7.52h2.39v-7.52c1.14,0,2.63,0,3.2-.02l7.93.02c.69.04,1.38-.13,1.98-.48,1.16-.68,1.86-1.95,1.8-3.29h0Z" fill="#b7412c" fill-rule="evenodd"/><path id="Path_2071" d="m55.45,88.96l-5.9-12.15h-8.92v24.31h8.92v-12.16l5.9,12.16,5.9-12.15v12.15h8.92v-24.31h-8.92l-5.9,12.15Z" fill="#b7412c" fill-rule="evenodd"/><path id="Path_2072" d="m82.66,92.89l3.55-13.07,3.56,13.07h-7.11Zm-4.18-16.82l-6.81,25.04h8.75l1.12-4.11h9.35l1.12,4.11h8.75l-6.81-25.04h-15.47Z" fill="#b7412c" fill-rule="evenodd"/><path id="Path_2073" d="m117.37,86.44h-1.9v-7.49h1.9c1.97,0,3.89,1.11,3.89,3.38.08,2.19-1.64,4.03-3.83,4.11-.02,0-.04,0-.06,0Zm5.58-10.37h-16.37v25.04h8.74v-10.44h7.62c4.03-.23,7.12-3.68,6.89-7.72-.21-3.71-3.18-6.68-6.89-6.89Z" fill="#b7412c" fill-rule="evenodd"/><path id="Path_2074" d="m131.79,101.11h8.75v-10.45h14.52v-4.11h-14.52v-6.37h14.52v-4.11h-23.27v25.04Z" fill="#b7412c" fill-rule="evenodd"/><path id="Path_2075" d="m209.36,80.18v-4.11h-23.27v25.04h23.27v-4.11h-14.52v-6.34h14.52v-4.11h-14.52v-6.37h14.52Z" fill="#b7412c" fill-rule="evenodd"/><path id="Path_2076" d="m169.73,86.44h-1.9v-7.49h1.9c1.92,0,3.89,1.11,3.89,3.38.06,2.21-1.68,4.05-3.89,4.11Zm12.48-4.11c.09-3.36-2.56-6.16-5.92-6.26h-17.35v25.04h8.9v-10.37h1.9c2.21.06,3.95,1.9,3.89,4.11v6.26h8.6v-6.47c-.02-3.28-2.64-5.96-5.92-6.05,3.36-.1,6-2.9,5.91-6.26Z" fill="#b7412c" fill-rule="evenodd"/></g></svg>