<svg width="79" height="76" viewBox="0 0 79 76" fill="none" xmlns="http://www.w3.org/2000/svg">
<path d="M32.0554 5.65023C34.1283 7.0817 36.1112 8.02428 37.7422 8.23157C36.8483 10.0052 36.2285 11.9041 35.9039 13.8636C33.2757 13.2808 30.7765 11.8924 28.7231 10.4765C27.7395 9.79492 26.7881 9.06797 25.8719 8.29805V17.0355C25.8713 17.6202 25.696 18.1913 25.3685 18.6757C25.0409 19.16 24.5761 19.5354 24.0337 19.7537L24.0102 19.7654C23.7904 19.8541 23.5739 19.9506 23.361 20.0549C22.9034 20.27 22.2385 20.6024 21.4602 21.0483C19.5473 22.1233 17.7828 23.4434 16.2115 24.975C14.4398 26.7468 13.3446 29.1325 12.7306 30.9825C11.9366 33.3526 9.91851 35.5389 7.04775 36.02C6.84395 36.0541 6.65876 36.1592 6.52493 36.3167C6.3911 36.4741 6.31723 36.6738 6.31637 36.8805V43.7405C6.31637 44.3859 6.78571 44.9373 7.42322 45.0429C9.86375 45.4497 11.7841 47.0454 12.8675 48.9775C14.3073 51.5556 16.09 53.9265 18.167 56.0253C19.9525 57.7664 22.0574 59.1462 24.3662 60.089C25.3481 60.4977 26.3602 60.8298 27.3934 61.0824L27.4129 61.0902C28.0805 61.2208 28.6819 61.5794 29.1142 62.1045C29.5466 62.6296 29.783 63.2886 29.783 63.9688V68.8577C29.783 69.3974 30.2211 69.8355 30.7608 69.8355H35.6497C35.6497 68.2795 36.2678 66.7873 37.368 65.6871C38.4682 64.5869 39.9604 63.9688 41.5164 63.9688H49.3386C50.8945 63.9688 52.3867 64.5869 53.487 65.6871C54.5872 66.7873 55.2053 68.2795 55.2053 69.8355H60.0942C60.3535 69.8355 60.6022 69.7325 60.7855 69.5491C60.9689 69.3657 61.0719 69.117 61.0719 68.8577V60.0577C61.0719 58.9509 61.6977 57.9379 62.6833 57.4373L62.7342 57.4099C63.2115 57.138 63.6737 56.8403 64.1187 56.5181C65.0691 55.8298 66.3558 54.7621 67.6465 53.2563C70.1966 50.2838 72.8053 45.5631 72.8053 38.5466C72.8053 34.6081 72.07 31.4284 70.8145 28.8157C72.211 26.9617 73.2678 24.8748 73.9356 22.6518C74.3267 23.1837 74.6943 23.7352 75.0385 24.3062C77.4008 28.2134 78.6719 32.9263 78.6719 38.5427C78.6719 47.1745 75.414 53.2094 72.1013 57.0774C70.5913 58.8389 68.8554 60.3933 66.9386 61.7004V68.8538C66.9391 69.7529 66.7625 70.6434 66.4187 71.4742C66.075 72.3051 65.5709 73.0601 64.9353 73.6961C64.2997 74.3321 63.545 74.8366 62.7143 75.1808C61.8837 75.525 60.9933 75.7021 60.0942 75.7021H55.2053C53.6493 75.7021 52.1571 75.0841 51.0569 73.9838C49.9567 72.8836 49.3386 71.3914 49.3386 69.8355H41.5164C41.5164 71.3914 40.8983 72.8836 39.7981 73.9838C38.6979 75.0841 37.2056 75.7021 35.6497 75.7021H30.7608C28.9456 75.7021 27.2046 74.981 25.9211 73.6975C24.6375 72.4139 23.9164 70.673 23.9164 68.8577V66.1864C23.3036 65.9798 22.6983 65.7515 22.1016 65.502C19.0899 64.2639 16.3461 62.455 14.0213 60.175C11.561 57.694 9.44925 54.8901 7.74393 51.8405C7.61715 51.5878 7.43604 51.3663 7.21358 51.1918C6.99111 51.0173 6.73281 50.8943 6.45717 50.8314C4.77854 50.5518 3.25354 49.6857 2.1535 48.3873C1.05346 47.0889 0.449725 45.4423 0.449707 43.7405V36.8844C0.449707 33.5873 2.83549 30.7752 6.08171 30.2355C6.42197 30.1768 6.92651 29.8365 7.16509 29.1247C7.91602 26.868 9.37486 23.5162 12.0657 20.8253C14.005 18.9245 16.1851 17.2862 18.5503 15.9521C19.0822 15.647 19.575 15.385 20.0053 15.1699V4.01148C20.0053 0.342853 24.4248 -1.16293 26.8106 1.21112C28.1013 2.49788 29.9786 4.21094 32.0554 5.64632V5.65023ZM43.7457 24.2632C41.8293 23.4693 40.2101 21.9596 39.8268 19.9219C39.1297 16.1254 39.86 12.2052 41.8774 8.91437C43.8948 5.62356 47.0571 3.19427 50.7567 2.09317C54.4563 0.992072 58.4323 1.29683 61.9208 2.9489C65.4094 4.60097 68.1645 7.48383 69.6568 11.0437C71.0322 14.361 71.2248 18.0505 70.2021 21.493C69.1795 24.9355 67.0039 27.9215 64.0405 29.95C62.3274 31.1194 60.1176 31.0412 58.2012 30.2472L43.7457 24.2632ZM60.9311 24.9672C62.8629 23.5589 64.2123 21.4922 64.7246 19.1571C65.237 16.8221 64.8768 14.3802 63.7122 12.2925C62.5475 10.2048 60.6589 8.61565 58.4029 7.82499C56.1468 7.03433 53.6794 7.09687 51.4662 8.00081C49.4323 8.84322 47.7418 10.3469 46.6681 12.2687C45.5943 14.1906 45.1999 16.4184 45.5487 18.5921L45.6309 18.6547C45.7445 18.7287 45.865 18.7916 45.9907 18.8424L60.4462 24.8264C60.6017 24.8913 60.7646 24.9373 60.9311 24.9633V24.9672ZM27.8275 28.7688C27.8275 29.8061 27.4154 30.8009 26.6819 31.5344C25.9485 32.2679 24.9537 32.6799 23.9164 32.6799C22.8791 32.6799 21.8843 32.2679 21.1508 31.5344C20.4173 30.8009 20.0053 29.8061 20.0053 28.7688C20.0053 27.7315 20.4173 26.7367 21.1508 26.0032C21.8843 25.2698 22.8791 24.8577 23.9164 24.8577C24.9537 24.8577 25.9485 25.2698 26.6819 26.0032C27.4154 26.7367 27.8275 27.7315 27.8275 28.7688Z" fill="white"/>
</svg>
