<svg width="51" height="71" viewBox="0 0 51 71" fill="none" xmlns="http://www.w3.org/2000/svg">
<path d="M43.3067 33.5849C45.706 30.7884 47.0119 27.218 46.9831 23.5334C46.9831 16.2587 42.016 10.1183 35.2498 8.39738V0.0667114H27.4276V7.88893H19.6054V0.0667114H11.7831V7.88893H0.0498047V15.7112H7.87203V54.8223H0.0498047V62.6445H11.7831V70.4667H19.6054V62.6445H27.4276V70.4667H35.2498V62.6445C43.8934 62.6445 50.8942 55.6436 50.8942 47C50.8942 41.3289 47.8436 36.3227 43.3067 33.5849ZM15.6942 15.7112H31.3387C35.6409 15.7112 39.1609 19.2312 39.1609 23.5334C39.1609 27.8356 35.6409 31.3556 31.3387 31.3556H15.6942V15.7112ZM35.2498 54.8223H15.6942V39.1778H35.2498C39.552 39.1778 43.072 42.6978 43.072 47C43.072 51.3023 39.552 54.8223 35.2498 54.8223Z" fill="white"/>
</svg>
