<svg width="87" height="71" viewBox="0 0 87 71" fill="none" xmlns="http://www.w3.org/2000/svg">
<path d="M79.0721 15.6444V7.82222H24.3165V15.6444H79.0721ZM79.0721 46.9333V27.3778H24.3165V46.9333H79.0721ZM79.0721 0C81.1467 0 83.1363 0.824124 84.6032 2.29108C86.0702 3.75803 86.8943 5.74764 86.8943 7.82222V46.9333C86.8943 49.0079 86.0702 50.9975 84.6032 52.4645C83.1363 53.9314 81.1467 54.7556 79.0721 54.7556H24.3165C22.2419 54.7556 20.2523 53.9314 18.7854 52.4645C17.3184 50.9975 16.4943 49.0079 16.4943 46.9333V7.82222C16.4943 3.48089 19.9752 0 24.3165 0H79.0721ZM8.67208 62.5778H67.3387V70.4H8.67208C6.59749 70.4 4.60788 69.5759 3.14093 68.1089C1.67398 66.642 0.849854 64.6524 0.849854 62.5778V19.5556H8.67208V62.5778Z" fill="white"/>
</svg>
