<?xml version="1.0" encoding="UTF-8" standalone="no"?>
<!DOCTYPE svg PUBLIC "-//W3C//DTD SVG 1.1//EN" "http://www.w3.org/Graphics/SVG/1.1/DTD/svg11.dtd">
<svg version="1.1" xmlns="http://www.w3.org/2000/svg" xmlns:xlink="http://www.w3.org/1999/xlink" preserveAspectRatio="xMidYMid meet" viewBox="5.684341886080802e-14 0 640 183.5313491597105" width="640" height="183.53"><defs><path d="M498.02 0C498.02 0 498.02 0 498.02 0C448.78 81.24 371.76 141.88 281.24 170.71C267.73 175.01 307.68 162.29 279.19 171.37C236.26 185.04 190.5 187.23 146.46 177.73C123.31 172.73 159.9 180.63 146.46 177.73C76.18 162.56 21.57 107.19 7.39 36.71C6.4 31.81 3.94 19.58 0 0L498.02 0Z" id="fwUhxMOir"></path><path d="M371.65 126.59C397.86 111.57 414.24 102.18 420.79 98.43C446.19 83.87 477.38 83.78 502.87 98.19C516.86 106.1 494.64 93.54 502.87 98.19C545.82 122.47 598.75 120.71 640 93.63C640 93.63 640 93.63 640 93.63L640 0L498.02 0L371.65 126.59Z" id="bUmZbgHzN"></path></defs><g><g><g><use xlink:href="#fwUhxMOir" opacity="1" fill="#37609b" fill-opacity="1"></use><g><use xlink:href="#fwUhxMOir" opacity="1" fill-opacity="0" stroke="#000000" stroke-width="0" stroke-opacity="1"></use></g></g><g><use xlink:href="#bUmZbgHzN" opacity="1" fill="#37609b" fill-opacity="1"></use><g><use xlink:href="#bUmZbgHzN" opacity="1" fill-opacity="0" stroke="#000000" stroke-width="0" stroke-opacity="1"></use></g></g></g></g></svg>