<svg width="75" height="72" viewBox="0 0 75 72" fill="none" xmlns="http://www.w3.org/2000/svg">
<path d="M8.0721 0.93335C5.99752 0.93335 4.00791 1.75747 2.54095 3.22443C1.074 4.69138 0.249878 6.68099 0.249878 8.75557V63.5111C0.249878 65.5857 1.074 67.5753 2.54095 69.0423C4.00791 70.5092 5.99752 71.3334 8.0721 71.3334H62.8277C64.9022 71.3334 66.8919 70.5092 68.3588 69.0423C69.8258 67.5753 70.6499 65.5857 70.6499 63.5111V54.5938C71.8321 53.9113 72.8152 52.9312 73.5013 51.7511C74.1874 50.5709 74.5528 49.2318 74.561 47.8667V24.4C74.5528 23.0349 74.1874 21.6958 73.5013 20.5156C72.8152 19.3355 71.8321 18.3554 70.6499 17.6729V8.75557C70.6499 6.68099 69.8258 4.69138 68.3588 3.22443C66.8919 1.75747 64.9022 0.93335 62.8277 0.93335H8.0721ZM8.0721 8.75557H62.8277V16.5778H39.361C37.2864 16.5778 35.2968 17.4019 33.8298 18.8689C32.3629 20.3358 31.5388 22.3254 31.5388 24.4V47.8667C31.5388 49.9413 32.3629 51.9309 33.8298 53.3978C35.2968 54.8648 37.2864 55.6889 39.361 55.6889H62.8277V63.5111H8.0721V8.75557ZM39.361 24.4H66.7388V47.8667H39.361V24.4ZM51.0943 30.2667C49.5384 30.2667 48.0462 30.8848 46.946 31.985C45.8458 33.0852 45.2277 34.5774 45.2277 36.1334C45.2277 37.6893 45.8458 39.1815 46.946 40.2817C48.0462 41.3819 49.5384 42 51.0943 42C52.6503 42 54.1425 41.3819 55.2427 40.2817C56.3429 39.1815 56.961 37.6893 56.961 36.1334C56.961 34.5774 56.3429 33.0852 55.2427 31.985C54.1425 30.8848 52.6503 30.2667 51.0943 30.2667Z" fill="white"/>
</svg>
