<?xml version="1.0" encoding="UTF-8"?><svg id="Layer_1" xmlns="http://www.w3.org/2000/svg" viewBox="0 0 250 250" fill="#FFFF"><path d="m235.5,151.34h-9.88c-2.44-1.29-8.48-4.12-16.72-5.51-9.37-1.58-23.45-1.53-38.34,7.17.74-2.05,1.32-4.18,1.72-6.37.79-4.26.87-8.63.25-12.99-1.37-9.57-6.04-18.14-13.23-24.45,1.45-4.15,2.25-8.62,2.25-13.26,0-16.89-10.49-31.89-26.24-37.72l-18.23-20.63c-5.42-6.14-13.22-9.44-21.41-9.06l-63.54,2.98-15.23-9.6c-1.39-.88-3.14-.93-4.58-.13-1.44.79-2.33,2.3-2.33,3.94v55.83c0,1.89,1.18,3.57,2.95,4.22l15.23,5.59c2.54,2.66,10.65,10.51,20.53,13.54,8.72,2.68,16.54,2.19,21.95,1.13l13.76,5.93c2.39,5.49,5.95,10.28,10.31,14.12-2.13,6.07-2.77,12.59-1.84,19.02,1.53,10.64,7.11,20.04,15.71,26.48,6.16,4.61,13.33,7.31,20.81,7.91-1.83,2.72-2.75,6.02-2.54,9.33l-29.52-3.45c-.1-.01-.19-.02-.29-.02-10.79-.54-15.58,6.77-16.63,10.78-2.26,8.07,1.81,15.9,9.68,18.63.13.04.26.08.4.12l49.88,12.33s.09.02.13.03c5.05,1.08,10.15,1.62,15.25,1.62,8.72,0,17.4-1.58,25.66-4.71,2.32-.88,3.49-3.48,2.61-5.8-.88-2.33-3.48-3.49-5.8-2.61-11.44,4.33-23.8,5.27-35.76,2.72l-49.59-12.25c-3.27-1.22-4.75-4.21-3.78-7.67.01-.04.02-.09.03-.13.04-.18,1.16-4.32,7.32-4.06l34.73,4.05c3.78,3.79,9.45,5.36,14.94,3.64.2-.06,26.85-12.79,26.85-12.79,2.24-1.07,3.19-3.76,2.12-6-1.07-2.24-3.76-3.19-6-2.12l-25.92,12.39c-2.98.78-6.03-.84-7.04-3.78-.88-2.59.18-5.5,2.52-6.92l34.51-20.84s.06-.04.09-.06c10.53-6.72,21.9-9.15,33.79-7.23,9.03,1.46,15.01,5,15.06,5.03.71.43,1.52.66,2.34.66h6.54v31.77h-6.54c-.74,0-1.47.18-2.13.54l-8.42,4.52c-2.19,1.17-3.01,3.9-1.84,6.09.81,1.51,2.36,2.37,3.97,2.37.72,0,1.45-.17,2.12-.54l7.43-3.98h9.91c2.49,0,4.5-2.02,4.5-4.5v-40.78c0-2.48-2.01-4.5-4.5-4.5h0Zm-165.38-54.42c-4.34,1-11.12,1.7-18.77-.65-9.26-2.84-17.16-11.68-17.23-11.76-.5-.56-1.12-.99-1.83-1.25l-13.29-4.88v-44.53l9.52,6.01c.78.49,1.69.73,2.61.69l64.96-3.04c5.44-.26,10.64,1.94,14.24,6.03l10.75,12.17c-13.02.07-25.09,6.43-32.55,16.89l-4.28-2.87v-5.86c0-2.49-2.02-4.5-4.5-4.5s-4.5,2.02-4.5,4.5v8.26c0,1.5.75,2.9,1.99,3.74,0,0,33.98,22.81,34.05,22.85,3.06,1.81,3.95,6.04,2.86,8.68-1.09,2.57-3.6,4.23-6.39,4.23-.86,0-1.7-.16-2.51-.47l-32.37-13.96c-.88-.38-1.86-.47-2.79-.25h0Zm31.66,22.51s.08.03.11.05c1.89.75,3.87,1.13,5.89,1.13,6.42,0,12.18-3.82,14.69-9.76,2.97-7.17.13-15.85-6.47-19.83l-19.99-13.42c5.83-8.05,15.21-12.91,25.3-12.91,3.41,0,6.76.54,9.95,1.62,12.72,4.28,21.27,16.18,21.27,29.61,0,17.22-14.01,31.23-31.23,31.23-8.09,0-15.71-3.18-21.4-8.52l1.87.8Zm.01,24.36c-.6-4.15-.35-8.36.7-12.37,5.7,3.03,12.14,4.72,18.82,4.72,14.18,0,26.68-7.38,33.84-18.5,4.55,4.69,7.51,10.67,8.45,17.26.49,3.39.42,6.78-.19,10.09-2.42,13.2-12.98,23.36-26.28,25.27-8.26,1.19-16.48-.91-23.16-5.91-6.68-5-11.01-12.3-12.2-20.56h0Z"/><path d="m195.99,206.64c-2.21,1.12-3.09,3.83-1.97,6.04,1.12,2.21,3.83,3.09,6.04,1.97s3.09-3.83,1.97-6.04c-1.12-2.21-3.83-3.09-6.04-1.97Z"/></svg>