<?xml version="1.0" encoding="UTF-8"?><svg id="Layer_1" xmlns="http://www.w3.org/2000/svg" viewBox="0 0 250 250" fill="#FFFF"><path d="m45.18,108.5h2.53c2.47,9.97,11.12,16.54,21.39,16.54s18.92-6.58,21.39-16.54h66.77c2.47,9.97,11.12,16.54,21.39,16.54s18.92-6.58,21.39-16.54h4.77c4.59.04,9.01-1.75,12.27-4.97,3.26-3.23,5.11-7.62,5.11-12.21v-12.94c0-6.82-3.99-13.01-10.19-15.84l-15.63-7.11-13.78-21.95c-3.99-6.39-11-10.25-18.53-10.21h-58.6c-6.82,0-13.25,3.16-17.4,8.57l-17.74,23.26-29.72,8.11c-7.56,2.08-12.8,8.94-12.81,16.77v11.33c0,4.59,1.85,8.98,5.11,12.21,3.26,3.23,7.68,5.02,12.27,4.97Zm23.92,8.79c-7.8,0-14.12-6.33-14.12-14.12,0-7.8,6.32-14.12,14.12-14.12,7.8,0,14.12,6.32,14.12,14.12,0,7.8-6.33,14.11-14.12,14.12Zm109.55,0c-7.8,0-14.12-6.32-14.12-14.12s6.32-14.12,14.12-14.12,14.12,6.32,14.12,14.12c0,7.79-6.33,14.11-14.12,14.12ZM35.78,79.98c0-4.24,2.84-7.97,6.93-9.09l31.03-8.48c.85-.23,1.59-.73,2.12-1.43l18.55-24.31c2.64-3.43,6.73-5.43,11.06-5.42h58.6c4.78-.04,9.24,2.41,11.78,6.47l14.42,23c.42.66,1.02,1.18,1.73,1.5l16.72,7.6c3.36,1.53,5.51,4.88,5.51,8.57v12.94c0,2.47-1.01,4.84-2.77,6.58-1.77,1.73-4.16,2.68-6.63,2.64h-4.2c-1.23-11.2-10.7-19.68-21.96-19.68s-20.73,8.48-21.96,19.68h-65.63c-1.23-11.2-10.7-19.68-21.96-19.68s-20.73,8.48-21.96,19.68h-1.96c-2.47.04-4.86-.91-6.63-2.64-1.77-1.73-2.77-4.1-2.77-6.58v-11.33Z"/><path d="m26.69,223.44c.33,1.91,1.99,3.3,3.92,3.3.23,0,.46-.02.69-.06l32.56-5.7c2.17-.38,3.62-2.45,3.24-4.61l-.63-3.64,7.59-6.17c2.98-2.48,6.8-3.7,10.66-3.41l53.09,3.88c.09,0,.18,0,.27.01,11.82.04,23.35-3.7,32.91-10.67.15-.11.3-.23.43-.37l63.24-61.92c1.51-1.48,1.6-3.87.22-5.46-7.3-8.42-19.92-9.63-28.68-2.74l-29.05,21.72c-6.04-7.35-15.57-10.89-24.94-9.25l-29.69,5.19c-4.73.82-9.58.57-14.2-.74l-3.32-.95c-17.06-4.9-35.44-1.09-49.15,10.2l-1.25-7.15c-.38-2.17-2.45-3.62-4.61-3.24l-32.56,5.7c-2.17.38-3.62,2.45-3.24,4.61l12.5,71.45Zm76.13-73.9l3.32.95c5.78,1.64,11.85,1.95,17.76.92l29.69-5.19c8.51-1.48,16.9,3.14,20.2,11.12l-44.45,7.78c-2.04.35-3.47,2.21-3.29,4.27s1.9,3.64,3.97,3.64c.23,0,.46-.02.69-.06l48.8-8.54c2.17-.38,3.62-2.45,3.24-4.61-.32-1.82-.83-3.6-1.51-5.31l29.76-22.26.08-.06c4.3-3.4,10.28-3.72,14.91-.79l-59.96,58.78c-8.04,5.83-17.71,8.99-27.64,9.03h-.15l-52.96-3.94c-5.9-.46-11.74,1.39-16.3,5.16l-4.11,3.32-7.41-42.39c11.82-11.93,29.2-16.46,45.34-11.83Zm-55.38.69l11.12,63.59-24.7,4.32-11.12-63.59,24.7-4.32Z"/></svg>